%TF.GenerationSoftware,KiCad,Pcbnew,9.0.5*%
%TF.CreationDate,2025-12-13T22:10:15+05:30*%
%TF.ProjectId,Serial-Basic-CH340C-and-USBC,53657269-616c-42d4-9261-7369632d4348,V1.2*%
%TF.SameCoordinates,Original*%
%TF.FileFunction,Legend,Top*%
%TF.FilePolarity,Positive*%
%FSLAX46Y46*%
G04 Gerber Fmt 4.6, Leading zero omitted, Abs format (unit mm)*
G04 Created by KiCad (PCBNEW 9.0.5) date 2025-12-13 22:10:15*
%MOMM*%
%LPD*%
G01*
G04 APERTURE LIST*
%ADD10C,0.150000*%
%ADD11C,0.300000*%
%ADD12C,0.100000*%
%ADD13C,0.140000*%
%ADD14C,0.120000*%
G04 APERTURE END LIST*
D10*
X175200000Y-118816033D02*
X175200000Y-118116033D01*
X175200000Y-118116033D02*
X175366667Y-118116033D01*
X175366667Y-118116033D02*
X175466667Y-118149366D01*
X175466667Y-118149366D02*
X175533334Y-118216033D01*
X175533334Y-118216033D02*
X175566667Y-118282700D01*
X175566667Y-118282700D02*
X175600000Y-118416033D01*
X175600000Y-118416033D02*
X175600000Y-118516033D01*
X175600000Y-118516033D02*
X175566667Y-118649366D01*
X175566667Y-118649366D02*
X175533334Y-118716033D01*
X175533334Y-118716033D02*
X175466667Y-118782700D01*
X175466667Y-118782700D02*
X175366667Y-118816033D01*
X175366667Y-118816033D02*
X175200000Y-118816033D01*
X175800000Y-118116033D02*
X176200000Y-118116033D01*
X176000000Y-118816033D02*
X176000000Y-118116033D01*
X176833333Y-118816033D02*
X176600000Y-118482700D01*
X176433333Y-118816033D02*
X176433333Y-118116033D01*
X176433333Y-118116033D02*
X176700000Y-118116033D01*
X176700000Y-118116033D02*
X176766667Y-118149366D01*
X176766667Y-118149366D02*
X176800000Y-118182700D01*
X176800000Y-118182700D02*
X176833333Y-118249366D01*
X176833333Y-118249366D02*
X176833333Y-118349366D01*
X176833333Y-118349366D02*
X176800000Y-118416033D01*
X176800000Y-118416033D02*
X176766667Y-118449366D01*
X176766667Y-118449366D02*
X176700000Y-118482700D01*
X176700000Y-118482700D02*
X176433333Y-118482700D01*
X175616666Y-111249366D02*
X175583333Y-111282700D01*
X175583333Y-111282700D02*
X175483333Y-111316033D01*
X175483333Y-111316033D02*
X175416666Y-111316033D01*
X175416666Y-111316033D02*
X175316666Y-111282700D01*
X175316666Y-111282700D02*
X175250000Y-111216033D01*
X175250000Y-111216033D02*
X175216666Y-111149366D01*
X175216666Y-111149366D02*
X175183333Y-111016033D01*
X175183333Y-111016033D02*
X175183333Y-110916033D01*
X175183333Y-110916033D02*
X175216666Y-110782700D01*
X175216666Y-110782700D02*
X175250000Y-110716033D01*
X175250000Y-110716033D02*
X175316666Y-110649366D01*
X175316666Y-110649366D02*
X175416666Y-110616033D01*
X175416666Y-110616033D02*
X175483333Y-110616033D01*
X175483333Y-110616033D02*
X175583333Y-110649366D01*
X175583333Y-110649366D02*
X175616666Y-110682700D01*
X175816666Y-110616033D02*
X176216666Y-110616033D01*
X176016666Y-111316033D02*
X176016666Y-110616033D01*
X176416666Y-111282700D02*
X176516666Y-111316033D01*
X176516666Y-111316033D02*
X176683333Y-111316033D01*
X176683333Y-111316033D02*
X176749999Y-111282700D01*
X176749999Y-111282700D02*
X176783333Y-111249366D01*
X176783333Y-111249366D02*
X176816666Y-111182700D01*
X176816666Y-111182700D02*
X176816666Y-111116033D01*
X176816666Y-111116033D02*
X176783333Y-111049366D01*
X176783333Y-111049366D02*
X176749999Y-111016033D01*
X176749999Y-111016033D02*
X176683333Y-110982700D01*
X176683333Y-110982700D02*
X176549999Y-110949366D01*
X176549999Y-110949366D02*
X176483333Y-110916033D01*
X176483333Y-110916033D02*
X176449999Y-110882700D01*
X176449999Y-110882700D02*
X176416666Y-110816033D01*
X176416666Y-110816033D02*
X176416666Y-110749366D01*
X176416666Y-110749366D02*
X176449999Y-110682700D01*
X176449999Y-110682700D02*
X176483333Y-110649366D01*
X176483333Y-110649366D02*
X176549999Y-110616033D01*
X176549999Y-110616033D02*
X176716666Y-110616033D01*
X176716666Y-110616033D02*
X176816666Y-110649366D01*
X175866667Y-108116033D02*
X175533333Y-108116033D01*
X175533333Y-108116033D02*
X175500000Y-108449366D01*
X175500000Y-108449366D02*
X175533333Y-108416033D01*
X175533333Y-108416033D02*
X175600000Y-108382700D01*
X175600000Y-108382700D02*
X175766667Y-108382700D01*
X175766667Y-108382700D02*
X175833333Y-108416033D01*
X175833333Y-108416033D02*
X175866667Y-108449366D01*
X175866667Y-108449366D02*
X175900000Y-108516033D01*
X175900000Y-108516033D02*
X175900000Y-108682700D01*
X175900000Y-108682700D02*
X175866667Y-108749366D01*
X175866667Y-108749366D02*
X175833333Y-108782700D01*
X175833333Y-108782700D02*
X175766667Y-108816033D01*
X175766667Y-108816033D02*
X175600000Y-108816033D01*
X175600000Y-108816033D02*
X175533333Y-108782700D01*
X175533333Y-108782700D02*
X175500000Y-108749366D01*
X176100000Y-108116033D02*
X176333334Y-108816033D01*
X176333334Y-108816033D02*
X176566667Y-108116033D01*
X175549999Y-116316033D02*
X175316666Y-115982700D01*
X175149999Y-116316033D02*
X175149999Y-115616033D01*
X175149999Y-115616033D02*
X175416666Y-115616033D01*
X175416666Y-115616033D02*
X175483333Y-115649366D01*
X175483333Y-115649366D02*
X175516666Y-115682700D01*
X175516666Y-115682700D02*
X175549999Y-115749366D01*
X175549999Y-115749366D02*
X175549999Y-115849366D01*
X175549999Y-115849366D02*
X175516666Y-115916033D01*
X175516666Y-115916033D02*
X175483333Y-115949366D01*
X175483333Y-115949366D02*
X175416666Y-115982700D01*
X175416666Y-115982700D02*
X175149999Y-115982700D01*
X175783333Y-115616033D02*
X176249999Y-116316033D01*
X176249999Y-115616033D02*
X175783333Y-116316033D01*
X176883333Y-116316033D02*
X176483333Y-116316033D01*
X176683333Y-116316033D02*
X176683333Y-115616033D01*
X176683333Y-115616033D02*
X176616666Y-115716033D01*
X176616666Y-115716033D02*
X176550000Y-115782700D01*
X176550000Y-115782700D02*
X176483333Y-115816033D01*
X175133333Y-113116033D02*
X175533333Y-113116033D01*
X175333333Y-113816033D02*
X175333333Y-113116033D01*
X175700000Y-113116033D02*
X176166666Y-113816033D01*
X176166666Y-113116033D02*
X175700000Y-113816033D01*
X176566667Y-113116033D02*
X176633333Y-113116033D01*
X176633333Y-113116033D02*
X176700000Y-113149366D01*
X176700000Y-113149366D02*
X176733333Y-113182700D01*
X176733333Y-113182700D02*
X176766667Y-113249366D01*
X176766667Y-113249366D02*
X176800000Y-113382700D01*
X176800000Y-113382700D02*
X176800000Y-113549366D01*
X176800000Y-113549366D02*
X176766667Y-113682700D01*
X176766667Y-113682700D02*
X176733333Y-113749366D01*
X176733333Y-113749366D02*
X176700000Y-113782700D01*
X176700000Y-113782700D02*
X176633333Y-113816033D01*
X176633333Y-113816033D02*
X176566667Y-113816033D01*
X176566667Y-113816033D02*
X176500000Y-113782700D01*
X176500000Y-113782700D02*
X176466667Y-113749366D01*
X176466667Y-113749366D02*
X176433333Y-113682700D01*
X176433333Y-113682700D02*
X176400000Y-113549366D01*
X176400000Y-113549366D02*
X176400000Y-113382700D01*
X176400000Y-113382700D02*
X176433333Y-113249366D01*
X176433333Y-113249366D02*
X176466667Y-113182700D01*
X176466667Y-113182700D02*
X176500000Y-113149366D01*
X176500000Y-113149366D02*
X176566667Y-113116033D01*
D11*
X170149653Y-118861828D02*
X170506796Y-119861828D01*
X170506796Y-119861828D02*
X170863939Y-118861828D01*
X172221082Y-119861828D02*
X171363939Y-119861828D01*
X171792510Y-119861828D02*
X171792510Y-118361828D01*
X171792510Y-118361828D02*
X171649653Y-118576114D01*
X171649653Y-118576114D02*
X171506796Y-118718971D01*
X171506796Y-118718971D02*
X171363939Y-118790400D01*
X172863938Y-119718971D02*
X172935367Y-119790400D01*
X172935367Y-119790400D02*
X172863938Y-119861828D01*
X172863938Y-119861828D02*
X172792510Y-119790400D01*
X172792510Y-119790400D02*
X172863938Y-119718971D01*
X172863938Y-119718971D02*
X172863938Y-119861828D01*
X173506796Y-118504685D02*
X173578224Y-118433257D01*
X173578224Y-118433257D02*
X173721082Y-118361828D01*
X173721082Y-118361828D02*
X174078224Y-118361828D01*
X174078224Y-118361828D02*
X174221082Y-118433257D01*
X174221082Y-118433257D02*
X174292510Y-118504685D01*
X174292510Y-118504685D02*
X174363939Y-118647542D01*
X174363939Y-118647542D02*
X174363939Y-118790400D01*
X174363939Y-118790400D02*
X174292510Y-119004685D01*
X174292510Y-119004685D02*
X173435367Y-119861828D01*
X173435367Y-119861828D02*
X174363939Y-119861828D01*
D10*
X175466667Y-105649366D02*
X175400000Y-105616033D01*
X175400000Y-105616033D02*
X175300000Y-105616033D01*
X175300000Y-105616033D02*
X175200000Y-105649366D01*
X175200000Y-105649366D02*
X175133334Y-105716033D01*
X175133334Y-105716033D02*
X175100000Y-105782700D01*
X175100000Y-105782700D02*
X175066667Y-105916033D01*
X175066667Y-105916033D02*
X175066667Y-106016033D01*
X175066667Y-106016033D02*
X175100000Y-106149366D01*
X175100000Y-106149366D02*
X175133334Y-106216033D01*
X175133334Y-106216033D02*
X175200000Y-106282700D01*
X175200000Y-106282700D02*
X175300000Y-106316033D01*
X175300000Y-106316033D02*
X175366667Y-106316033D01*
X175366667Y-106316033D02*
X175466667Y-106282700D01*
X175466667Y-106282700D02*
X175500000Y-106249366D01*
X175500000Y-106249366D02*
X175500000Y-106016033D01*
X175500000Y-106016033D02*
X175366667Y-106016033D01*
X175800000Y-106316033D02*
X175800000Y-105616033D01*
X175800000Y-105616033D02*
X176200000Y-106316033D01*
X176200000Y-106316033D02*
X176200000Y-105616033D01*
X176533333Y-106316033D02*
X176533333Y-105616033D01*
X176533333Y-105616033D02*
X176700000Y-105616033D01*
X176700000Y-105616033D02*
X176800000Y-105649366D01*
X176800000Y-105649366D02*
X176866667Y-105716033D01*
X176866667Y-105716033D02*
X176900000Y-105782700D01*
X176900000Y-105782700D02*
X176933333Y-105916033D01*
X176933333Y-105916033D02*
X176933333Y-106016033D01*
X176933333Y-106016033D02*
X176900000Y-106149366D01*
X176900000Y-106149366D02*
X176866667Y-106216033D01*
X176866667Y-106216033D02*
X176800000Y-106282700D01*
X176800000Y-106282700D02*
X176700000Y-106316033D01*
X176700000Y-106316033D02*
X176533333Y-106316033D01*
X168633333Y-118499366D02*
X168600000Y-118532700D01*
X168600000Y-118532700D02*
X168500000Y-118566033D01*
X168500000Y-118566033D02*
X168433333Y-118566033D01*
X168433333Y-118566033D02*
X168333333Y-118532700D01*
X168333333Y-118532700D02*
X168266667Y-118466033D01*
X168266667Y-118466033D02*
X168233333Y-118399366D01*
X168233333Y-118399366D02*
X168200000Y-118266033D01*
X168200000Y-118266033D02*
X168200000Y-118166033D01*
X168200000Y-118166033D02*
X168233333Y-118032700D01*
X168233333Y-118032700D02*
X168266667Y-117966033D01*
X168266667Y-117966033D02*
X168333333Y-117899366D01*
X168333333Y-117899366D02*
X168433333Y-117866033D01*
X168433333Y-117866033D02*
X168500000Y-117866033D01*
X168500000Y-117866033D02*
X168600000Y-117899366D01*
X168600000Y-117899366D02*
X168633333Y-117932700D01*
X168900000Y-117932700D02*
X168933333Y-117899366D01*
X168933333Y-117899366D02*
X169000000Y-117866033D01*
X169000000Y-117866033D02*
X169166667Y-117866033D01*
X169166667Y-117866033D02*
X169233333Y-117899366D01*
X169233333Y-117899366D02*
X169266667Y-117932700D01*
X169266667Y-117932700D02*
X169300000Y-117999366D01*
X169300000Y-117999366D02*
X169300000Y-118066033D01*
X169300000Y-118066033D02*
X169266667Y-118166033D01*
X169266667Y-118166033D02*
X168866667Y-118566033D01*
X168866667Y-118566033D02*
X169300000Y-118566033D01*
X164816033Y-108866666D02*
X164482700Y-109099999D01*
X164816033Y-109266666D02*
X164116033Y-109266666D01*
X164116033Y-109266666D02*
X164116033Y-108999999D01*
X164116033Y-108999999D02*
X164149366Y-108933333D01*
X164149366Y-108933333D02*
X164182700Y-108899999D01*
X164182700Y-108899999D02*
X164249366Y-108866666D01*
X164249366Y-108866666D02*
X164349366Y-108866666D01*
X164349366Y-108866666D02*
X164416033Y-108899999D01*
X164416033Y-108899999D02*
X164449366Y-108933333D01*
X164449366Y-108933333D02*
X164482700Y-108999999D01*
X164482700Y-108999999D02*
X164482700Y-109266666D01*
X164116033Y-108633333D02*
X164116033Y-108199999D01*
X164116033Y-108199999D02*
X164382700Y-108433333D01*
X164382700Y-108433333D02*
X164382700Y-108333333D01*
X164382700Y-108333333D02*
X164416033Y-108266666D01*
X164416033Y-108266666D02*
X164449366Y-108233333D01*
X164449366Y-108233333D02*
X164516033Y-108199999D01*
X164516033Y-108199999D02*
X164682700Y-108199999D01*
X164682700Y-108199999D02*
X164749366Y-108233333D01*
X164749366Y-108233333D02*
X164782700Y-108266666D01*
X164782700Y-108266666D02*
X164816033Y-108333333D01*
X164816033Y-108333333D02*
X164816033Y-108533333D01*
X164816033Y-108533333D02*
X164782700Y-108599999D01*
X164782700Y-108599999D02*
X164749366Y-108633333D01*
X167066033Y-108866666D02*
X166732700Y-109099999D01*
X167066033Y-109266666D02*
X166366033Y-109266666D01*
X166366033Y-109266666D02*
X166366033Y-108999999D01*
X166366033Y-108999999D02*
X166399366Y-108933333D01*
X166399366Y-108933333D02*
X166432700Y-108899999D01*
X166432700Y-108899999D02*
X166499366Y-108866666D01*
X166499366Y-108866666D02*
X166599366Y-108866666D01*
X166599366Y-108866666D02*
X166666033Y-108899999D01*
X166666033Y-108899999D02*
X166699366Y-108933333D01*
X166699366Y-108933333D02*
X166732700Y-108999999D01*
X166732700Y-108999999D02*
X166732700Y-109266666D01*
X166599366Y-108266666D02*
X167066033Y-108266666D01*
X166332700Y-108433333D02*
X166832700Y-108599999D01*
X166832700Y-108599999D02*
X166832700Y-108166666D01*
D12*
X154957580Y-111988095D02*
X154148057Y-111988095D01*
X154148057Y-111988095D02*
X154052819Y-112035714D01*
X154052819Y-112035714D02*
X154005200Y-112083333D01*
X154005200Y-112083333D02*
X153957580Y-112178571D01*
X153957580Y-112178571D02*
X153957580Y-112369047D01*
X153957580Y-112369047D02*
X154005200Y-112464285D01*
X154005200Y-112464285D02*
X154052819Y-112511904D01*
X154052819Y-112511904D02*
X154148057Y-112559523D01*
X154148057Y-112559523D02*
X154957580Y-112559523D01*
X154957580Y-112940476D02*
X154957580Y-113559523D01*
X154957580Y-113559523D02*
X154576628Y-113226190D01*
X154576628Y-113226190D02*
X154576628Y-113369047D01*
X154576628Y-113369047D02*
X154529009Y-113464285D01*
X154529009Y-113464285D02*
X154481390Y-113511904D01*
X154481390Y-113511904D02*
X154386152Y-113559523D01*
X154386152Y-113559523D02*
X154148057Y-113559523D01*
X154148057Y-113559523D02*
X154052819Y-113511904D01*
X154052819Y-113511904D02*
X154005200Y-113464285D01*
X154005200Y-113464285D02*
X153957580Y-113369047D01*
X153957580Y-113369047D02*
X153957580Y-113083333D01*
X153957580Y-113083333D02*
X154005200Y-112988095D01*
X154005200Y-112988095D02*
X154052819Y-112940476D01*
D10*
X163228333Y-113477366D02*
X163195000Y-113510700D01*
X163195000Y-113510700D02*
X163095000Y-113544033D01*
X163095000Y-113544033D02*
X163028333Y-113544033D01*
X163028333Y-113544033D02*
X162928333Y-113510700D01*
X162928333Y-113510700D02*
X162861667Y-113444033D01*
X162861667Y-113444033D02*
X162828333Y-113377366D01*
X162828333Y-113377366D02*
X162795000Y-113244033D01*
X162795000Y-113244033D02*
X162795000Y-113144033D01*
X162795000Y-113144033D02*
X162828333Y-113010700D01*
X162828333Y-113010700D02*
X162861667Y-112944033D01*
X162861667Y-112944033D02*
X162928333Y-112877366D01*
X162928333Y-112877366D02*
X163028333Y-112844033D01*
X163028333Y-112844033D02*
X163095000Y-112844033D01*
X163095000Y-112844033D02*
X163195000Y-112877366D01*
X163195000Y-112877366D02*
X163228333Y-112910700D01*
X163461667Y-112844033D02*
X163895000Y-112844033D01*
X163895000Y-112844033D02*
X163661667Y-113110700D01*
X163661667Y-113110700D02*
X163761667Y-113110700D01*
X163761667Y-113110700D02*
X163828333Y-113144033D01*
X163828333Y-113144033D02*
X163861667Y-113177366D01*
X163861667Y-113177366D02*
X163895000Y-113244033D01*
X163895000Y-113244033D02*
X163895000Y-113410700D01*
X163895000Y-113410700D02*
X163861667Y-113477366D01*
X163861667Y-113477366D02*
X163828333Y-113510700D01*
X163828333Y-113510700D02*
X163761667Y-113544033D01*
X163761667Y-113544033D02*
X163561667Y-113544033D01*
X163561667Y-113544033D02*
X163495000Y-113510700D01*
X163495000Y-113510700D02*
X163461667Y-113477366D01*
D13*
X163064833Y-118066553D02*
X162831500Y-117733220D01*
X162664833Y-118066553D02*
X162664833Y-117366553D01*
X162664833Y-117366553D02*
X162931500Y-117366553D01*
X162931500Y-117366553D02*
X162998167Y-117399886D01*
X162998167Y-117399886D02*
X163031500Y-117433220D01*
X163031500Y-117433220D02*
X163064833Y-117499886D01*
X163064833Y-117499886D02*
X163064833Y-117599886D01*
X163064833Y-117599886D02*
X163031500Y-117666553D01*
X163031500Y-117666553D02*
X162998167Y-117699886D01*
X162998167Y-117699886D02*
X162931500Y-117733220D01*
X162931500Y-117733220D02*
X162664833Y-117733220D01*
X163331500Y-117433220D02*
X163364833Y-117399886D01*
X163364833Y-117399886D02*
X163431500Y-117366553D01*
X163431500Y-117366553D02*
X163598167Y-117366553D01*
X163598167Y-117366553D02*
X163664833Y-117399886D01*
X163664833Y-117399886D02*
X163698167Y-117433220D01*
X163698167Y-117433220D02*
X163731500Y-117499886D01*
X163731500Y-117499886D02*
X163731500Y-117566553D01*
X163731500Y-117566553D02*
X163698167Y-117666553D01*
X163698167Y-117666553D02*
X163298167Y-118066553D01*
X163298167Y-118066553D02*
X163731500Y-118066553D01*
D10*
X168999366Y-108866666D02*
X169032700Y-108899999D01*
X169032700Y-108899999D02*
X169066033Y-108999999D01*
X169066033Y-108999999D02*
X169066033Y-109066666D01*
X169066033Y-109066666D02*
X169032700Y-109166666D01*
X169032700Y-109166666D02*
X168966033Y-109233333D01*
X168966033Y-109233333D02*
X168899366Y-109266666D01*
X168899366Y-109266666D02*
X168766033Y-109299999D01*
X168766033Y-109299999D02*
X168666033Y-109299999D01*
X168666033Y-109299999D02*
X168532700Y-109266666D01*
X168532700Y-109266666D02*
X168466033Y-109233333D01*
X168466033Y-109233333D02*
X168399366Y-109166666D01*
X168399366Y-109166666D02*
X168366033Y-109066666D01*
X168366033Y-109066666D02*
X168366033Y-108999999D01*
X168366033Y-108999999D02*
X168399366Y-108899999D01*
X168399366Y-108899999D02*
X168432700Y-108866666D01*
X168599366Y-108266666D02*
X169066033Y-108266666D01*
X168332700Y-108433333D02*
X168832700Y-108599999D01*
X168832700Y-108599999D02*
X168832700Y-108166666D01*
X162566033Y-109266666D02*
X161866033Y-109266666D01*
X161866033Y-109266666D02*
X161866033Y-109099999D01*
X161866033Y-109099999D02*
X161899366Y-108999999D01*
X161899366Y-108999999D02*
X161966033Y-108933333D01*
X161966033Y-108933333D02*
X162032700Y-108899999D01*
X162032700Y-108899999D02*
X162166033Y-108866666D01*
X162166033Y-108866666D02*
X162266033Y-108866666D01*
X162266033Y-108866666D02*
X162399366Y-108899999D01*
X162399366Y-108899999D02*
X162466033Y-108933333D01*
X162466033Y-108933333D02*
X162532700Y-108999999D01*
X162532700Y-108999999D02*
X162566033Y-109099999D01*
X162566033Y-109099999D02*
X162566033Y-109266666D01*
X162566033Y-108199999D02*
X162566033Y-108599999D01*
X162566033Y-108399999D02*
X161866033Y-108399999D01*
X161866033Y-108399999D02*
X161966033Y-108466666D01*
X161966033Y-108466666D02*
X162032700Y-108533333D01*
X162032700Y-108533333D02*
X162066033Y-108599999D01*
X170477095Y-108411819D02*
X170477095Y-109221342D01*
X170477095Y-109221342D02*
X170524714Y-109316580D01*
X170524714Y-109316580D02*
X170572333Y-109364200D01*
X170572333Y-109364200D02*
X170667571Y-109411819D01*
X170667571Y-109411819D02*
X170858047Y-109411819D01*
X170858047Y-109411819D02*
X170953285Y-109364200D01*
X170953285Y-109364200D02*
X171000904Y-109316580D01*
X171000904Y-109316580D02*
X171048523Y-109221342D01*
X171048523Y-109221342D02*
X171048523Y-108411819D01*
X171477095Y-108507057D02*
X171524714Y-108459438D01*
X171524714Y-108459438D02*
X171619952Y-108411819D01*
X171619952Y-108411819D02*
X171858047Y-108411819D01*
X171858047Y-108411819D02*
X171953285Y-108459438D01*
X171953285Y-108459438D02*
X172000904Y-108507057D01*
X172000904Y-108507057D02*
X172048523Y-108602295D01*
X172048523Y-108602295D02*
X172048523Y-108697533D01*
X172048523Y-108697533D02*
X172000904Y-108840390D01*
X172000904Y-108840390D02*
X171429476Y-109411819D01*
X171429476Y-109411819D02*
X172048523Y-109411819D01*
X168894319Y-114147904D02*
X169703842Y-114147904D01*
X169703842Y-114147904D02*
X169799080Y-114100285D01*
X169799080Y-114100285D02*
X169846700Y-114052666D01*
X169846700Y-114052666D02*
X169894319Y-113957428D01*
X169894319Y-113957428D02*
X169894319Y-113766952D01*
X169894319Y-113766952D02*
X169846700Y-113671714D01*
X169846700Y-113671714D02*
X169799080Y-113624095D01*
X169799080Y-113624095D02*
X169703842Y-113576476D01*
X169703842Y-113576476D02*
X168894319Y-113576476D01*
X169894319Y-112576476D02*
X169894319Y-113147904D01*
X169894319Y-112862190D02*
X168894319Y-112862190D01*
X168894319Y-112862190D02*
X169037176Y-112957428D01*
X169037176Y-112957428D02*
X169132414Y-113052666D01*
X169132414Y-113052666D02*
X169180033Y-113147904D01*
X163203333Y-111179366D02*
X163170000Y-111212700D01*
X163170000Y-111212700D02*
X163070000Y-111246033D01*
X163070000Y-111246033D02*
X163003333Y-111246033D01*
X163003333Y-111246033D02*
X162903333Y-111212700D01*
X162903333Y-111212700D02*
X162836667Y-111146033D01*
X162836667Y-111146033D02*
X162803333Y-111079366D01*
X162803333Y-111079366D02*
X162770000Y-110946033D01*
X162770000Y-110946033D02*
X162770000Y-110846033D01*
X162770000Y-110846033D02*
X162803333Y-110712700D01*
X162803333Y-110712700D02*
X162836667Y-110646033D01*
X162836667Y-110646033D02*
X162903333Y-110579366D01*
X162903333Y-110579366D02*
X163003333Y-110546033D01*
X163003333Y-110546033D02*
X163070000Y-110546033D01*
X163070000Y-110546033D02*
X163170000Y-110579366D01*
X163170000Y-110579366D02*
X163203333Y-110612700D01*
X163870000Y-111246033D02*
X163470000Y-111246033D01*
X163670000Y-111246033D02*
X163670000Y-110546033D01*
X163670000Y-110546033D02*
X163603333Y-110646033D01*
X163603333Y-110646033D02*
X163536667Y-110712700D01*
X163536667Y-110712700D02*
X163470000Y-110746033D01*
X163222333Y-115782033D02*
X162989000Y-115448700D01*
X162822333Y-115782033D02*
X162822333Y-115082033D01*
X162822333Y-115082033D02*
X163089000Y-115082033D01*
X163089000Y-115082033D02*
X163155667Y-115115366D01*
X163155667Y-115115366D02*
X163189000Y-115148700D01*
X163189000Y-115148700D02*
X163222333Y-115215366D01*
X163222333Y-115215366D02*
X163222333Y-115315366D01*
X163222333Y-115315366D02*
X163189000Y-115382033D01*
X163189000Y-115382033D02*
X163155667Y-115415366D01*
X163155667Y-115415366D02*
X163089000Y-115448700D01*
X163089000Y-115448700D02*
X162822333Y-115448700D01*
X163889000Y-115782033D02*
X163489000Y-115782033D01*
X163689000Y-115782033D02*
X163689000Y-115082033D01*
X163689000Y-115082033D02*
X163622333Y-115182033D01*
X163622333Y-115182033D02*
X163555667Y-115248700D01*
X163555667Y-115248700D02*
X163489000Y-115282033D01*
X160316033Y-109266666D02*
X159616033Y-109266666D01*
X159616033Y-109266666D02*
X159616033Y-109099999D01*
X159616033Y-109099999D02*
X159649366Y-108999999D01*
X159649366Y-108999999D02*
X159716033Y-108933333D01*
X159716033Y-108933333D02*
X159782700Y-108899999D01*
X159782700Y-108899999D02*
X159916033Y-108866666D01*
X159916033Y-108866666D02*
X160016033Y-108866666D01*
X160016033Y-108866666D02*
X160149366Y-108899999D01*
X160149366Y-108899999D02*
X160216033Y-108933333D01*
X160216033Y-108933333D02*
X160282700Y-108999999D01*
X160282700Y-108999999D02*
X160316033Y-109099999D01*
X160316033Y-109099999D02*
X160316033Y-109266666D01*
X159682700Y-108599999D02*
X159649366Y-108566666D01*
X159649366Y-108566666D02*
X159616033Y-108499999D01*
X159616033Y-108499999D02*
X159616033Y-108333333D01*
X159616033Y-108333333D02*
X159649366Y-108266666D01*
X159649366Y-108266666D02*
X159682700Y-108233333D01*
X159682700Y-108233333D02*
X159749366Y-108199999D01*
X159749366Y-108199999D02*
X159816033Y-108199999D01*
X159816033Y-108199999D02*
X159916033Y-108233333D01*
X159916033Y-108233333D02*
X160316033Y-108633333D01*
X160316033Y-108633333D02*
X160316033Y-108199999D01*
D14*
%TO.C,C2*%
X166511252Y-117515000D02*
X165988748Y-117515000D01*
X166511252Y-118985000D02*
X165988748Y-118985000D01*
%TO.C,R3*%
X163800000Y-106543064D02*
X163800000Y-106088936D01*
X165270000Y-106543064D02*
X165270000Y-106088936D01*
%TO.C,R4*%
X165873666Y-106543064D02*
X165873666Y-106088936D01*
X167343666Y-106543064D02*
X167343666Y-106088936D01*
D12*
%TO.C,U3*%
X149730000Y-106760000D02*
X149730000Y-118760000D01*
X149730000Y-118760000D02*
X157720000Y-118760000D01*
X157720000Y-106760000D02*
X149730000Y-106760000D01*
X157720000Y-118760000D02*
X157720000Y-106760000D01*
D14*
%TO.C,C3*%
X160488748Y-112515000D02*
X161011252Y-112515000D01*
X160488748Y-113985000D02*
X161011252Y-113985000D01*
%TO.C,R2*%
X160977064Y-117015000D02*
X160522936Y-117015000D01*
X160977064Y-118485000D02*
X160522936Y-118485000D01*
%TO.C,C4*%
X167956000Y-106577252D02*
X167956000Y-106054748D01*
X169426000Y-106577252D02*
X169426000Y-106054748D01*
%TO.C,D1*%
X161350000Y-105296000D02*
X161350000Y-107981000D01*
X161350000Y-107981000D02*
X163270000Y-107981000D01*
X163270000Y-107981000D02*
X163270000Y-105296000D01*
%TO.C,U2*%
X171846000Y-104857000D02*
X173666000Y-104857000D01*
X171846000Y-104907000D02*
X171846000Y-104857000D01*
X171846000Y-106807000D02*
X171846000Y-106027000D01*
X171846000Y-107977000D02*
X171846000Y-107927000D01*
X173666000Y-104857000D02*
X173666000Y-104907000D01*
X173666000Y-107927000D02*
X173666000Y-107977000D01*
X173666000Y-107977000D02*
X171846000Y-107977000D01*
X174446000Y-108257000D02*
X173966000Y-108257000D01*
X174206000Y-107927000D01*
X174446000Y-108257000D01*
G36*
X174446000Y-108257000D02*
G01*
X173966000Y-108257000D01*
X174206000Y-107927000D01*
X174446000Y-108257000D01*
G37*
%TO.C,U1*%
X164467000Y-111326000D02*
X164522000Y-111326000D01*
X164467000Y-115446000D02*
X164467000Y-111326000D01*
X164522000Y-115446000D02*
X164467000Y-115446000D01*
X174532000Y-111326000D02*
X174587000Y-111326000D01*
X174587000Y-111326000D02*
X174587000Y-115446000D01*
X174587000Y-115446000D02*
X174532000Y-115446000D01*
X164517000Y-115986000D02*
X164187000Y-116226000D01*
X164187000Y-115746000D01*
X164517000Y-115986000D01*
G36*
X164517000Y-115986000D02*
G01*
X164187000Y-116226000D01*
X164187000Y-115746000D01*
X164517000Y-115986000D01*
G37*
%TO.C,C1*%
X160488748Y-110265000D02*
X161011252Y-110265000D01*
X160488748Y-111735000D02*
X161011252Y-111735000D01*
%TO.C,R1*%
X160977064Y-114765000D02*
X160522936Y-114765000D01*
X160977064Y-116235000D02*
X160522936Y-116235000D01*
%TO.C,J2*%
X177722000Y-104573000D02*
X178992000Y-104573000D01*
X177722000Y-105843000D02*
X177722000Y-104573000D01*
X180069358Y-107953000D02*
X180382000Y-107953000D01*
X180069358Y-108813000D02*
X180382000Y-108813000D01*
X180069358Y-110493000D02*
X180382000Y-110493000D01*
X180069358Y-111353000D02*
X180382000Y-111353000D01*
X180069358Y-113033000D02*
X180382000Y-113033000D01*
X180069358Y-113893000D02*
X180382000Y-113893000D01*
X180069358Y-115573000D02*
X180382000Y-115573000D01*
X180069358Y-116433000D02*
X180382000Y-116433000D01*
X180069358Y-118113000D02*
X180382000Y-118113000D01*
X180069358Y-118973000D02*
X180382000Y-118973000D01*
X180152000Y-105413000D02*
X180382000Y-105413000D01*
X180152000Y-106273000D02*
X180382000Y-106273000D01*
X180382000Y-104463000D02*
X180382000Y-119923000D01*
X180382000Y-107113000D02*
X183142000Y-107113000D01*
X180382000Y-109653000D02*
X183142000Y-109653000D01*
X180382000Y-112193000D02*
X183142000Y-112193000D01*
X180382000Y-114733000D02*
X183142000Y-114733000D01*
X180382000Y-117273000D02*
X183142000Y-117273000D01*
X180382000Y-119923000D02*
X183142000Y-119923000D01*
X183142000Y-104463000D02*
X180382000Y-104463000D01*
X183142000Y-119923000D02*
X183142000Y-104463000D01*
%TO.C,D2*%
X159040000Y-105296000D02*
X159040000Y-107981000D01*
X159040000Y-107981000D02*
X160960000Y-107981000D01*
X160960000Y-107981000D02*
X160960000Y-105296000D01*
%TD*%
M02*
