%TF.GenerationSoftware,KiCad,Pcbnew,9.0.5*%
%TF.CreationDate,2025-12-25T11:21:18+05:30*%
%TF.ProjectId,Relay Module ( Single channel),52656c61-7920-44d6-9f64-756c65202820,v1.0*%
%TF.SameCoordinates,Original*%
%TF.FileFunction,Copper,L1,Top*%
%TF.FilePolarity,Positive*%
%FSLAX46Y46*%
G04 Gerber Fmt 4.6, Leading zero omitted, Abs format (unit mm)*
G04 Created by KiCad (PCBNEW 9.0.5) date 2025-12-25 11:21:18*
%MOMM*%
%LPD*%
G01*
G04 APERTURE LIST*
G04 Aperture macros list*
%AMRoundRect*
0 Rectangle with rounded corners*
0 $1 Rounding radius*
0 $2 $3 $4 $5 $6 $7 $8 $9 X,Y pos of 4 corners*
0 Add a 4 corners polygon primitive as box body*
4,1,4,$2,$3,$4,$5,$6,$7,$8,$9,$2,$3,0*
0 Add four circle primitives for the rounded corners*
1,1,$1+$1,$2,$3*
1,1,$1+$1,$4,$5*
1,1,$1+$1,$6,$7*
1,1,$1+$1,$8,$9*
0 Add four rect primitives between the rounded corners*
20,1,$1+$1,$2,$3,$4,$5,0*
20,1,$1+$1,$4,$5,$6,$7,0*
20,1,$1+$1,$6,$7,$8,$9,0*
20,1,$1+$1,$8,$9,$2,$3,0*%
G04 Aperture macros list end*
%TA.AperFunction,SMDPad,CuDef*%
%ADD10RoundRect,0.250000X0.375000X0.625000X-0.375000X0.625000X-0.375000X-0.625000X0.375000X-0.625000X0*%
%TD*%
%TA.AperFunction,ComponentPad*%
%ADD11RoundRect,0.250000X-1.050000X1.050000X-1.050000X-1.050000X1.050000X-1.050000X1.050000X1.050000X0*%
%TD*%
%TA.AperFunction,ComponentPad*%
%ADD12C,2.600000*%
%TD*%
%TA.AperFunction,ComponentPad*%
%ADD13RoundRect,0.250001X-1.149999X1.149999X-1.149999X-1.149999X1.149999X-1.149999X1.149999X1.149999X0*%
%TD*%
%TA.AperFunction,ComponentPad*%
%ADD14C,2.800000*%
%TD*%
%TA.AperFunction,ComponentPad*%
%ADD15R,1.700000X1.700000*%
%TD*%
%TA.AperFunction,ComponentPad*%
%ADD16C,1.700000*%
%TD*%
%TA.AperFunction,ComponentPad*%
%ADD17C,2.400000*%
%TD*%
%TA.AperFunction,ComponentPad*%
%ADD18RoundRect,0.250000X1.000000X-1.000000X1.000000X1.000000X-1.000000X1.000000X-1.000000X-1.000000X0*%
%TD*%
%TA.AperFunction,SMDPad,CuDef*%
%ADD19RoundRect,0.250000X-0.625000X0.312500X-0.625000X-0.312500X0.625000X-0.312500X0.625000X0.312500X0*%
%TD*%
%TA.AperFunction,SMDPad,CuDef*%
%ADD20RoundRect,0.250000X-0.312500X-0.625000X0.312500X-0.625000X0.312500X0.625000X-0.312500X0.625000X0*%
%TD*%
%TA.AperFunction,SMDPad,CuDef*%
%ADD21RoundRect,0.250000X-0.550000X0.250000X-0.550000X-0.250000X0.550000X-0.250000X0.550000X0.250000X0*%
%TD*%
%TA.AperFunction,SMDPad,CuDef*%
%ADD22RoundRect,0.250000X0.625000X-0.312500X0.625000X0.312500X-0.625000X0.312500X-0.625000X-0.312500X0*%
%TD*%
%TA.AperFunction,Conductor*%
%ADD23C,0.500000*%
%TD*%
%TA.AperFunction,Conductor*%
%ADD24C,1.000000*%
%TD*%
G04 APERTURE END LIST*
D10*
%TO.P,D2,1,K*%
%TO.N,Net-(D1-K)*%
X151243000Y-94505000D03*
%TO.P,D2,2,A*%
%TO.N,Net-(D2-A)*%
X148443000Y-94505000D03*
%TD*%
D11*
%TO.P,J2,1,Pin_1*%
%TO.N,NC*%
X186670500Y-95920000D03*
D12*
%TO.P,J2,2,Pin_2*%
%TO.N,COM*%
X186670500Y-101000000D03*
%TO.P,J2,3,Pin_3*%
%TO.N,NO*%
X186670500Y-106080000D03*
%TD*%
D13*
%TO.P,D1,1,K*%
%TO.N,Net-(D1-K)*%
X159343000Y-94905000D03*
D14*
%TO.P,D1,2,A*%
%TO.N,VCC*%
X159343000Y-107605000D03*
%TD*%
D15*
%TO.P,J1,1,Pin_1*%
%TO.N,VCC*%
X146593000Y-102215000D03*
D16*
%TO.P,J1,2,Pin_2*%
%TO.N,INPUT*%
X146593000Y-104755000D03*
%TO.P,J1,3,Pin_3*%
%TO.N,GND*%
X146593000Y-107295000D03*
%TD*%
D10*
%TO.P,D3,1,K*%
%TO.N,GND*%
X154243000Y-108005000D03*
%TO.P,D3,2,A*%
%TO.N,Net-(D3-A)*%
X151443000Y-108005000D03*
%TD*%
D17*
%TO.P,K1,11*%
%TO.N,COM*%
X163282000Y-101047500D03*
%TO.P,K1,12*%
%TO.N,NC*%
X177482000Y-95047500D03*
%TO.P,K1,14*%
%TO.N,NO*%
X177482000Y-107047500D03*
D18*
%TO.P,K1,A1*%
%TO.N,VCC*%
X165282000Y-107047500D03*
D17*
%TO.P,K1,A2*%
%TO.N,Net-(D1-K)*%
X165282000Y-95047500D03*
%TD*%
D19*
%TO.P,R2,1*%
%TO.N,VCC*%
X151843000Y-102792500D03*
%TO.P,R2,2*%
%TO.N,Net-(D3-A)*%
X151843000Y-105717500D03*
%TD*%
D20*
%TO.P,R3,1*%
%TO.N,INPUT*%
X148380500Y-97505000D03*
%TO.P,R3,2*%
%TO.N,Net-(Q1-B)*%
X151305500Y-97505000D03*
%TD*%
D21*
%TO.P,Q1,1,C*%
%TO.N,Net-(D1-K)*%
X153443000Y-94505000D03*
%TO.P,Q1,2,B*%
%TO.N,Net-(Q1-B)*%
X155743000Y-96255000D03*
%TO.P,Q1,3,E*%
%TO.N,GND*%
X153443000Y-98005000D03*
%TD*%
D22*
%TO.P,R1,1*%
%TO.N,VCC*%
X146093000Y-97217500D03*
%TO.P,R1,2*%
%TO.N,Net-(D2-A)*%
X146093000Y-94292500D03*
%TD*%
D23*
%TO.N,VCC*%
X158703000Y-107605000D02*
X159343000Y-107605000D01*
X159900500Y-107047500D02*
X159343000Y-107605000D01*
X156793000Y-110155000D02*
X159343000Y-107605000D01*
X146093000Y-101715000D02*
X146593000Y-102215000D01*
X144863000Y-108615000D02*
X146403000Y-110155000D01*
X151843000Y-102792500D02*
X153890500Y-102792500D01*
X146593000Y-102215000D02*
X144863000Y-103945000D01*
X144863000Y-103945000D02*
X144863000Y-108615000D01*
X165282000Y-107047500D02*
X159900500Y-107047500D01*
X146403000Y-110155000D02*
X156793000Y-110155000D01*
X153890500Y-102792500D02*
X158703000Y-107605000D01*
X146093000Y-97217500D02*
X146093000Y-101715000D01*
%TO.N,Net-(D1-K)*%
X159343000Y-94905000D02*
X153843000Y-94905000D01*
X153843000Y-94905000D02*
X153443000Y-94505000D01*
X159485500Y-95047500D02*
X159343000Y-94905000D01*
X151243000Y-94505000D02*
X153443000Y-94505000D01*
X165282000Y-95047500D02*
X159485500Y-95047500D01*
%TO.N,Net-(D2-A)*%
X146305500Y-94505000D02*
X146093000Y-94292500D01*
X148443000Y-94505000D02*
X146305500Y-94505000D01*
%TO.N,Net-(D3-A)*%
X151443000Y-106117500D02*
X151843000Y-105717500D01*
X151443000Y-108005000D02*
X151443000Y-106117500D01*
%TO.N,INPUT*%
X148380500Y-102967500D02*
X148380500Y-97505000D01*
X146593000Y-104755000D02*
X148380500Y-102967500D01*
D24*
%TO.N,NO*%
X177482000Y-107047500D02*
X185703000Y-107047500D01*
X185703000Y-107047500D02*
X186670500Y-106080000D01*
%TO.N,NC*%
X185798000Y-95047500D02*
X186670500Y-95920000D01*
X177482000Y-95047500D02*
X185798000Y-95047500D01*
%TO.N,COM*%
X186670500Y-101000000D02*
X163329500Y-101000000D01*
X163329500Y-101000000D02*
X163282000Y-101047500D01*
D23*
%TO.N,Net-(Q1-B)*%
X155743000Y-96255000D02*
X152555500Y-96255000D01*
X152555500Y-96255000D02*
X151305500Y-97505000D01*
%TD*%
%TA.AperFunction,Conductor*%
%TO.N,GND*%
G36*
X190003736Y-91500726D02*
G01*
X190293796Y-91518271D01*
X190308659Y-91520076D01*
X190590798Y-91571780D01*
X190605335Y-91575363D01*
X190879172Y-91660695D01*
X190893163Y-91666000D01*
X191154743Y-91783727D01*
X191167989Y-91790680D01*
X191413465Y-91939075D01*
X191425776Y-91947573D01*
X191651573Y-92124473D01*
X191662781Y-92134403D01*
X191865596Y-92337218D01*
X191875526Y-92348426D01*
X191995481Y-92501538D01*
X192052422Y-92574217D01*
X192060928Y-92586540D01*
X192209316Y-92832004D01*
X192216275Y-92845263D01*
X192333997Y-93106831D01*
X192339306Y-93120832D01*
X192424635Y-93394663D01*
X192428219Y-93409201D01*
X192479923Y-93691340D01*
X192481728Y-93706205D01*
X192499274Y-93996263D01*
X192499500Y-94003750D01*
X192499500Y-107996249D01*
X192499274Y-108003736D01*
X192481728Y-108293794D01*
X192479923Y-108308659D01*
X192428219Y-108590798D01*
X192424635Y-108605336D01*
X192339306Y-108879167D01*
X192333997Y-108893168D01*
X192216275Y-109154736D01*
X192209316Y-109167995D01*
X192060928Y-109413459D01*
X192052422Y-109425782D01*
X191875526Y-109651573D01*
X191865596Y-109662781D01*
X191662781Y-109865596D01*
X191651573Y-109875526D01*
X191425782Y-110052422D01*
X191413459Y-110060928D01*
X191167995Y-110209316D01*
X191154736Y-110216275D01*
X190893168Y-110333997D01*
X190879167Y-110339306D01*
X190605336Y-110424635D01*
X190590798Y-110428219D01*
X190308659Y-110479923D01*
X190293794Y-110481728D01*
X190003736Y-110499274D01*
X189996249Y-110499500D01*
X157809230Y-110499500D01*
X157742191Y-110479815D01*
X157696436Y-110427011D01*
X157686492Y-110357853D01*
X157715517Y-110294297D01*
X157721549Y-110287819D01*
X158580333Y-109429034D01*
X158641656Y-109395549D01*
X158711347Y-109400533D01*
X158715467Y-109402154D01*
X158720368Y-109404184D01*
X158730793Y-109408502D01*
X158971435Y-109472982D01*
X159218435Y-109505500D01*
X159218442Y-109505500D01*
X159467558Y-109505500D01*
X159467565Y-109505500D01*
X159714565Y-109472982D01*
X159955207Y-109408502D01*
X160185373Y-109313164D01*
X160401127Y-109188599D01*
X160598776Y-109036938D01*
X160774938Y-108860776D01*
X160926599Y-108663127D01*
X161051164Y-108447373D01*
X161146502Y-108217207D01*
X161210982Y-107976565D01*
X161220296Y-107905814D01*
X161248562Y-107841919D01*
X161306886Y-107803447D01*
X161343235Y-107798000D01*
X163407501Y-107798000D01*
X163474540Y-107817685D01*
X163520295Y-107870489D01*
X163531501Y-107922000D01*
X163531501Y-108097518D01*
X163542000Y-108200296D01*
X163542001Y-108200299D01*
X163597185Y-108366831D01*
X163597187Y-108366836D01*
X163632069Y-108423388D01*
X163689288Y-108516156D01*
X163813344Y-108640212D01*
X163962666Y-108732314D01*
X164129203Y-108787499D01*
X164231991Y-108798000D01*
X166332008Y-108797999D01*
X166434797Y-108787499D01*
X166601334Y-108732314D01*
X166750656Y-108640212D01*
X166874712Y-108516156D01*
X166966814Y-108366834D01*
X167021999Y-108200297D01*
X167032500Y-108097509D01*
X167032499Y-106936049D01*
X175781500Y-106936049D01*
X175781500Y-107158950D01*
X175781501Y-107158966D01*
X175810594Y-107379952D01*
X175810595Y-107379957D01*
X175810596Y-107379963D01*
X175837518Y-107480437D01*
X175868290Y-107595280D01*
X175868293Y-107595290D01*
X175953593Y-107801222D01*
X175953595Y-107801226D01*
X176065052Y-107994274D01*
X176065057Y-107994280D01*
X176065058Y-107994282D01*
X176200751Y-108171122D01*
X176200757Y-108171129D01*
X176358370Y-108328742D01*
X176358376Y-108328747D01*
X176535226Y-108464448D01*
X176728274Y-108575905D01*
X176934219Y-108661210D01*
X177149537Y-108718904D01*
X177370543Y-108748000D01*
X177370550Y-108748000D01*
X177593450Y-108748000D01*
X177593457Y-108748000D01*
X177814463Y-108718904D01*
X178029781Y-108661210D01*
X178235726Y-108575905D01*
X178428774Y-108464448D01*
X178605624Y-108328747D01*
X178763247Y-108171124D01*
X178820497Y-108096513D01*
X178876924Y-108055311D01*
X178918873Y-108048000D01*
X185801542Y-108048000D01*
X185832566Y-108041828D01*
X185898188Y-108028775D01*
X185994836Y-108009551D01*
X186048165Y-107987461D01*
X186176914Y-107934132D01*
X186266982Y-107873949D01*
X186333657Y-107853071D01*
X186352046Y-107854111D01*
X186540353Y-107878902D01*
X186552473Y-107880498D01*
X186552489Y-107880500D01*
X186552496Y-107880500D01*
X186788504Y-107880500D01*
X186788511Y-107880500D01*
X187022514Y-107849693D01*
X187250493Y-107788606D01*
X187468549Y-107698284D01*
X187672950Y-107580273D01*
X187860199Y-107436592D01*
X188027092Y-107269699D01*
X188170773Y-107082450D01*
X188288784Y-106878049D01*
X188379106Y-106659993D01*
X188440193Y-106432014D01*
X188471000Y-106198011D01*
X188471000Y-105961989D01*
X188440193Y-105727986D01*
X188379106Y-105500007D01*
X188288784Y-105281951D01*
X188288782Y-105281948D01*
X188288780Y-105281943D01*
X188246618Y-105208918D01*
X188170773Y-105077550D01*
X188062422Y-104936344D01*
X188027093Y-104890302D01*
X188027087Y-104890295D01*
X187860204Y-104723412D01*
X187860197Y-104723406D01*
X187672954Y-104579730D01*
X187672953Y-104579729D01*
X187672950Y-104579727D01*
X187591457Y-104532677D01*
X187468556Y-104461719D01*
X187468545Y-104461714D01*
X187250493Y-104371394D01*
X187022510Y-104310306D01*
X186788520Y-104279501D01*
X186788517Y-104279500D01*
X186788511Y-104279500D01*
X186552489Y-104279500D01*
X186552483Y-104279500D01*
X186552479Y-104279501D01*
X186318489Y-104310306D01*
X186090506Y-104371394D01*
X185872454Y-104461714D01*
X185872443Y-104461719D01*
X185668045Y-104579730D01*
X185480802Y-104723406D01*
X185480795Y-104723412D01*
X185313912Y-104890295D01*
X185313906Y-104890302D01*
X185170230Y-105077545D01*
X185052219Y-105281943D01*
X185052214Y-105281954D01*
X184961894Y-105500006D01*
X184900806Y-105727989D01*
X184873002Y-105939185D01*
X184844736Y-106003082D01*
X184786411Y-106041553D01*
X184750063Y-106047000D01*
X178918873Y-106047000D01*
X178851834Y-106027315D01*
X178820497Y-105998486D01*
X178763248Y-105923877D01*
X178763242Y-105923870D01*
X178605629Y-105766257D01*
X178605622Y-105766251D01*
X178428782Y-105630558D01*
X178428780Y-105630557D01*
X178428774Y-105630552D01*
X178235726Y-105519095D01*
X178235722Y-105519093D01*
X178029790Y-105433793D01*
X178029783Y-105433791D01*
X178029781Y-105433790D01*
X177814463Y-105376096D01*
X177814457Y-105376095D01*
X177814452Y-105376094D01*
X177593466Y-105347001D01*
X177593463Y-105347000D01*
X177593457Y-105347000D01*
X177370543Y-105347000D01*
X177370537Y-105347000D01*
X177370533Y-105347001D01*
X177149547Y-105376094D01*
X177149540Y-105376095D01*
X177149537Y-105376096D01*
X176934219Y-105433790D01*
X176934209Y-105433793D01*
X176728277Y-105519093D01*
X176728273Y-105519095D01*
X176535226Y-105630552D01*
X176535217Y-105630558D01*
X176358377Y-105766251D01*
X176358370Y-105766257D01*
X176200757Y-105923870D01*
X176200751Y-105923877D01*
X176065058Y-106100717D01*
X176065052Y-106100726D01*
X175953595Y-106293773D01*
X175953593Y-106293777D01*
X175868293Y-106499709D01*
X175868290Y-106499719D01*
X175810597Y-106715034D01*
X175810594Y-106715047D01*
X175781501Y-106936033D01*
X175781500Y-106936049D01*
X167032499Y-106936049D01*
X167032499Y-105997492D01*
X167021999Y-105894703D01*
X166966814Y-105728166D01*
X166874712Y-105578844D01*
X166750656Y-105454788D01*
X166601334Y-105362686D01*
X166434797Y-105307501D01*
X166434795Y-105307500D01*
X166332010Y-105297000D01*
X164231998Y-105297000D01*
X164231981Y-105297001D01*
X164129203Y-105307500D01*
X164129200Y-105307501D01*
X163962668Y-105362685D01*
X163962663Y-105362687D01*
X163813342Y-105454789D01*
X163689289Y-105578842D01*
X163597187Y-105728163D01*
X163597185Y-105728168D01*
X163578317Y-105785109D01*
X163542001Y-105894703D01*
X163542001Y-105894704D01*
X163542000Y-105894704D01*
X163531500Y-105997483D01*
X163531500Y-106173000D01*
X163511815Y-106240039D01*
X163459011Y-106285794D01*
X163407500Y-106297000D01*
X160774076Y-106297000D01*
X160707037Y-106277315D01*
X160686399Y-106260685D01*
X160598776Y-106173062D01*
X160598775Y-106173061D01*
X160598773Y-106173059D01*
X160401126Y-106021400D01*
X160185376Y-105896837D01*
X160185361Y-105896830D01*
X159955207Y-105801498D01*
X159714561Y-105737017D01*
X159467575Y-105704501D01*
X159467570Y-105704500D01*
X159467565Y-105704500D01*
X159218435Y-105704500D01*
X159218429Y-105704500D01*
X159218424Y-105704501D01*
X158971438Y-105737017D01*
X158730792Y-105801498D01*
X158500638Y-105896830D01*
X158500616Y-105896841D01*
X158301273Y-106011931D01*
X158233373Y-106028404D01*
X158167346Y-106005551D01*
X158151593Y-105992225D01*
X154368921Y-102209552D01*
X154368914Y-102209546D01*
X154295229Y-102160312D01*
X154295229Y-102160313D01*
X154245991Y-102127413D01*
X154109417Y-102070843D01*
X154109407Y-102070840D01*
X153964420Y-102042000D01*
X153964418Y-102042000D01*
X153142730Y-102042000D01*
X153075691Y-102022315D01*
X153055049Y-102005681D01*
X152936657Y-101887289D01*
X152936656Y-101887288D01*
X152843888Y-101830069D01*
X152787336Y-101795187D01*
X152787331Y-101795185D01*
X152785862Y-101794698D01*
X152620797Y-101740001D01*
X152620795Y-101740000D01*
X152518010Y-101729500D01*
X151167998Y-101729500D01*
X151167981Y-101729501D01*
X151065203Y-101740000D01*
X151065200Y-101740001D01*
X150898668Y-101795185D01*
X150898663Y-101795187D01*
X150749342Y-101887289D01*
X150625289Y-102011342D01*
X150533187Y-102160663D01*
X150533185Y-102160668D01*
X150529719Y-102171129D01*
X150478001Y-102327203D01*
X150478001Y-102327204D01*
X150478000Y-102327204D01*
X150467500Y-102429983D01*
X150467500Y-103155001D01*
X150467501Y-103155019D01*
X150478000Y-103257796D01*
X150478001Y-103257799D01*
X150533185Y-103424331D01*
X150533187Y-103424336D01*
X150546498Y-103445916D01*
X150625288Y-103573656D01*
X150749344Y-103697712D01*
X150898666Y-103789814D01*
X151065203Y-103844999D01*
X151167991Y-103855500D01*
X152518008Y-103855499D01*
X152620797Y-103844999D01*
X152787334Y-103789814D01*
X152936656Y-103697712D01*
X153055049Y-103579319D01*
X153116372Y-103545834D01*
X153142730Y-103543000D01*
X153528270Y-103543000D01*
X153595309Y-103562685D01*
X153615951Y-103579319D01*
X157407935Y-107371303D01*
X157441420Y-107432626D01*
X157443194Y-107475165D01*
X157442500Y-107480437D01*
X157442500Y-107729558D01*
X157442501Y-107729575D01*
X157469431Y-107934132D01*
X157475018Y-107976565D01*
X157534966Y-108200295D01*
X157539499Y-108217209D01*
X157539503Y-108217222D01*
X157545845Y-108232532D01*
X157553314Y-108302001D01*
X157522038Y-108364480D01*
X157518965Y-108367665D01*
X156518451Y-109368181D01*
X156457128Y-109401666D01*
X156430770Y-109404500D01*
X152404230Y-109404500D01*
X152337191Y-109384815D01*
X152291436Y-109332011D01*
X152281492Y-109262853D01*
X152310517Y-109199297D01*
X152316549Y-109192819D01*
X152354632Y-109154736D01*
X152410712Y-109098656D01*
X152502814Y-108949334D01*
X152557999Y-108782797D01*
X152568500Y-108680009D01*
X152568499Y-107329992D01*
X152557999Y-107227203D01*
X152502814Y-107060666D01*
X152444989Y-106966916D01*
X152426550Y-106899526D01*
X152447473Y-106832863D01*
X152501115Y-106788093D01*
X152537927Y-106778464D01*
X152620797Y-106769999D01*
X152787334Y-106714814D01*
X152936656Y-106622712D01*
X153060712Y-106498656D01*
X153152814Y-106349334D01*
X153207999Y-106182797D01*
X153218500Y-106080009D01*
X153218499Y-105354992D01*
X153207999Y-105252203D01*
X153152814Y-105085666D01*
X153060712Y-104936344D01*
X152936656Y-104812288D01*
X152843888Y-104755069D01*
X152787336Y-104720187D01*
X152787331Y-104720185D01*
X152785862Y-104719698D01*
X152620797Y-104665001D01*
X152620795Y-104665000D01*
X152518010Y-104654500D01*
X151167998Y-104654500D01*
X151167981Y-104654501D01*
X151065203Y-104665000D01*
X151065200Y-104665001D01*
X150898668Y-104720185D01*
X150898663Y-104720187D01*
X150749342Y-104812289D01*
X150625289Y-104936342D01*
X150533187Y-105085663D01*
X150533186Y-105085666D01*
X150478001Y-105252203D01*
X150478001Y-105252204D01*
X150478000Y-105252204D01*
X150467500Y-105354983D01*
X150467500Y-106080001D01*
X150467501Y-106080019D01*
X150478000Y-106182796D01*
X150478001Y-106182799D01*
X150533185Y-106349331D01*
X150533187Y-106349336D01*
X150625289Y-106498657D01*
X150656181Y-106529549D01*
X150670884Y-106556476D01*
X150687477Y-106582295D01*
X150688368Y-106588495D01*
X150689666Y-106590872D01*
X150692500Y-106617230D01*
X150692500Y-106660621D01*
X150672815Y-106727660D01*
X150633599Y-106766158D01*
X150599346Y-106787285D01*
X150475289Y-106911342D01*
X150383187Y-107060663D01*
X150383186Y-107060666D01*
X150328001Y-107227203D01*
X150328001Y-107227204D01*
X150328000Y-107227204D01*
X150317500Y-107329983D01*
X150317500Y-108680001D01*
X150317501Y-108680018D01*
X150328000Y-108782796D01*
X150328001Y-108782799D01*
X150353842Y-108860781D01*
X150383186Y-108949334D01*
X150426604Y-109019727D01*
X150475289Y-109098657D01*
X150569451Y-109192819D01*
X150602936Y-109254142D01*
X150597952Y-109323834D01*
X150556080Y-109379767D01*
X150490616Y-109404184D01*
X150481770Y-109404500D01*
X146765230Y-109404500D01*
X146698191Y-109384815D01*
X146677549Y-109368181D01*
X145649819Y-108340451D01*
X145616334Y-108279128D01*
X145613500Y-108252770D01*
X145613500Y-105956025D01*
X145633185Y-105888986D01*
X145685989Y-105843231D01*
X145755147Y-105833287D01*
X145810385Y-105855707D01*
X145885184Y-105910051D01*
X146074588Y-106006557D01*
X146276757Y-106072246D01*
X146486713Y-106105500D01*
X146486714Y-106105500D01*
X146699286Y-106105500D01*
X146699287Y-106105500D01*
X146909243Y-106072246D01*
X147111412Y-106006557D01*
X147300816Y-105910051D01*
X147375615Y-105855707D01*
X147472786Y-105785109D01*
X147472788Y-105785106D01*
X147472792Y-105785104D01*
X147623104Y-105634792D01*
X147623106Y-105634788D01*
X147623109Y-105634786D01*
X147748048Y-105462820D01*
X147748047Y-105462820D01*
X147748051Y-105462816D01*
X147844557Y-105273412D01*
X147910246Y-105071243D01*
X147943500Y-104861287D01*
X147943500Y-104648713D01*
X147928382Y-104553268D01*
X147937336Y-104483979D01*
X147963171Y-104446195D01*
X148963452Y-103445916D01*
X149019489Y-103362049D01*
X149045584Y-103322995D01*
X149090110Y-103215500D01*
X149102159Y-103186412D01*
X149131000Y-103041417D01*
X149131000Y-102893582D01*
X149131000Y-100936049D01*
X161581500Y-100936049D01*
X161581500Y-101158950D01*
X161581501Y-101158966D01*
X161610594Y-101379952D01*
X161610595Y-101379957D01*
X161610596Y-101379963D01*
X161610597Y-101379965D01*
X161668290Y-101595280D01*
X161668293Y-101595290D01*
X161752277Y-101798045D01*
X161753595Y-101801226D01*
X161865052Y-101994274D01*
X161865057Y-101994280D01*
X161865058Y-101994282D01*
X162000751Y-102171122D01*
X162000757Y-102171129D01*
X162158370Y-102328742D01*
X162158377Y-102328748D01*
X162194666Y-102356593D01*
X162335226Y-102464448D01*
X162528274Y-102575905D01*
X162734219Y-102661210D01*
X162949537Y-102718904D01*
X163170543Y-102748000D01*
X163170550Y-102748000D01*
X163393450Y-102748000D01*
X163393457Y-102748000D01*
X163614463Y-102718904D01*
X163829781Y-102661210D01*
X164035726Y-102575905D01*
X164228774Y-102464448D01*
X164405624Y-102328747D01*
X164563247Y-102171124D01*
X164656945Y-102049013D01*
X164713373Y-102007811D01*
X164755321Y-102000500D01*
X185107581Y-102000500D01*
X185174620Y-102020185D01*
X185205956Y-102049013D01*
X185222706Y-102070842D01*
X185313906Y-102189697D01*
X185313912Y-102189704D01*
X185480795Y-102356587D01*
X185480801Y-102356592D01*
X185668050Y-102500273D01*
X185737639Y-102540450D01*
X185872443Y-102618280D01*
X185872448Y-102618282D01*
X185872451Y-102618284D01*
X186090507Y-102708606D01*
X186318486Y-102769693D01*
X186552489Y-102800500D01*
X186552496Y-102800500D01*
X186788504Y-102800500D01*
X186788511Y-102800500D01*
X187022514Y-102769693D01*
X187250493Y-102708606D01*
X187468549Y-102618284D01*
X187672950Y-102500273D01*
X187860199Y-102356592D01*
X188027092Y-102189699D01*
X188170773Y-102002450D01*
X188288784Y-101798049D01*
X188379106Y-101579993D01*
X188440193Y-101352014D01*
X188471000Y-101118011D01*
X188471000Y-100881989D01*
X188440193Y-100647986D01*
X188379106Y-100420007D01*
X188288784Y-100201951D01*
X188288782Y-100201948D01*
X188288780Y-100201943D01*
X188246618Y-100128918D01*
X188170773Y-99997550D01*
X188027092Y-99810301D01*
X188027087Y-99810295D01*
X187860204Y-99643412D01*
X187860197Y-99643406D01*
X187672954Y-99499730D01*
X187672953Y-99499729D01*
X187672950Y-99499727D01*
X187558744Y-99433790D01*
X187468556Y-99381719D01*
X187468545Y-99381714D01*
X187250493Y-99291394D01*
X187022510Y-99230306D01*
X186788520Y-99199501D01*
X186788517Y-99199500D01*
X186788511Y-99199500D01*
X186552489Y-99199500D01*
X186552483Y-99199500D01*
X186552479Y-99199501D01*
X186318489Y-99230306D01*
X186090506Y-99291394D01*
X185872454Y-99381714D01*
X185872443Y-99381719D01*
X185668045Y-99499730D01*
X185480802Y-99643406D01*
X185480795Y-99643412D01*
X185313912Y-99810295D01*
X185313906Y-99810302D01*
X185205957Y-99950986D01*
X185149529Y-99992189D01*
X185107581Y-99999500D01*
X164682425Y-99999500D01*
X164615386Y-99979815D01*
X164584048Y-99950985D01*
X164563246Y-99923874D01*
X164405629Y-99766257D01*
X164405622Y-99766251D01*
X164228782Y-99630558D01*
X164228780Y-99630557D01*
X164228774Y-99630552D01*
X164035726Y-99519095D01*
X164035722Y-99519093D01*
X163829790Y-99433793D01*
X163829783Y-99433791D01*
X163829781Y-99433790D01*
X163614463Y-99376096D01*
X163614457Y-99376095D01*
X163614452Y-99376094D01*
X163393466Y-99347001D01*
X163393463Y-99347000D01*
X163393457Y-99347000D01*
X163170543Y-99347000D01*
X163170537Y-99347000D01*
X163170533Y-99347001D01*
X162949547Y-99376094D01*
X162949540Y-99376095D01*
X162949537Y-99376096D01*
X162928563Y-99381716D01*
X162734219Y-99433790D01*
X162734209Y-99433793D01*
X162528277Y-99519093D01*
X162528273Y-99519095D01*
X162335226Y-99630552D01*
X162335217Y-99630558D01*
X162158377Y-99766251D01*
X162158370Y-99766257D01*
X162000757Y-99923870D01*
X162000751Y-99923877D01*
X161865058Y-100100717D01*
X161865052Y-100100726D01*
X161753595Y-100293773D01*
X161753593Y-100293777D01*
X161668293Y-100499709D01*
X161668290Y-100499719D01*
X161628562Y-100647989D01*
X161610597Y-100715034D01*
X161610594Y-100715047D01*
X161581501Y-100936033D01*
X161581500Y-100936049D01*
X149131000Y-100936049D01*
X149131000Y-98804730D01*
X149150685Y-98737691D01*
X149167319Y-98717049D01*
X149285712Y-98598656D01*
X149377814Y-98449334D01*
X149432999Y-98282797D01*
X149443500Y-98180009D01*
X149443499Y-96829992D01*
X149439924Y-96794999D01*
X149432999Y-96727203D01*
X149432998Y-96727200D01*
X149411131Y-96661210D01*
X149377814Y-96560666D01*
X149285712Y-96411344D01*
X149161656Y-96287288D01*
X149012334Y-96195186D01*
X148845797Y-96140001D01*
X148845795Y-96140000D01*
X148743010Y-96129500D01*
X148017998Y-96129500D01*
X148017980Y-96129501D01*
X147915203Y-96140000D01*
X147915200Y-96140001D01*
X147748668Y-96195185D01*
X147748663Y-96195187D01*
X147599342Y-96287289D01*
X147470181Y-96416451D01*
X147468429Y-96414699D01*
X147420935Y-96448305D01*
X147351135Y-96451419D01*
X147293052Y-96418684D01*
X147186657Y-96312289D01*
X147186656Y-96312288D01*
X147037334Y-96220186D01*
X146870797Y-96165001D01*
X146870795Y-96165000D01*
X146768010Y-96154500D01*
X145417998Y-96154500D01*
X145417981Y-96154501D01*
X145315203Y-96165000D01*
X145315200Y-96165001D01*
X145148668Y-96220185D01*
X145148663Y-96220187D01*
X144999342Y-96312289D01*
X144875289Y-96436342D01*
X144783187Y-96585663D01*
X144783186Y-96585666D01*
X144728001Y-96752203D01*
X144728001Y-96752204D01*
X144728000Y-96752204D01*
X144717500Y-96854983D01*
X144717500Y-97580001D01*
X144717501Y-97580019D01*
X144728000Y-97682796D01*
X144728001Y-97682799D01*
X144783185Y-97849331D01*
X144783186Y-97849334D01*
X144875288Y-97998656D01*
X144999344Y-98122712D01*
X145148666Y-98214814D01*
X145257505Y-98250879D01*
X145314949Y-98290652D01*
X145341772Y-98355167D01*
X145342500Y-98368585D01*
X145342500Y-101023561D01*
X145322815Y-101090600D01*
X145317767Y-101097872D01*
X145299204Y-101122668D01*
X145299202Y-101122671D01*
X145248908Y-101257517D01*
X145242501Y-101317116D01*
X145242500Y-101317135D01*
X145242500Y-102452769D01*
X145222815Y-102519808D01*
X145206181Y-102540450D01*
X144280045Y-103466586D01*
X144257326Y-103500590D01*
X144248261Y-103514158D01*
X144227096Y-103545834D01*
X144197914Y-103589507D01*
X144141343Y-103726082D01*
X144141340Y-103726092D01*
X144112500Y-103871079D01*
X144112500Y-108688920D01*
X144141340Y-108833907D01*
X144141343Y-108833917D01*
X144197914Y-108970492D01*
X144230812Y-109019727D01*
X144230813Y-109019730D01*
X144280046Y-109093414D01*
X144280052Y-109093421D01*
X145353582Y-110166950D01*
X145356269Y-110171872D01*
X145360939Y-110174983D01*
X145372832Y-110202204D01*
X145387067Y-110228273D01*
X145386666Y-110233868D01*
X145388913Y-110239009D01*
X145384201Y-110268334D01*
X145382083Y-110297965D01*
X145378720Y-110302456D01*
X145377831Y-110307994D01*
X145358011Y-110330119D01*
X145340211Y-110353898D01*
X145334956Y-110355857D01*
X145331213Y-110360037D01*
X145302575Y-110367935D01*
X145274747Y-110378315D01*
X145267842Y-110377515D01*
X145263858Y-110378614D01*
X145229011Y-110373016D01*
X145120832Y-110339306D01*
X145106831Y-110333997D01*
X144845263Y-110216275D01*
X144832004Y-110209316D01*
X144586540Y-110060928D01*
X144574217Y-110052422D01*
X144348426Y-109875526D01*
X144337218Y-109865596D01*
X144134403Y-109662781D01*
X144124473Y-109651573D01*
X144010031Y-109505498D01*
X143947573Y-109425776D01*
X143939075Y-109413465D01*
X143790680Y-109167989D01*
X143788165Y-109163198D01*
X143787640Y-109162667D01*
X143787473Y-109161879D01*
X143783727Y-109154743D01*
X143666000Y-108893163D01*
X143660693Y-108879167D01*
X143646591Y-108833913D01*
X143575363Y-108605335D01*
X143571780Y-108590798D01*
X143557752Y-108514250D01*
X143520075Y-108308657D01*
X143518271Y-108293794D01*
X143512615Y-108200295D01*
X143500726Y-108003736D01*
X143500500Y-107996249D01*
X143500500Y-94003750D01*
X143500726Y-93996264D01*
X143504391Y-93935666D01*
X143504735Y-93929983D01*
X144717500Y-93929983D01*
X144717500Y-94655001D01*
X144717501Y-94655019D01*
X144728000Y-94757796D01*
X144728001Y-94757799D01*
X144748610Y-94819992D01*
X144783186Y-94924334D01*
X144875288Y-95073656D01*
X144999344Y-95197712D01*
X145148666Y-95289814D01*
X145315203Y-95344999D01*
X145417991Y-95355500D01*
X146768008Y-95355499D01*
X146870797Y-95344999D01*
X147037334Y-95289814D01*
X147063036Y-95273960D01*
X147079594Y-95269264D01*
X147093197Y-95260523D01*
X147128132Y-95255500D01*
X147229415Y-95255500D01*
X147296454Y-95275185D01*
X147342209Y-95327989D01*
X147347118Y-95340489D01*
X147383186Y-95449334D01*
X147475288Y-95598656D01*
X147599344Y-95722712D01*
X147748666Y-95814814D01*
X147915203Y-95869999D01*
X148017991Y-95880500D01*
X148868008Y-95880499D01*
X148868016Y-95880498D01*
X148868019Y-95880498D01*
X148924302Y-95874748D01*
X148970797Y-95869999D01*
X149137334Y-95814814D01*
X149286656Y-95722712D01*
X149410712Y-95598656D01*
X149502814Y-95449334D01*
X149557999Y-95282797D01*
X149568500Y-95180009D01*
X149568499Y-93829992D01*
X149568498Y-93829983D01*
X150117500Y-93829983D01*
X150117500Y-95180001D01*
X150117501Y-95180018D01*
X150128000Y-95282796D01*
X150128001Y-95282799D01*
X150160199Y-95379965D01*
X150183186Y-95449334D01*
X150275288Y-95598656D01*
X150399344Y-95722712D01*
X150548666Y-95814814D01*
X150715203Y-95869999D01*
X150817991Y-95880500D01*
X151569269Y-95880499D01*
X151590515Y-95886737D01*
X151612603Y-95888317D01*
X151623385Y-95896388D01*
X151636308Y-95900183D01*
X151650809Y-95916919D01*
X151668536Y-95930189D01*
X151673242Y-95942807D01*
X151682063Y-95952987D01*
X151685214Y-95974905D01*
X151692953Y-95995653D01*
X151690090Y-96008813D01*
X151692007Y-96022146D01*
X151682807Y-96042289D01*
X151678101Y-96063926D01*
X151664832Y-96081651D01*
X151662982Y-96085702D01*
X151656950Y-96092180D01*
X151655949Y-96093181D01*
X151594626Y-96126666D01*
X151568268Y-96129500D01*
X150942998Y-96129500D01*
X150942980Y-96129501D01*
X150840203Y-96140000D01*
X150840200Y-96140001D01*
X150673668Y-96195185D01*
X150673663Y-96195187D01*
X150524342Y-96287289D01*
X150400289Y-96411342D01*
X150308187Y-96560663D01*
X150308185Y-96560668D01*
X150303136Y-96575905D01*
X150253001Y-96727203D01*
X150253001Y-96727204D01*
X150253000Y-96727204D01*
X150242500Y-96829983D01*
X150242500Y-98180001D01*
X150242501Y-98180018D01*
X150253000Y-98282796D01*
X150253001Y-98282799D01*
X150276982Y-98355167D01*
X150308186Y-98449334D01*
X150400288Y-98598656D01*
X150524344Y-98722712D01*
X150673666Y-98814814D01*
X150840203Y-98869999D01*
X150942991Y-98880500D01*
X151668008Y-98880499D01*
X151668016Y-98880498D01*
X151668019Y-98880498D01*
X151724302Y-98874748D01*
X151770797Y-98869999D01*
X151937334Y-98814814D01*
X152086656Y-98722712D01*
X152210712Y-98598656D01*
X152302814Y-98449334D01*
X152357999Y-98282797D01*
X152368500Y-98180009D01*
X152368499Y-97554728D01*
X152388183Y-97487690D01*
X152404813Y-97467053D01*
X152830049Y-97041819D01*
X152891372Y-97008334D01*
X152917730Y-97005500D01*
X154580770Y-97005500D01*
X154647809Y-97025185D01*
X154668451Y-97041819D01*
X154724344Y-97097712D01*
X154873666Y-97189814D01*
X155040203Y-97244999D01*
X155142991Y-97255500D01*
X156343008Y-97255499D01*
X156445797Y-97244999D01*
X156612334Y-97189814D01*
X156761656Y-97097712D01*
X156885712Y-96973656D01*
X156977814Y-96824334D01*
X157032999Y-96657797D01*
X157043500Y-96555009D01*
X157043499Y-95954992D01*
X157040965Y-95930189D01*
X157032999Y-95852203D01*
X157032997Y-95852195D01*
X157021833Y-95818505D01*
X157020853Y-95790044D01*
X157016800Y-95761853D01*
X157019667Y-95755574D01*
X157019430Y-95748677D01*
X157033993Y-95724205D01*
X157045825Y-95698297D01*
X157051631Y-95694565D01*
X157055161Y-95688635D01*
X157080641Y-95675922D01*
X157104603Y-95660523D01*
X157114300Y-95659128D01*
X157117681Y-95657442D01*
X157139538Y-95655500D01*
X157318500Y-95655500D01*
X157385539Y-95675185D01*
X157431294Y-95727989D01*
X157442500Y-95779500D01*
X157442500Y-96105015D01*
X157453000Y-96207795D01*
X157453001Y-96207797D01*
X157457107Y-96220187D01*
X157508186Y-96374335D01*
X157508187Y-96374337D01*
X157600286Y-96523651D01*
X157600289Y-96523655D01*
X157724344Y-96647710D01*
X157724348Y-96647713D01*
X157873662Y-96739812D01*
X157873664Y-96739813D01*
X157873666Y-96739814D01*
X158040203Y-96794999D01*
X158142992Y-96805500D01*
X158142997Y-96805500D01*
X160543003Y-96805500D01*
X160543008Y-96805500D01*
X160645797Y-96794999D01*
X160812334Y-96739814D01*
X160961655Y-96647711D01*
X161085711Y-96523655D01*
X161177814Y-96374334D01*
X161232999Y-96207797D01*
X161243500Y-96105008D01*
X161243500Y-95922000D01*
X161263185Y-95854961D01*
X161315989Y-95809206D01*
X161367500Y-95798000D01*
X163680141Y-95798000D01*
X163747180Y-95817685D01*
X163787527Y-95859998D01*
X163865052Y-95994274D01*
X163865057Y-95994280D01*
X163865058Y-95994282D01*
X164000751Y-96171122D01*
X164000757Y-96171129D01*
X164158370Y-96328742D01*
X164158377Y-96328748D01*
X164266019Y-96411344D01*
X164335226Y-96464448D01*
X164528274Y-96575905D01*
X164734219Y-96661210D01*
X164949537Y-96718904D01*
X165170543Y-96748000D01*
X165170550Y-96748000D01*
X165393450Y-96748000D01*
X165393457Y-96748000D01*
X165614463Y-96718904D01*
X165829781Y-96661210D01*
X166035726Y-96575905D01*
X166228774Y-96464448D01*
X166405624Y-96328747D01*
X166563247Y-96171124D01*
X166698948Y-95994274D01*
X166810405Y-95801226D01*
X166895710Y-95595281D01*
X166953404Y-95379963D01*
X166982500Y-95158957D01*
X166982500Y-94936049D01*
X175781500Y-94936049D01*
X175781500Y-95158950D01*
X175781501Y-95158966D01*
X175810594Y-95379952D01*
X175810595Y-95379957D01*
X175810596Y-95379963D01*
X175868290Y-95595280D01*
X175868293Y-95595290D01*
X175953593Y-95801222D01*
X175953595Y-95801226D01*
X176065052Y-95994274D01*
X176065057Y-95994280D01*
X176065058Y-95994282D01*
X176200751Y-96171122D01*
X176200757Y-96171129D01*
X176358370Y-96328742D01*
X176358377Y-96328748D01*
X176466019Y-96411344D01*
X176535226Y-96464448D01*
X176728274Y-96575905D01*
X176934219Y-96661210D01*
X177149537Y-96718904D01*
X177370543Y-96748000D01*
X177370550Y-96748000D01*
X177593450Y-96748000D01*
X177593457Y-96748000D01*
X177814463Y-96718904D01*
X178029781Y-96661210D01*
X178235726Y-96575905D01*
X178428774Y-96464448D01*
X178605624Y-96328747D01*
X178763247Y-96171124D01*
X178820497Y-96096513D01*
X178876924Y-96055311D01*
X178918873Y-96048000D01*
X184746001Y-96048000D01*
X184813040Y-96067685D01*
X184858795Y-96120489D01*
X184870001Y-96172000D01*
X184870001Y-97020018D01*
X184880500Y-97122796D01*
X184880501Y-97122799D01*
X184935685Y-97289331D01*
X184935686Y-97289334D01*
X185027788Y-97438656D01*
X185151844Y-97562712D01*
X185301166Y-97654814D01*
X185467703Y-97709999D01*
X185570491Y-97720500D01*
X187770508Y-97720499D01*
X187873297Y-97709999D01*
X188039834Y-97654814D01*
X188189156Y-97562712D01*
X188313212Y-97438656D01*
X188405314Y-97289334D01*
X188460499Y-97122797D01*
X188471000Y-97020009D01*
X188470999Y-94819992D01*
X188460499Y-94717203D01*
X188405314Y-94550666D01*
X188313212Y-94401344D01*
X188189156Y-94277288D01*
X188039834Y-94185186D01*
X187873297Y-94130001D01*
X187873295Y-94130000D01*
X187770516Y-94119500D01*
X187770509Y-94119500D01*
X186196708Y-94119500D01*
X186188532Y-94117873D01*
X186183455Y-94118790D01*
X186149257Y-94110062D01*
X186130283Y-94102203D01*
X186130281Y-94102202D01*
X186089836Y-94085449D01*
X186089828Y-94085447D01*
X185979511Y-94063504D01*
X185896543Y-94047000D01*
X185896541Y-94047000D01*
X178918873Y-94047000D01*
X178851834Y-94027315D01*
X178820497Y-93998486D01*
X178763248Y-93923877D01*
X178763242Y-93923870D01*
X178605629Y-93766257D01*
X178605622Y-93766251D01*
X178428782Y-93630558D01*
X178428780Y-93630557D01*
X178428774Y-93630552D01*
X178235726Y-93519095D01*
X178235722Y-93519093D01*
X178029790Y-93433793D01*
X178029783Y-93433791D01*
X178029781Y-93433790D01*
X177814463Y-93376096D01*
X177814457Y-93376095D01*
X177814452Y-93376094D01*
X177593466Y-93347001D01*
X177593463Y-93347000D01*
X177593457Y-93347000D01*
X177370543Y-93347000D01*
X177370537Y-93347000D01*
X177370533Y-93347001D01*
X177149547Y-93376094D01*
X177149540Y-93376095D01*
X177149537Y-93376096D01*
X177017989Y-93411344D01*
X176934219Y-93433790D01*
X176934209Y-93433793D01*
X176728277Y-93519093D01*
X176728273Y-93519095D01*
X176535226Y-93630552D01*
X176535217Y-93630558D01*
X176358377Y-93766251D01*
X176358370Y-93766257D01*
X176200757Y-93923870D01*
X176200751Y-93923877D01*
X176065058Y-94100717D01*
X176065052Y-94100726D01*
X175953595Y-94293773D01*
X175953593Y-94293777D01*
X175868293Y-94499709D01*
X175868290Y-94499719D01*
X175810597Y-94715034D01*
X175810594Y-94715047D01*
X175781501Y-94936033D01*
X175781500Y-94936049D01*
X166982500Y-94936049D01*
X166982500Y-94936043D01*
X166953404Y-94715037D01*
X166895710Y-94499719D01*
X166810405Y-94293774D01*
X166698948Y-94100726D01*
X166572294Y-93935666D01*
X166563248Y-93923877D01*
X166563242Y-93923870D01*
X166405629Y-93766257D01*
X166405622Y-93766251D01*
X166228782Y-93630558D01*
X166228780Y-93630557D01*
X166228774Y-93630552D01*
X166035726Y-93519095D01*
X166035722Y-93519093D01*
X165829790Y-93433793D01*
X165829783Y-93433791D01*
X165829781Y-93433790D01*
X165614463Y-93376096D01*
X165614457Y-93376095D01*
X165614452Y-93376094D01*
X165393466Y-93347001D01*
X165393463Y-93347000D01*
X165393457Y-93347000D01*
X165170543Y-93347000D01*
X165170537Y-93347000D01*
X165170533Y-93347001D01*
X164949547Y-93376094D01*
X164949540Y-93376095D01*
X164949537Y-93376096D01*
X164817989Y-93411344D01*
X164734219Y-93433790D01*
X164734209Y-93433793D01*
X164528277Y-93519093D01*
X164528273Y-93519095D01*
X164335226Y-93630552D01*
X164335217Y-93630558D01*
X164158377Y-93766251D01*
X164158370Y-93766257D01*
X164000757Y-93923870D01*
X164000751Y-93923877D01*
X163865058Y-94100717D01*
X163865052Y-94100726D01*
X163787528Y-94235001D01*
X163736961Y-94283216D01*
X163680141Y-94297000D01*
X161367500Y-94297000D01*
X161300461Y-94277315D01*
X161254706Y-94224511D01*
X161243500Y-94173000D01*
X161243500Y-93704997D01*
X161243499Y-93704984D01*
X161238971Y-93660666D01*
X161232999Y-93602203D01*
X161177814Y-93435666D01*
X161147974Y-93387289D01*
X161085713Y-93286348D01*
X161085710Y-93286344D01*
X160961655Y-93162289D01*
X160961651Y-93162286D01*
X160812337Y-93070187D01*
X160812335Y-93070186D01*
X160729065Y-93042593D01*
X160645797Y-93015001D01*
X160645795Y-93015000D01*
X160543015Y-93004500D01*
X160543008Y-93004500D01*
X158142992Y-93004500D01*
X158142984Y-93004500D01*
X158040204Y-93015000D01*
X158040203Y-93015001D01*
X157873664Y-93070186D01*
X157873662Y-93070187D01*
X157724348Y-93162286D01*
X157724344Y-93162289D01*
X157600289Y-93286344D01*
X157600286Y-93286348D01*
X157508187Y-93435662D01*
X157508186Y-93435664D01*
X157453001Y-93602203D01*
X157453000Y-93602204D01*
X157442500Y-93704984D01*
X157442500Y-94030500D01*
X157422815Y-94097539D01*
X157370011Y-94143294D01*
X157318500Y-94154500D01*
X154839870Y-94154500D01*
X154772831Y-94134815D01*
X154727076Y-94082011D01*
X154722164Y-94069505D01*
X154719478Y-94061400D01*
X154677814Y-93935666D01*
X154585712Y-93786344D01*
X154461656Y-93662288D01*
X154312334Y-93570186D01*
X154145797Y-93515001D01*
X154145795Y-93515000D01*
X154043010Y-93504500D01*
X152842998Y-93504500D01*
X152842981Y-93504501D01*
X152740203Y-93515000D01*
X152740200Y-93515001D01*
X152573668Y-93570185D01*
X152573659Y-93570189D01*
X152484871Y-93624954D01*
X152417478Y-93643394D01*
X152350815Y-93622471D01*
X152306046Y-93568829D01*
X152303444Y-93562019D01*
X152302815Y-93560670D01*
X152302814Y-93560666D01*
X152210712Y-93411344D01*
X152086656Y-93287288D01*
X151937334Y-93195186D01*
X151770797Y-93140001D01*
X151770795Y-93140000D01*
X151668010Y-93129500D01*
X150817998Y-93129500D01*
X150817980Y-93129501D01*
X150715203Y-93140000D01*
X150715200Y-93140001D01*
X150548668Y-93195185D01*
X150548663Y-93195187D01*
X150399342Y-93287289D01*
X150275289Y-93411342D01*
X150183187Y-93560663D01*
X150183185Y-93560668D01*
X150168490Y-93605016D01*
X150128001Y-93727203D01*
X150128001Y-93727204D01*
X150128000Y-93727204D01*
X150117500Y-93829983D01*
X149568498Y-93829983D01*
X149557999Y-93727203D01*
X149502814Y-93560666D01*
X149410712Y-93411344D01*
X149286656Y-93287288D01*
X149137334Y-93195186D01*
X148970797Y-93140001D01*
X148970795Y-93140000D01*
X148868010Y-93129500D01*
X148017998Y-93129500D01*
X148017980Y-93129501D01*
X147915203Y-93140000D01*
X147915200Y-93140001D01*
X147748668Y-93195185D01*
X147748663Y-93195187D01*
X147599342Y-93287289D01*
X147475289Y-93411342D01*
X147475288Y-93411344D01*
X147460288Y-93435664D01*
X147456682Y-93441510D01*
X147404734Y-93488234D01*
X147335771Y-93499457D01*
X147271689Y-93471613D01*
X147263462Y-93464094D01*
X147186657Y-93387289D01*
X147186656Y-93387288D01*
X147037334Y-93295186D01*
X146870797Y-93240001D01*
X146870795Y-93240000D01*
X146768010Y-93229500D01*
X145417998Y-93229500D01*
X145417981Y-93229501D01*
X145315203Y-93240000D01*
X145315200Y-93240001D01*
X145148668Y-93295185D01*
X145148663Y-93295187D01*
X144999342Y-93387289D01*
X144875289Y-93511342D01*
X144783187Y-93660663D01*
X144783185Y-93660668D01*
X144770576Y-93698719D01*
X144728001Y-93827203D01*
X144728001Y-93827204D01*
X144728000Y-93827204D01*
X144717500Y-93929983D01*
X143504735Y-93929983D01*
X143518271Y-93706201D01*
X143520076Y-93691340D01*
X143528863Y-93643394D01*
X143571780Y-93409197D01*
X143575364Y-93394663D01*
X143577662Y-93387288D01*
X143660696Y-93120822D01*
X143665998Y-93106841D01*
X143783731Y-92845249D01*
X143790676Y-92832016D01*
X143939080Y-92586526D01*
X143947567Y-92574230D01*
X144124480Y-92348417D01*
X144134395Y-92337226D01*
X144337226Y-92134395D01*
X144348417Y-92124480D01*
X144574230Y-91947567D01*
X144586526Y-91939080D01*
X144832016Y-91790676D01*
X144845249Y-91783731D01*
X145106841Y-91665998D01*
X145120822Y-91660696D01*
X145394668Y-91575362D01*
X145409197Y-91571780D01*
X145691344Y-91520075D01*
X145706201Y-91518271D01*
X145996264Y-91500726D01*
X146003751Y-91500500D01*
X146065892Y-91500500D01*
X189934108Y-91500500D01*
X189996249Y-91500500D01*
X190003736Y-91500726D01*
G37*
%TD.AperFunction*%
%TD*%
M02*
