%TF.GenerationSoftware,KiCad,Pcbnew,9.0.5*%
%TF.CreationDate,2025-12-25T11:21:18+05:30*%
%TF.ProjectId,Relay Module ( Single channel),52656c61-7920-44d6-9f64-756c65202820,v1.0*%
%TF.SameCoordinates,Original*%
%TF.FileFunction,Legend,Bot*%
%TF.FilePolarity,Positive*%
%FSLAX46Y46*%
G04 Gerber Fmt 4.6, Leading zero omitted, Abs format (unit mm)*
G04 Created by KiCad (PCBNEW 9.0.5) date 2025-12-25 11:21:18*
%MOMM*%
%LPD*%
G01*
G04 APERTURE LIST*
%ADD10C,0.200000*%
G04 APERTURE END LIST*
D10*
X190787219Y-95369673D02*
X189787219Y-95369673D01*
X189787219Y-95369673D02*
X190787219Y-95941101D01*
X190787219Y-95941101D02*
X189787219Y-95941101D01*
X190691980Y-96988720D02*
X190739600Y-96941101D01*
X190739600Y-96941101D02*
X190787219Y-96798244D01*
X190787219Y-96798244D02*
X190787219Y-96703006D01*
X190787219Y-96703006D02*
X190739600Y-96560149D01*
X190739600Y-96560149D02*
X190644361Y-96464911D01*
X190644361Y-96464911D02*
X190549123Y-96417292D01*
X190549123Y-96417292D02*
X190358647Y-96369673D01*
X190358647Y-96369673D02*
X190215790Y-96369673D01*
X190215790Y-96369673D02*
X190025314Y-96417292D01*
X190025314Y-96417292D02*
X189930076Y-96464911D01*
X189930076Y-96464911D02*
X189834838Y-96560149D01*
X189834838Y-96560149D02*
X189787219Y-96703006D01*
X189787219Y-96703006D02*
X189787219Y-96798244D01*
X189787219Y-96798244D02*
X189834838Y-96941101D01*
X189834838Y-96941101D02*
X189882457Y-96988720D01*
X190857219Y-105369673D02*
X189857219Y-105369673D01*
X189857219Y-105369673D02*
X190857219Y-105941101D01*
X190857219Y-105941101D02*
X189857219Y-105941101D01*
X189857219Y-106607768D02*
X189857219Y-106798244D01*
X189857219Y-106798244D02*
X189904838Y-106893482D01*
X189904838Y-106893482D02*
X190000076Y-106988720D01*
X190000076Y-106988720D02*
X190190552Y-107036339D01*
X190190552Y-107036339D02*
X190523885Y-107036339D01*
X190523885Y-107036339D02*
X190714361Y-106988720D01*
X190714361Y-106988720D02*
X190809600Y-106893482D01*
X190809600Y-106893482D02*
X190857219Y-106798244D01*
X190857219Y-106798244D02*
X190857219Y-106607768D01*
X190857219Y-106607768D02*
X190809600Y-106512530D01*
X190809600Y-106512530D02*
X190714361Y-106417292D01*
X190714361Y-106417292D02*
X190523885Y-106369673D01*
X190523885Y-106369673D02*
X190190552Y-106369673D01*
X190190552Y-106369673D02*
X190000076Y-106417292D01*
X190000076Y-106417292D02*
X189904838Y-106512530D01*
X189904838Y-106512530D02*
X189857219Y-106607768D01*
X190691980Y-99941101D02*
X190739600Y-99893482D01*
X190739600Y-99893482D02*
X190787219Y-99750625D01*
X190787219Y-99750625D02*
X190787219Y-99655387D01*
X190787219Y-99655387D02*
X190739600Y-99512530D01*
X190739600Y-99512530D02*
X190644361Y-99417292D01*
X190644361Y-99417292D02*
X190549123Y-99369673D01*
X190549123Y-99369673D02*
X190358647Y-99322054D01*
X190358647Y-99322054D02*
X190215790Y-99322054D01*
X190215790Y-99322054D02*
X190025314Y-99369673D01*
X190025314Y-99369673D02*
X189930076Y-99417292D01*
X189930076Y-99417292D02*
X189834838Y-99512530D01*
X189834838Y-99512530D02*
X189787219Y-99655387D01*
X189787219Y-99655387D02*
X189787219Y-99750625D01*
X189787219Y-99750625D02*
X189834838Y-99893482D01*
X189834838Y-99893482D02*
X189882457Y-99941101D01*
X189787219Y-100560149D02*
X189787219Y-100750625D01*
X189787219Y-100750625D02*
X189834838Y-100845863D01*
X189834838Y-100845863D02*
X189930076Y-100941101D01*
X189930076Y-100941101D02*
X190120552Y-100988720D01*
X190120552Y-100988720D02*
X190453885Y-100988720D01*
X190453885Y-100988720D02*
X190644361Y-100941101D01*
X190644361Y-100941101D02*
X190739600Y-100845863D01*
X190739600Y-100845863D02*
X190787219Y-100750625D01*
X190787219Y-100750625D02*
X190787219Y-100560149D01*
X190787219Y-100560149D02*
X190739600Y-100464911D01*
X190739600Y-100464911D02*
X190644361Y-100369673D01*
X190644361Y-100369673D02*
X190453885Y-100322054D01*
X190453885Y-100322054D02*
X190120552Y-100322054D01*
X190120552Y-100322054D02*
X189930076Y-100369673D01*
X189930076Y-100369673D02*
X189834838Y-100464911D01*
X189834838Y-100464911D02*
X189787219Y-100560149D01*
X190787219Y-101417292D02*
X189787219Y-101417292D01*
X189787219Y-101417292D02*
X190501504Y-101750625D01*
X190501504Y-101750625D02*
X189787219Y-102083958D01*
X189787219Y-102083958D02*
X190787219Y-102083958D01*
M02*
