%TF.GenerationSoftware,KiCad,Pcbnew,9.0.5*%
%TF.CreationDate,2025-12-25T12:25:27+05:30*%
%TF.ProjectId,TSH82_Configurable_Op-amp_Board,54534838-325f-4436-9f6e-666967757261,v1.1*%
%TF.SameCoordinates,Original*%
%TF.FileFunction,Soldermask,Top*%
%TF.FilePolarity,Negative*%
%FSLAX46Y46*%
G04 Gerber Fmt 4.6, Leading zero omitted, Abs format (unit mm)*
G04 Created by KiCad (PCBNEW 9.0.5) date 2025-12-25 12:25:27*
%MOMM*%
%LPD*%
G01*
G04 APERTURE LIST*
G04 Aperture macros list*
%AMRoundRect*
0 Rectangle with rounded corners*
0 $1 Rounding radius*
0 $2 $3 $4 $5 $6 $7 $8 $9 X,Y pos of 4 corners*
0 Add a 4 corners polygon primitive as box body*
4,1,4,$2,$3,$4,$5,$6,$7,$8,$9,$2,$3,0*
0 Add four circle primitives for the rounded corners*
1,1,$1+$1,$2,$3*
1,1,$1+$1,$4,$5*
1,1,$1+$1,$6,$7*
1,1,$1+$1,$8,$9*
0 Add four rect primitives between the rounded corners*
20,1,$1+$1,$2,$3,$4,$5,0*
20,1,$1+$1,$4,$5,$6,$7,0*
20,1,$1+$1,$6,$7,$8,$9,0*
20,1,$1+$1,$8,$9,$2,$3,0*%
%AMFreePoly0*
4,1,23,0.500000,-0.750000,0.000000,-0.750000,0.000000,-0.745722,-0.065263,-0.745722,-0.191342,-0.711940,-0.304381,-0.646677,-0.396677,-0.554381,-0.461940,-0.441342,-0.495722,-0.315263,-0.495722,-0.250000,-0.500000,-0.250000,-0.500000,0.250000,-0.495722,0.250000,-0.495722,0.315263,-0.461940,0.441342,-0.396677,0.554381,-0.304381,0.646677,-0.191342,0.711940,-0.065263,0.745722,0.000000,0.745722,
0.000000,0.750000,0.500000,0.750000,0.500000,-0.750000,0.500000,-0.750000,$1*%
%AMFreePoly1*
4,1,23,0.000000,0.745722,0.065263,0.745722,0.191342,0.711940,0.304381,0.646677,0.396677,0.554381,0.461940,0.441342,0.495722,0.315263,0.495722,0.250000,0.500000,0.250000,0.500000,-0.250000,0.495722,-0.250000,0.495722,-0.315263,0.461940,-0.441342,0.396677,-0.554381,0.304381,-0.646677,0.191342,-0.711940,0.065263,-0.745722,0.000000,-0.745722,0.000000,-0.750000,-0.500000,-0.750000,
-0.500000,0.750000,0.000000,0.750000,0.000000,0.745722,0.000000,0.745722,$1*%
%AMFreePoly2*
4,1,23,0.550000,-0.750000,0.000000,-0.750000,0.000000,-0.745722,-0.065263,-0.745722,-0.191342,-0.711940,-0.304381,-0.646677,-0.396677,-0.554381,-0.461940,-0.441342,-0.495722,-0.315263,-0.495722,-0.250000,-0.500000,-0.250000,-0.500000,0.250000,-0.495722,0.250000,-0.495722,0.315263,-0.461940,0.441342,-0.396677,0.554381,-0.304381,0.646677,-0.191342,0.711940,-0.065263,0.745722,0.000000,0.745722,
0.000000,0.750000,0.550000,0.750000,0.550000,-0.750000,0.550000,-0.750000,$1*%
%AMFreePoly3*
4,1,23,0.000000,0.745722,0.065263,0.745722,0.191342,0.711940,0.304381,0.646677,0.396677,0.554381,0.461940,0.441342,0.495722,0.315263,0.495722,0.250000,0.500000,0.250000,0.500000,-0.250000,0.495722,-0.250000,0.495722,-0.315263,0.461940,-0.441342,0.396677,-0.554381,0.304381,-0.646677,0.191342,-0.711940,0.065263,-0.745722,0.000000,-0.745722,0.000000,-0.750000,-0.550000,-0.750000,
-0.550000,0.750000,0.000000,0.750000,0.000000,0.745722,0.000000,0.745722,$1*%
G04 Aperture macros list end*
%ADD10RoundRect,0.250000X-0.250000X-0.475000X0.250000X-0.475000X0.250000X0.475000X-0.250000X0.475000X0*%
%ADD11FreePoly0,90.000000*%
%ADD12FreePoly1,90.000000*%
%ADD13RoundRect,0.250000X0.250000X0.475000X-0.250000X0.475000X-0.250000X-0.475000X0.250000X-0.475000X0*%
%ADD14RoundRect,0.250000X1.412500X0.550000X-1.412500X0.550000X-1.412500X-0.550000X1.412500X-0.550000X0*%
%ADD15RoundRect,0.250000X0.450000X-0.262500X0.450000X0.262500X-0.450000X0.262500X-0.450000X-0.262500X0*%
%ADD16RoundRect,0.250000X0.262500X0.450000X-0.262500X0.450000X-0.262500X-0.450000X0.262500X-0.450000X0*%
%ADD17C,2.100000*%
%ADD18FreePoly2,270.000000*%
%ADD19R,1.500000X1.000000*%
%ADD20FreePoly3,270.000000*%
%ADD21FreePoly0,180.000000*%
%ADD22FreePoly1,180.000000*%
%ADD23RoundRect,0.250000X-0.262500X-0.450000X0.262500X-0.450000X0.262500X0.450000X-0.262500X0.450000X0*%
%ADD24FreePoly0,0.000000*%
%ADD25FreePoly1,0.000000*%
%ADD26R,1.700000X1.700000*%
%ADD27C,1.700000*%
%ADD28R,1.981200X0.533400*%
G04 APERTURE END LIST*
%TO.C,JP4*%
G36*
X149787500Y-105087500D02*
G01*
X151287500Y-105087500D01*
X151287500Y-104787500D01*
X149787500Y-104787500D01*
X149787500Y-105087500D01*
G37*
%TO.C,JP3*%
G36*
X135537500Y-104550000D02*
G01*
X137037500Y-104550000D01*
X137037500Y-104250000D01*
X135537500Y-104250000D01*
X135537500Y-104550000D01*
G37*
%TO.C,JP9*%
G36*
X156537500Y-98750000D02*
G01*
X155037500Y-98750000D01*
X155037500Y-100250000D01*
X156537500Y-100250000D01*
X156537500Y-98750000D01*
G37*
%TO.C,JP6*%
G36*
X155437500Y-89250000D02*
G01*
X155137500Y-89250000D01*
X155137500Y-87750000D01*
X155437500Y-87750000D01*
X155437500Y-89250000D01*
G37*
%TO.C,JP10*%
G36*
X156537500Y-94000000D02*
G01*
X155037500Y-94000000D01*
X155037500Y-95500000D01*
X156537500Y-95500000D01*
X156537500Y-94000000D01*
G37*
%TO.C,JP7*%
G36*
X131287500Y-98500000D02*
G01*
X129787500Y-98500000D01*
X129787500Y-100000000D01*
X131287500Y-100000000D01*
X131287500Y-98500000D01*
G37*
%TO.C,JP5*%
G36*
X154900000Y-106250000D02*
G01*
X154600000Y-106250000D01*
X154600000Y-104750000D01*
X154900000Y-104750000D01*
X154900000Y-106250000D01*
G37*
%TO.C,JP2*%
G36*
X131187500Y-89250000D02*
G01*
X130887500Y-89250000D01*
X130887500Y-87750000D01*
X131187500Y-87750000D01*
X131187500Y-89250000D01*
G37*
%TO.C,JP1*%
G36*
X130637500Y-104750000D02*
G01*
X130937500Y-104750000D01*
X130937500Y-106250000D01*
X130637500Y-106250000D01*
X130637500Y-104750000D01*
G37*
%TO.C,JP8*%
G36*
X131287500Y-93750000D02*
G01*
X129787500Y-93750000D01*
X129787500Y-95250000D01*
X131287500Y-95250000D01*
X131287500Y-93750000D01*
G37*
%TD*%
D10*
%TO.C,C2*%
X150037500Y-91750000D03*
X151937500Y-91750000D03*
%TD*%
D11*
%TO.C,JP4*%
X150537500Y-105587500D03*
D12*
X150537500Y-104287500D03*
%TD*%
D13*
%TO.C,C4*%
X155987500Y-103000000D03*
X154087500Y-103000000D03*
%TD*%
D14*
%TO.C,C10*%
X146075000Y-96250000D03*
X141000000Y-96250000D03*
%TD*%
D15*
%TO.C,R7*%
X150287500Y-102250000D03*
X150287500Y-100425000D03*
%TD*%
D16*
%TO.C,R9*%
X144912500Y-91500000D03*
X143087500Y-91500000D03*
%TD*%
D11*
%TO.C,JP3*%
X136287500Y-105050000D03*
D12*
X136287500Y-103750000D03*
%TD*%
D15*
%TO.C,R5*%
X136500000Y-101912500D03*
X136500000Y-100087500D03*
%TD*%
D13*
%TO.C,C6*%
X156237500Y-91000000D03*
X154337500Y-91000000D03*
%TD*%
D17*
%TO.C,H4*%
X126000000Y-106000000D03*
%TD*%
D18*
%TO.C,JP9*%
X155787500Y-98200000D03*
D19*
X155787500Y-99500000D03*
D20*
X155787500Y-100800000D03*
%TD*%
D10*
%TO.C,C7*%
X149225000Y-86625000D03*
X151125000Y-86625000D03*
%TD*%
D21*
%TO.C,JP6*%
X155937500Y-88500000D03*
D22*
X154637500Y-88500000D03*
%TD*%
D23*
%TO.C,R6*%
X134837500Y-93750000D03*
X136662500Y-93750000D03*
%TD*%
%TO.C,R1*%
X134837500Y-96000000D03*
X136662500Y-96000000D03*
%TD*%
D16*
%TO.C,R8*%
X151700000Y-94000000D03*
X149875000Y-94000000D03*
%TD*%
D13*
%TO.C,C8*%
X140200000Y-91500000D03*
X138300000Y-91500000D03*
%TD*%
D18*
%TO.C,JP10*%
X155787500Y-93450000D03*
D19*
X155787500Y-94750000D03*
D20*
X155787500Y-96050000D03*
%TD*%
D18*
%TO.C,JP7*%
X130537500Y-97950000D03*
D19*
X130537500Y-99250000D03*
D20*
X130537500Y-100550000D03*
%TD*%
D16*
%TO.C,R10*%
X148412500Y-91500000D03*
X146587500Y-91500000D03*
%TD*%
D21*
%TO.C,JP5*%
X155400000Y-105500000D03*
D22*
X154100000Y-105500000D03*
%TD*%
D21*
%TO.C,JP2*%
X131687500Y-88500000D03*
D22*
X130387500Y-88500000D03*
%TD*%
D13*
%TO.C,C1*%
X136700000Y-91500000D03*
X134800000Y-91500000D03*
%TD*%
D17*
%TO.C,H3*%
X160000000Y-106000000D03*
%TD*%
D13*
%TO.C,C5*%
X131987500Y-91000000D03*
X130087500Y-91000000D03*
%TD*%
D17*
%TO.C,H1*%
X126000000Y-82000000D03*
%TD*%
D23*
%TO.C,R4*%
X149962500Y-96087500D03*
X151787500Y-96087500D03*
%TD*%
D10*
%TO.C,C3*%
X129837500Y-103000000D03*
X131737500Y-103000000D03*
%TD*%
D23*
%TO.C,R3*%
X149962500Y-98337500D03*
X151787500Y-98337500D03*
%TD*%
D14*
%TO.C,C9*%
X146162500Y-86625000D03*
X141087500Y-86625000D03*
%TD*%
D24*
%TO.C,JP1*%
X130137500Y-105500000D03*
D25*
X131437500Y-105500000D03*
%TD*%
D23*
%TO.C,R2*%
X134837500Y-98250000D03*
X136662500Y-98250000D03*
%TD*%
D26*
%TO.C,J1*%
X132760000Y-81000000D03*
D27*
X135300000Y-81000000D03*
X137840000Y-81000000D03*
X140380000Y-81000000D03*
X142920000Y-81000000D03*
X145460000Y-81000000D03*
X148000000Y-81000000D03*
X150540000Y-81000000D03*
X153080000Y-81000000D03*
%TD*%
D28*
%TO.C,U1*%
X140823700Y-101095000D03*
X140823700Y-102365000D03*
X140823700Y-103635000D03*
X140823700Y-104905000D03*
X145751300Y-104905000D03*
X145751300Y-103635000D03*
X145751300Y-102365000D03*
X145751300Y-101095000D03*
%TD*%
D17*
%TO.C,H2*%
X160000000Y-82000000D03*
%TD*%
D18*
%TO.C,JP8*%
X130537500Y-93200000D03*
D19*
X130537500Y-94500000D03*
D20*
X130537500Y-95800000D03*
%TD*%
M02*
