%TF.GenerationSoftware,KiCad,Pcbnew,9.0.5*%
%TF.CreationDate,2025-12-25T12:25:27+05:30*%
%TF.ProjectId,TSH82_Configurable_Op-amp_Board,54534838-325f-4436-9f6e-666967757261,v1.1*%
%TF.SameCoordinates,Original*%
%TF.FileFunction,Copper,L1,Top*%
%TF.FilePolarity,Positive*%
%FSLAX46Y46*%
G04 Gerber Fmt 4.6, Leading zero omitted, Abs format (unit mm)*
G04 Created by KiCad (PCBNEW 9.0.5) date 2025-12-25 12:25:27*
%MOMM*%
%LPD*%
G01*
G04 APERTURE LIST*
G04 Aperture macros list*
%AMRoundRect*
0 Rectangle with rounded corners*
0 $1 Rounding radius*
0 $2 $3 $4 $5 $6 $7 $8 $9 X,Y pos of 4 corners*
0 Add a 4 corners polygon primitive as box body*
4,1,4,$2,$3,$4,$5,$6,$7,$8,$9,$2,$3,0*
0 Add four circle primitives for the rounded corners*
1,1,$1+$1,$2,$3*
1,1,$1+$1,$4,$5*
1,1,$1+$1,$6,$7*
1,1,$1+$1,$8,$9*
0 Add four rect primitives between the rounded corners*
20,1,$1+$1,$2,$3,$4,$5,0*
20,1,$1+$1,$4,$5,$6,$7,0*
20,1,$1+$1,$6,$7,$8,$9,0*
20,1,$1+$1,$8,$9,$2,$3,0*%
%AMFreePoly0*
4,1,23,0.500000,-0.750000,0.000000,-0.750000,0.000000,-0.745722,-0.065263,-0.745722,-0.191342,-0.711940,-0.304381,-0.646677,-0.396677,-0.554381,-0.461940,-0.441342,-0.495722,-0.315263,-0.495722,-0.250000,-0.500000,-0.250000,-0.500000,0.250000,-0.495722,0.250000,-0.495722,0.315263,-0.461940,0.441342,-0.396677,0.554381,-0.304381,0.646677,-0.191342,0.711940,-0.065263,0.745722,0.000000,0.745722,
0.000000,0.750000,0.500000,0.750000,0.500000,-0.750000,0.500000,-0.750000,$1*%
%AMFreePoly1*
4,1,23,0.000000,0.745722,0.065263,0.745722,0.191342,0.711940,0.304381,0.646677,0.396677,0.554381,0.461940,0.441342,0.495722,0.315263,0.495722,0.250000,0.500000,0.250000,0.500000,-0.250000,0.495722,-0.250000,0.495722,-0.315263,0.461940,-0.441342,0.396677,-0.554381,0.304381,-0.646677,0.191342,-0.711940,0.065263,-0.745722,0.000000,-0.745722,0.000000,-0.750000,-0.500000,-0.750000,
-0.500000,0.750000,0.000000,0.750000,0.000000,0.745722,0.000000,0.745722,$1*%
%AMFreePoly2*
4,1,23,0.550000,-0.750000,0.000000,-0.750000,0.000000,-0.745722,-0.065263,-0.745722,-0.191342,-0.711940,-0.304381,-0.646677,-0.396677,-0.554381,-0.461940,-0.441342,-0.495722,-0.315263,-0.495722,-0.250000,-0.500000,-0.250000,-0.500000,0.250000,-0.495722,0.250000,-0.495722,0.315263,-0.461940,0.441342,-0.396677,0.554381,-0.304381,0.646677,-0.191342,0.711940,-0.065263,0.745722,0.000000,0.745722,
0.000000,0.750000,0.550000,0.750000,0.550000,-0.750000,0.550000,-0.750000,$1*%
%AMFreePoly3*
4,1,23,0.000000,0.745722,0.065263,0.745722,0.191342,0.711940,0.304381,0.646677,0.396677,0.554381,0.461940,0.441342,0.495722,0.315263,0.495722,0.250000,0.500000,0.250000,0.500000,-0.250000,0.495722,-0.250000,0.495722,-0.315263,0.461940,-0.441342,0.396677,-0.554381,0.304381,-0.646677,0.191342,-0.711940,0.065263,-0.745722,0.000000,-0.745722,0.000000,-0.750000,-0.550000,-0.750000,
-0.550000,0.750000,0.000000,0.750000,0.000000,0.745722,0.000000,0.745722,$1*%
G04 Aperture macros list end*
%TA.AperFunction,EtchedComponent*%
%ADD10C,0.000000*%
%TD*%
%TA.AperFunction,SMDPad,CuDef*%
%ADD11RoundRect,0.250000X-0.250000X-0.475000X0.250000X-0.475000X0.250000X0.475000X-0.250000X0.475000X0*%
%TD*%
%TA.AperFunction,SMDPad,CuDef*%
%ADD12FreePoly0,90.000000*%
%TD*%
%TA.AperFunction,SMDPad,CuDef*%
%ADD13FreePoly1,90.000000*%
%TD*%
%TA.AperFunction,SMDPad,CuDef*%
%ADD14RoundRect,0.250000X0.250000X0.475000X-0.250000X0.475000X-0.250000X-0.475000X0.250000X-0.475000X0*%
%TD*%
%TA.AperFunction,SMDPad,CuDef*%
%ADD15RoundRect,0.250000X1.412500X0.550000X-1.412500X0.550000X-1.412500X-0.550000X1.412500X-0.550000X0*%
%TD*%
%TA.AperFunction,SMDPad,CuDef*%
%ADD16RoundRect,0.250000X0.450000X-0.262500X0.450000X0.262500X-0.450000X0.262500X-0.450000X-0.262500X0*%
%TD*%
%TA.AperFunction,SMDPad,CuDef*%
%ADD17RoundRect,0.250000X0.262500X0.450000X-0.262500X0.450000X-0.262500X-0.450000X0.262500X-0.450000X0*%
%TD*%
%TA.AperFunction,SMDPad,CuDef*%
%ADD18FreePoly2,270.000000*%
%TD*%
%TA.AperFunction,SMDPad,CuDef*%
%ADD19R,1.500000X1.000000*%
%TD*%
%TA.AperFunction,SMDPad,CuDef*%
%ADD20FreePoly3,270.000000*%
%TD*%
%TA.AperFunction,SMDPad,CuDef*%
%ADD21FreePoly0,180.000000*%
%TD*%
%TA.AperFunction,SMDPad,CuDef*%
%ADD22FreePoly1,180.000000*%
%TD*%
%TA.AperFunction,SMDPad,CuDef*%
%ADD23RoundRect,0.250000X-0.262500X-0.450000X0.262500X-0.450000X0.262500X0.450000X-0.262500X0.450000X0*%
%TD*%
%TA.AperFunction,SMDPad,CuDef*%
%ADD24FreePoly0,0.000000*%
%TD*%
%TA.AperFunction,SMDPad,CuDef*%
%ADD25FreePoly1,0.000000*%
%TD*%
%TA.AperFunction,ComponentPad*%
%ADD26R,1.700000X1.700000*%
%TD*%
%TA.AperFunction,ComponentPad*%
%ADD27C,1.700000*%
%TD*%
%TA.AperFunction,SMDPad,CuDef*%
%ADD28R,1.981200X0.533400*%
%TD*%
%TA.AperFunction,ViaPad*%
%ADD29C,0.600000*%
%TD*%
%TA.AperFunction,Conductor*%
%ADD30C,0.300000*%
%TD*%
%TA.AperFunction,Conductor*%
%ADD31C,0.500000*%
%TD*%
G04 APERTURE END LIST*
D10*
%TA.AperFunction,EtchedComponent*%
%TO.C,JP9*%
G36*
X156087500Y-99100000D02*
G01*
X155487500Y-99100000D01*
X155487500Y-98600000D01*
X156087500Y-98600000D01*
X156087500Y-99100000D01*
G37*
%TD.AperFunction*%
%TA.AperFunction,EtchedComponent*%
%TO.C,JP10*%
G36*
X156087500Y-94350000D02*
G01*
X155487500Y-94350000D01*
X155487500Y-93850000D01*
X156087500Y-93850000D01*
X156087500Y-94350000D01*
G37*
%TD.AperFunction*%
%TA.AperFunction,EtchedComponent*%
%TO.C,JP7*%
G36*
X130837500Y-98850000D02*
G01*
X130237500Y-98850000D01*
X130237500Y-98350000D01*
X130837500Y-98350000D01*
X130837500Y-98850000D01*
G37*
%TD.AperFunction*%
%TA.AperFunction,EtchedComponent*%
%TO.C,JP8*%
G36*
X130837500Y-94100000D02*
G01*
X130237500Y-94100000D01*
X130237500Y-93600000D01*
X130837500Y-93600000D01*
X130837500Y-94100000D01*
G37*
%TD.AperFunction*%
%TD*%
D11*
%TO.P,C2,1*%
%TO.N,OUT2*%
X150037500Y-91750000D03*
%TO.P,C2,2*%
%TO.N,Net-(U1-INVERT_IN2)*%
X151937500Y-91750000D03*
%TD*%
D12*
%TO.P,JP4,1,A*%
%TO.N,VREF*%
X150537500Y-105587500D03*
D13*
%TO.P,JP4,2,B*%
%TO.N,Net-(JP4-B)*%
X150537500Y-104287500D03*
%TD*%
D14*
%TO.P,C4,1*%
%TO.N,Net-(JP5-A)*%
X155987500Y-103000000D03*
%TO.P,C4,2*%
%TO.N,+IN2*%
X154087500Y-103000000D03*
%TD*%
D15*
%TO.P,C10,1*%
%TO.N,VCC*%
X146075000Y-96250000D03*
%TO.P,C10,2*%
%TO.N,GND*%
X141000000Y-96250000D03*
%TD*%
D16*
%TO.P,R7,1*%
%TO.N,Net-(JP4-B)*%
X150287500Y-102250000D03*
%TO.P,R7,2*%
%TO.N,Net-(U1-NON-INVERT_IN2)*%
X150287500Y-100425000D03*
%TD*%
D17*
%TO.P,R9,1*%
%TO.N,VREF*%
X144912500Y-91500000D03*
%TO.P,R9,2*%
%TO.N,VCC*%
X143087500Y-91500000D03*
%TD*%
D12*
%TO.P,JP3,1,A*%
%TO.N,VREF*%
X136287500Y-105050000D03*
D13*
%TO.P,JP3,2,B*%
%TO.N,Net-(JP3-B)*%
X136287500Y-103750000D03*
%TD*%
D16*
%TO.P,R5,1*%
%TO.N,Net-(JP3-B)*%
X136500000Y-101912500D03*
%TO.P,R5,2*%
%TO.N,Net-(U1-NON-INVERT_IN1)*%
X136500000Y-100087500D03*
%TD*%
D14*
%TO.P,C6,1*%
%TO.N,Net-(JP10-A)*%
X156237500Y-91000000D03*
%TO.P,C6,2*%
%TO.N,-IN2*%
X154337500Y-91000000D03*
%TD*%
D18*
%TO.P,JP9,1,A*%
%TO.N,VREF*%
X155787500Y-98200000D03*
D19*
%TO.P,JP9,2,C*%
%TO.N,Net-(JP9-C)*%
X155787500Y-99500000D03*
D20*
%TO.P,JP9,3,B*%
%TO.N,Net-(JP5-A)*%
X155787500Y-100800000D03*
%TD*%
D11*
%TO.P,C7,1*%
%TO.N,VREF*%
X149225000Y-86625000D03*
%TO.P,C7,2*%
%TO.N,GND*%
X151125000Y-86625000D03*
%TD*%
D21*
%TO.P,JP6,1,A*%
%TO.N,Net-(JP10-A)*%
X155937500Y-88500000D03*
D22*
%TO.P,JP6,2,B*%
%TO.N,-IN2*%
X154637500Y-88500000D03*
%TD*%
D23*
%TO.P,R6,1*%
%TO.N,Net-(U1-INVERTING_IN1)*%
X134837500Y-93750000D03*
%TO.P,R6,2*%
%TO.N,OUT1*%
X136662500Y-93750000D03*
%TD*%
%TO.P,R1,1*%
%TO.N,Net-(JP8-C)*%
X134837500Y-96000000D03*
%TO.P,R1,2*%
%TO.N,Net-(U1-INVERTING_IN1)*%
X136662500Y-96000000D03*
%TD*%
D17*
%TO.P,R8,1*%
%TO.N,Net-(U1-INVERT_IN2)*%
X151700000Y-94000000D03*
%TO.P,R8,2*%
%TO.N,OUT2*%
X149875000Y-94000000D03*
%TD*%
D14*
%TO.P,C8,1*%
%TO.N,VCC*%
X140200000Y-91500000D03*
%TO.P,C8,2*%
%TO.N,GND*%
X138300000Y-91500000D03*
%TD*%
D18*
%TO.P,JP10,1,A*%
%TO.N,Net-(JP10-A)*%
X155787500Y-93450000D03*
D19*
%TO.P,JP10,2,C*%
%TO.N,Net-(JP10-C)*%
X155787500Y-94750000D03*
D20*
%TO.P,JP10,3,B*%
%TO.N,VREF*%
X155787500Y-96050000D03*
%TD*%
D18*
%TO.P,JP7,1,A*%
%TO.N,VREF*%
X130537500Y-97950000D03*
D19*
%TO.P,JP7,2,C*%
%TO.N,Net-(JP7-C)*%
X130537500Y-99250000D03*
D20*
%TO.P,JP7,3,B*%
%TO.N,Net-(JP1-B)*%
X130537500Y-100550000D03*
%TD*%
D17*
%TO.P,R10,1*%
%TO.N,GND*%
X148412500Y-91500000D03*
%TO.P,R10,2*%
%TO.N,VREF*%
X146587500Y-91500000D03*
%TD*%
D21*
%TO.P,JP5,1,A*%
%TO.N,Net-(JP5-A)*%
X155400000Y-105500000D03*
D22*
%TO.P,JP5,2,B*%
%TO.N,+IN2*%
X154100000Y-105500000D03*
%TD*%
D21*
%TO.P,JP2,1,A*%
%TO.N,-IN1*%
X131687500Y-88500000D03*
D22*
%TO.P,JP2,2,B*%
%TO.N,Net-(JP2-B)*%
X130387500Y-88500000D03*
%TD*%
D14*
%TO.P,C1,1*%
%TO.N,OUT1*%
X136700000Y-91500000D03*
%TO.P,C1,2*%
%TO.N,Net-(U1-INVERTING_IN1)*%
X134800000Y-91500000D03*
%TD*%
%TO.P,C5,1*%
%TO.N,-IN1*%
X131987500Y-91000000D03*
%TO.P,C5,2*%
%TO.N,Net-(JP2-B)*%
X130087500Y-91000000D03*
%TD*%
D23*
%TO.P,R4,1*%
%TO.N,Net-(U1-INVERT_IN2)*%
X149962500Y-96087500D03*
%TO.P,R4,2*%
%TO.N,Net-(JP10-C)*%
X151787500Y-96087500D03*
%TD*%
D11*
%TO.P,C3,1*%
%TO.N,+IN1*%
X129837500Y-103000000D03*
%TO.P,C3,2*%
%TO.N,Net-(JP1-B)*%
X131737500Y-103000000D03*
%TD*%
D23*
%TO.P,R3,1*%
%TO.N,Net-(U1-NON-INVERT_IN2)*%
X149962500Y-98337500D03*
%TO.P,R3,2*%
%TO.N,Net-(JP9-C)*%
X151787500Y-98337500D03*
%TD*%
D15*
%TO.P,C9,1*%
%TO.N,VREF*%
X146162500Y-86625000D03*
%TO.P,C9,2*%
%TO.N,GND*%
X141087500Y-86625000D03*
%TD*%
D24*
%TO.P,JP1,1,A*%
%TO.N,+IN1*%
X130137500Y-105500000D03*
D25*
%TO.P,JP1,2,B*%
%TO.N,Net-(JP1-B)*%
X131437500Y-105500000D03*
%TD*%
D23*
%TO.P,R2,1*%
%TO.N,Net-(JP7-C)*%
X134837500Y-98250000D03*
%TO.P,R2,2*%
%TO.N,Net-(U1-NON-INVERT_IN1)*%
X136662500Y-98250000D03*
%TD*%
D26*
%TO.P,J1,1,Pin_1*%
%TO.N,VCC*%
X132760000Y-81000000D03*
D27*
%TO.P,J1,2,Pin_2*%
%TO.N,GND*%
X135300000Y-81000000D03*
%TO.P,J1,3,Pin_3*%
%TO.N,VREF*%
X137840000Y-81000000D03*
%TO.P,J1,4,Pin_4*%
%TO.N,-IN1*%
X140380000Y-81000000D03*
%TO.P,J1,5,Pin_5*%
%TO.N,+IN1*%
X142920000Y-81000000D03*
%TO.P,J1,6,Pin_6*%
%TO.N,OUT1*%
X145460000Y-81000000D03*
%TO.P,J1,7,Pin_7*%
%TO.N,-IN2*%
X148000000Y-81000000D03*
%TO.P,J1,8,Pin_8*%
%TO.N,+IN2*%
X150540000Y-81000000D03*
%TO.P,J1,9,Pin_9*%
%TO.N,OUT2*%
X153080000Y-81000000D03*
%TD*%
D28*
%TO.P,U1,1,OUT1*%
%TO.N,OUT1*%
X140823700Y-101095000D03*
%TO.P,U1,2,INVERTING_IN1*%
%TO.N,Net-(U1-INVERTING_IN1)*%
X140823700Y-102365000D03*
%TO.P,U1,3,NON-INVERT_IN1*%
%TO.N,Net-(U1-NON-INVERT_IN1)*%
X140823700Y-103635000D03*
%TO.P,U1,4,VCC-*%
%TO.N,GND*%
X140823700Y-104905000D03*
%TO.P,U1,5,NON-INVERT_IN2*%
%TO.N,Net-(U1-NON-INVERT_IN2)*%
X145751300Y-104905000D03*
%TO.P,U1,6,INVERT_IN2*%
%TO.N,Net-(U1-INVERT_IN2)*%
X145751300Y-103635000D03*
%TO.P,U1,7,OUT2*%
%TO.N,OUT2*%
X145751300Y-102365000D03*
%TO.P,U1,8,VCC+*%
%TO.N,VCC*%
X145751300Y-101095000D03*
%TD*%
D18*
%TO.P,JP8,1,A*%
%TO.N,Net-(JP2-B)*%
X130537500Y-93200000D03*
D19*
%TO.P,JP8,2,C*%
%TO.N,Net-(JP8-C)*%
X130537500Y-94500000D03*
D20*
%TO.P,JP8,3,B*%
%TO.N,VREF*%
X130537500Y-95800000D03*
%TD*%
D29*
%TO.N,OUT1*%
X137500000Y-89500000D03*
%TO.N,+IN1*%
X128500000Y-101250000D03*
%TO.N,+IN2*%
X154000000Y-100750000D03*
%TO.N,-IN1*%
X136750000Y-87750000D03*
%TO.N,GND*%
X129000000Y-86000000D03*
X133000000Y-100000000D03*
X127000000Y-101000000D03*
X159000000Y-93000000D03*
X127000000Y-95000000D03*
X133000000Y-103000000D03*
X127000000Y-90000000D03*
X159000000Y-86000000D03*
X130000000Y-84000000D03*
X148750000Y-103500000D03*
X134000000Y-86000000D03*
X129000000Y-83000000D03*
X137000000Y-107000000D03*
X135250000Y-83500000D03*
X132000000Y-85000000D03*
X129000000Y-80000000D03*
X156000000Y-81000000D03*
X148500000Y-85250000D03*
X149000000Y-88750000D03*
X129000000Y-81000000D03*
X133000000Y-105000000D03*
X147750000Y-105500000D03*
X148000000Y-94250000D03*
X148500000Y-83250000D03*
X147500000Y-83250000D03*
X136000000Y-107000000D03*
X133000000Y-108000000D03*
X134000000Y-106000000D03*
X157000000Y-83000000D03*
X136250000Y-83500000D03*
X133000000Y-101000000D03*
X127000000Y-94000000D03*
X157000000Y-84000000D03*
X146750000Y-106500000D03*
X127000000Y-87000000D03*
X156000000Y-83000000D03*
X131000000Y-84000000D03*
X133000000Y-85000000D03*
X158000000Y-85000000D03*
X133000000Y-86000000D03*
X138000000Y-105500000D03*
X157000000Y-81000000D03*
X159000000Y-99000000D03*
X134000000Y-108000000D03*
X158000000Y-86000000D03*
X149000000Y-89750000D03*
X144750000Y-106500000D03*
X130000000Y-86000000D03*
X157000000Y-80000000D03*
X151750000Y-84250000D03*
X159000000Y-102000000D03*
X159000000Y-94000000D03*
X127000000Y-99000000D03*
X159000000Y-90000000D03*
X159000000Y-98000000D03*
X127000000Y-88000000D03*
X159000000Y-91000000D03*
X131000000Y-86000000D03*
X139000000Y-94000000D03*
X148500000Y-84250000D03*
X148000000Y-88750000D03*
X159000000Y-95000000D03*
X127000000Y-102000000D03*
X157000000Y-85000000D03*
X156000000Y-82000000D03*
X128000000Y-85000000D03*
X159000000Y-101000000D03*
X157000000Y-86000000D03*
X159000000Y-89000000D03*
X135000000Y-108000000D03*
X159000000Y-92000000D03*
X150000000Y-108000000D03*
X127000000Y-100000000D03*
X159000000Y-96000000D03*
X151750000Y-88500000D03*
X133000000Y-104000000D03*
X127000000Y-97000000D03*
X140000000Y-106500000D03*
X128000000Y-86000000D03*
X133000000Y-107000000D03*
X130000000Y-80000000D03*
X156000000Y-80000000D03*
X159000000Y-100000000D03*
X132000000Y-84000000D03*
X130000000Y-81000000D03*
X142000000Y-106500000D03*
X136000000Y-108000000D03*
X133000000Y-106000000D03*
X131000000Y-85000000D03*
X127000000Y-89000000D03*
X137000000Y-108000000D03*
X159000000Y-97000000D03*
X134000000Y-103000000D03*
X138000000Y-108000000D03*
X135000000Y-107000000D03*
X159000000Y-88000000D03*
X151000000Y-108000000D03*
X129000000Y-84000000D03*
X130000000Y-85000000D03*
X159000000Y-87000000D03*
X138000000Y-104500000D03*
X157000000Y-82000000D03*
X139000000Y-106500000D03*
X156000000Y-85000000D03*
X134000000Y-102000000D03*
X139000000Y-104500000D03*
X127000000Y-93000000D03*
X133000000Y-84000000D03*
X127000000Y-91000000D03*
X127000000Y-92000000D03*
X156000000Y-84000000D03*
X148750000Y-105500000D03*
X145750000Y-106500000D03*
X149500000Y-83250000D03*
X138000000Y-103500000D03*
X134000000Y-107000000D03*
X133000000Y-102000000D03*
X134000000Y-85000000D03*
X141000000Y-106500000D03*
X151750000Y-83250000D03*
X132000000Y-86000000D03*
X127000000Y-86000000D03*
X148750000Y-104500000D03*
X127000000Y-96000000D03*
X129000000Y-85000000D03*
X130000000Y-83000000D03*
X147750000Y-106500000D03*
X156000000Y-86000000D03*
X139000000Y-105500000D03*
X129000000Y-82000000D03*
X127000000Y-98000000D03*
%TO.N,VREF*%
X132500000Y-97000000D03*
X153500000Y-95500000D03*
X147125000Y-90000000D03*
%TD*%
D30*
%TO.N,OUT1*%
X136662500Y-91537500D02*
X136700000Y-91500000D01*
X139845000Y-101095000D02*
X138750000Y-100000000D01*
X136700000Y-90200000D02*
X136700000Y-91500000D01*
X140823700Y-101095000D02*
X139845000Y-101095000D01*
X138750000Y-95837500D02*
X136662500Y-93750000D01*
X136662500Y-93750000D02*
X136662500Y-91537500D01*
X137400000Y-89500000D02*
X136700000Y-90200000D01*
X138750000Y-100000000D02*
X138750000Y-95837500D01*
X137500000Y-89500000D02*
X137400000Y-89500000D01*
%TO.N,Net-(U1-INVERTING_IN1)*%
X140099800Y-102365000D02*
X140823700Y-102365000D01*
X136662500Y-96000000D02*
X138250000Y-97587500D01*
X136662500Y-95575000D02*
X134837500Y-93750000D01*
X138250000Y-97587500D02*
X138250000Y-100515200D01*
X136662500Y-96000000D02*
X136662500Y-95575000D01*
X134800000Y-93712500D02*
X134837500Y-93750000D01*
X134800000Y-91500000D02*
X134800000Y-93712500D01*
X138250000Y-100515200D02*
X140099800Y-102365000D01*
%TO.N,OUT2*%
X148250000Y-100590200D02*
X146475200Y-102365000D01*
X146475200Y-102365000D02*
X145751300Y-102365000D01*
X150037500Y-91750000D02*
X153080000Y-88707500D01*
X149875000Y-94000000D02*
X148250000Y-95625000D01*
X150037500Y-93837500D02*
X149875000Y-94000000D01*
X153080000Y-88707500D02*
X153080000Y-81000000D01*
X148250000Y-95625000D02*
X148250000Y-100590200D01*
X150037500Y-91750000D02*
X150037500Y-93837500D01*
%TO.N,Net-(U1-INVERT_IN2)*%
X147500000Y-102048720D02*
X147500000Y-102610200D01*
X149962500Y-96087500D02*
X148751000Y-97299000D01*
X146475200Y-103635000D02*
X145751300Y-103635000D01*
X151700000Y-94350000D02*
X149962500Y-96087500D01*
X151937500Y-93762500D02*
X151700000Y-94000000D01*
X147500000Y-102610200D02*
X146475200Y-103635000D01*
X151700000Y-94000000D02*
X151700000Y-94350000D01*
X151937500Y-91750000D02*
X151937500Y-93762500D01*
X148751000Y-97299000D02*
X148751000Y-100797721D01*
X148751000Y-100797721D02*
X147500000Y-102048720D01*
%TO.N,Net-(JP1-B)*%
X131437500Y-105500000D02*
X131437500Y-103300000D01*
X131737500Y-103000000D02*
X131737500Y-101750000D01*
X131737500Y-101750000D02*
X130537500Y-100550000D01*
X131437500Y-103300000D02*
X131737500Y-103000000D01*
%TO.N,+IN1*%
X129837500Y-105200000D02*
X130137500Y-105500000D01*
X129837500Y-102587500D02*
X128500000Y-101250000D01*
X129837500Y-103000000D02*
X129837500Y-105200000D01*
X129837500Y-103000000D02*
X129837500Y-102587500D01*
%TO.N,+IN2*%
X154000000Y-100750000D02*
X154000000Y-101750000D01*
X154087500Y-101837500D02*
X154087500Y-103000000D01*
X154087500Y-105487500D02*
X154100000Y-105500000D01*
X154087500Y-103000000D02*
X154087500Y-105487500D01*
X154000000Y-101750000D02*
X154087500Y-101837500D01*
%TO.N,Net-(JP5-A)*%
X155787500Y-100800000D02*
X155787500Y-102800000D01*
X155787500Y-102800000D02*
X155987500Y-103000000D01*
X155400000Y-105500000D02*
X155400000Y-103587500D01*
X155400000Y-103587500D02*
X155987500Y-103000000D01*
%TO.N,Net-(JP2-B)*%
X130387500Y-88500000D02*
X130387500Y-90700000D01*
X130537500Y-91450000D02*
X130087500Y-91000000D01*
X130387500Y-90700000D02*
X130087500Y-91000000D01*
X130537500Y-93200000D02*
X130537500Y-91450000D01*
%TO.N,-IN1*%
X136750000Y-87750000D02*
X136750000Y-88000000D01*
X136750000Y-88000000D02*
X136250000Y-88500000D01*
X136250000Y-88500000D02*
X131687500Y-88500000D01*
X131987500Y-88800000D02*
X131687500Y-88500000D01*
X131987500Y-91000000D02*
X131987500Y-88800000D01*
%TO.N,Net-(JP10-A)*%
X156237500Y-93000000D02*
X155787500Y-93450000D01*
X156237500Y-91000000D02*
X156237500Y-93000000D01*
X155937500Y-90700000D02*
X156237500Y-91000000D01*
X155937500Y-88500000D02*
X155937500Y-90700000D01*
%TO.N,-IN2*%
X154637500Y-88500000D02*
X154637500Y-90700000D01*
X148000000Y-81000000D02*
X149349000Y-79651000D01*
X154151000Y-79651000D02*
X154637500Y-80137500D01*
X154637500Y-80137500D02*
X154637500Y-88500000D01*
X149349000Y-79651000D02*
X154151000Y-79651000D01*
X154637500Y-90700000D02*
X154337500Y-91000000D01*
D31*
%TO.N,VREF*%
X154252880Y-96050000D02*
X154050000Y-96050000D01*
X157500000Y-99060500D02*
X156639500Y-98200000D01*
X157500000Y-105750000D02*
X157500000Y-99060500D01*
X156639500Y-98200000D02*
X155787500Y-98200000D01*
X131550000Y-97950000D02*
X132500000Y-97000000D01*
X146587500Y-90912500D02*
X146587500Y-91500000D01*
X154050000Y-96050000D02*
X153500000Y-95500000D01*
X144912500Y-91500000D02*
X146587500Y-91500000D01*
X146162500Y-86625000D02*
X149225000Y-86625000D01*
X142787500Y-83250000D02*
X140090000Y-83250000D01*
X148375000Y-107750000D02*
X150537500Y-105587500D01*
X150537500Y-105587500D02*
X152700000Y-107750000D01*
X138987500Y-107750000D02*
X148375000Y-107750000D01*
X147125000Y-90000000D02*
X147125000Y-89625000D01*
X130537500Y-97950000D02*
X131550000Y-97950000D01*
X147125000Y-90375000D02*
X146587500Y-90912500D01*
X147125000Y-90000000D02*
X147125000Y-90375000D01*
X152700000Y-107750000D02*
X155500000Y-107750000D01*
X130537500Y-95800000D02*
X130537500Y-97950000D01*
X136287500Y-105050000D02*
X138987500Y-107750000D01*
X155787500Y-96050000D02*
X154252880Y-96050000D01*
X140090000Y-83250000D02*
X137840000Y-81000000D01*
X147125000Y-89625000D02*
X146162500Y-88662500D01*
X155787500Y-98200000D02*
X155787500Y-96050000D01*
X155500000Y-107750000D02*
X157500000Y-105750000D01*
X146162500Y-86625000D02*
X142787500Y-83250000D01*
X146162500Y-88662500D02*
X146162500Y-86625000D01*
%TO.N,VCC*%
X143087500Y-93087500D02*
X143087500Y-91500000D01*
X132760000Y-82510000D02*
X132760000Y-81000000D01*
X146075000Y-96250000D02*
X146075000Y-100771300D01*
X140200000Y-89950000D02*
X132760000Y-82510000D01*
X140200000Y-91500000D02*
X140200000Y-89950000D01*
X143087500Y-91500000D02*
X140200000Y-91500000D01*
X146075000Y-96250000D02*
X146075000Y-96075000D01*
X146075000Y-96075000D02*
X143087500Y-93087500D01*
X146075000Y-100771300D02*
X145751300Y-101095000D01*
D30*
%TO.N,Net-(JP3-B)*%
X136500000Y-101912500D02*
X136500000Y-103537500D01*
X136500000Y-103537500D02*
X136287500Y-103750000D01*
%TO.N,Net-(JP4-B)*%
X150537500Y-102500000D02*
X150287500Y-102250000D01*
X150537500Y-104287500D02*
X150537500Y-102500000D01*
%TO.N,Net-(JP7-C)*%
X130537500Y-99250000D02*
X133837500Y-99250000D01*
X133837500Y-99250000D02*
X134837500Y-98250000D01*
%TO.N,Net-(JP8-C)*%
X134837500Y-96000000D02*
X133337500Y-94500000D01*
X133337500Y-94500000D02*
X130537500Y-94500000D01*
%TO.N,Net-(JP9-C)*%
X152950000Y-99500000D02*
X155787500Y-99500000D01*
X151787500Y-98337500D02*
X152950000Y-99500000D01*
%TO.N,Net-(JP10-C)*%
X151787500Y-96087500D02*
X153125000Y-94750000D01*
X153125000Y-94750000D02*
X155787500Y-94750000D01*
%TO.N,Net-(U1-NON-INVERT_IN1)*%
X136500000Y-98412500D02*
X136662500Y-98250000D01*
X136500000Y-100087500D02*
X136500000Y-98412500D01*
X136587500Y-100087500D02*
X140135000Y-103635000D01*
X136500000Y-100087500D02*
X136587500Y-100087500D01*
X140135000Y-103635000D02*
X140823700Y-103635000D01*
%TO.N,Net-(U1-NON-INVERT_IN2)*%
X149252000Y-100998000D02*
X149252000Y-101005243D01*
X149962500Y-98337500D02*
X149962500Y-100100000D01*
X148000000Y-103810000D02*
X146905000Y-104905000D01*
X149825000Y-100425000D02*
X149252000Y-100998000D01*
X150287500Y-100425000D02*
X149825000Y-100425000D01*
X148001000Y-102256241D02*
X148001000Y-102817720D01*
X149252000Y-101005243D02*
X148001000Y-102256241D01*
X148000000Y-102818720D02*
X148000000Y-103810000D01*
X149962500Y-100100000D02*
X150287500Y-100425000D01*
X146905000Y-104905000D02*
X145751300Y-104905000D01*
X148001000Y-102817720D02*
X148000000Y-102818720D01*
%TD*%
%TA.AperFunction,Conductor*%
%TO.N,GND*%
G36*
X131636936Y-79520185D02*
G01*
X131682691Y-79572989D01*
X131692635Y-79642147D01*
X131663610Y-79705703D01*
X131644208Y-79723766D01*
X131552455Y-79792452D01*
X131552452Y-79792455D01*
X131466206Y-79907664D01*
X131466202Y-79907671D01*
X131415908Y-80042517D01*
X131412585Y-80073431D01*
X131409501Y-80102123D01*
X131409500Y-80102135D01*
X131409500Y-81897870D01*
X131409501Y-81897876D01*
X131415908Y-81957483D01*
X131466202Y-82092328D01*
X131466206Y-82092335D01*
X131552452Y-82207544D01*
X131552455Y-82207547D01*
X131667664Y-82293793D01*
X131667671Y-82293797D01*
X131679340Y-82298149D01*
X131802517Y-82344091D01*
X131862127Y-82350500D01*
X131885497Y-82350499D01*
X131952536Y-82370181D01*
X131998292Y-82422983D01*
X132009500Y-82474499D01*
X132009500Y-82583918D01*
X132009500Y-82583920D01*
X132009499Y-82583920D01*
X132038340Y-82728907D01*
X132038343Y-82728917D01*
X132094914Y-82865492D01*
X132094915Y-82865494D01*
X132094916Y-82865495D01*
X132113406Y-82893168D01*
X132127812Y-82914727D01*
X132127813Y-82914730D01*
X132177046Y-82988414D01*
X132177052Y-82988421D01*
X136190595Y-87001963D01*
X136224080Y-87063286D01*
X136219096Y-87132978D01*
X136190596Y-87177325D01*
X136128210Y-87239711D01*
X136040609Y-87370814D01*
X136040602Y-87370827D01*
X135980264Y-87516498D01*
X135980261Y-87516510D01*
X135949500Y-87671153D01*
X135949500Y-87725500D01*
X135929815Y-87792539D01*
X135877011Y-87838294D01*
X135825500Y-87849500D01*
X132688913Y-87849500D01*
X132621874Y-87829815D01*
X132581526Y-87787500D01*
X132525375Y-87690243D01*
X132510730Y-87671158D01*
X132445044Y-87585555D01*
X132445041Y-87585551D01*
X132351949Y-87492459D01*
X132351944Y-87492455D01*
X132247267Y-87412132D01*
X132247249Y-87412120D01*
X132133251Y-87346303D01*
X132133250Y-87346302D01*
X132088580Y-87327799D01*
X132011329Y-87295800D01*
X131884162Y-87261725D01*
X131884161Y-87261724D01*
X131884158Y-87261724D01*
X131753333Y-87244500D01*
X131753326Y-87244500D01*
X131187500Y-87244500D01*
X131187497Y-87244500D01*
X131115561Y-87249644D01*
X131115556Y-87249645D01*
X131078235Y-87260603D01*
X131025658Y-87264363D01*
X130887501Y-87244500D01*
X130887500Y-87244500D01*
X130321674Y-87244500D01*
X130321666Y-87244500D01*
X130190841Y-87261724D01*
X130063670Y-87295800D01*
X129941749Y-87346302D01*
X129941748Y-87346303D01*
X129827750Y-87412120D01*
X129827732Y-87412132D01*
X129723055Y-87492455D01*
X129723045Y-87492464D01*
X129629964Y-87585545D01*
X129629955Y-87585555D01*
X129549632Y-87690232D01*
X129549620Y-87690250D01*
X129483803Y-87804248D01*
X129483802Y-87804249D01*
X129433300Y-87926170D01*
X129399224Y-88053341D01*
X129382000Y-88184166D01*
X129382000Y-88815833D01*
X129390635Y-88881417D01*
X129399225Y-88946662D01*
X129433300Y-89073829D01*
X129463436Y-89146584D01*
X129483802Y-89195750D01*
X129483803Y-89195751D01*
X129549620Y-89309749D01*
X129549632Y-89309767D01*
X129623543Y-89406088D01*
X129629959Y-89414449D01*
X129629964Y-89414454D01*
X129700681Y-89485171D01*
X129715384Y-89512098D01*
X129731977Y-89537917D01*
X129732868Y-89544117D01*
X129734166Y-89546494D01*
X129737000Y-89572852D01*
X129737000Y-89678130D01*
X129717315Y-89745169D01*
X129664511Y-89790924D01*
X129652005Y-89795836D01*
X129518166Y-89840186D01*
X129518163Y-89840187D01*
X129368842Y-89932289D01*
X129244789Y-90056342D01*
X129152687Y-90205663D01*
X129152685Y-90205668D01*
X129134394Y-90260868D01*
X129097501Y-90372203D01*
X129097501Y-90372204D01*
X129097500Y-90372204D01*
X129087000Y-90474983D01*
X129087000Y-91525001D01*
X129087001Y-91525019D01*
X129097500Y-91627796D01*
X129097501Y-91627799D01*
X129137500Y-91748505D01*
X129152686Y-91794334D01*
X129244788Y-91943656D01*
X129368844Y-92067712D01*
X129518166Y-92159814D01*
X129626523Y-92195720D01*
X129683967Y-92235491D01*
X129710790Y-92300007D01*
X129698475Y-92368783D01*
X129663006Y-92411799D01*
X129623057Y-92442453D01*
X129623045Y-92442464D01*
X129529964Y-92535545D01*
X129529955Y-92535555D01*
X129449632Y-92640232D01*
X129449620Y-92640250D01*
X129383803Y-92754248D01*
X129383802Y-92754249D01*
X129333300Y-92876170D01*
X129299224Y-93003341D01*
X129282000Y-93134166D01*
X129282000Y-93750002D01*
X129287145Y-93821941D01*
X129290607Y-93833732D01*
X129291970Y-93884561D01*
X129294238Y-93884805D01*
X129287001Y-93952116D01*
X129287000Y-93952135D01*
X129287000Y-95047870D01*
X129287001Y-95047874D01*
X129293409Y-95107490D01*
X129293647Y-95108494D01*
X129293738Y-95110550D01*
X129294238Y-95115194D01*
X129293947Y-95115225D01*
X129295708Y-95154652D01*
X129282000Y-95249999D01*
X129282000Y-95865833D01*
X129298933Y-95994446D01*
X129299225Y-95996662D01*
X129333300Y-96123829D01*
X129376710Y-96228630D01*
X129383802Y-96245750D01*
X129383803Y-96245751D01*
X129449620Y-96359749D01*
X129449632Y-96359767D01*
X129529955Y-96464444D01*
X129529959Y-96464449D01*
X129623051Y-96557541D01*
X129623055Y-96557544D01*
X129727732Y-96637867D01*
X129727736Y-96637869D01*
X129727743Y-96637875D01*
X129727750Y-96637879D01*
X129731116Y-96640128D01*
X129730099Y-96641649D01*
X129773200Y-96686827D01*
X129787000Y-96743678D01*
X129787000Y-97006321D01*
X129767315Y-97073360D01*
X129730311Y-97108647D01*
X129731125Y-97109865D01*
X129727739Y-97112127D01*
X129623055Y-97192455D01*
X129623045Y-97192464D01*
X129529964Y-97285545D01*
X129529955Y-97285555D01*
X129449632Y-97390232D01*
X129449620Y-97390250D01*
X129383803Y-97504248D01*
X129383802Y-97504249D01*
X129333300Y-97626170D01*
X129299224Y-97753341D01*
X129282000Y-97884166D01*
X129282000Y-98500002D01*
X129287145Y-98571941D01*
X129290607Y-98583732D01*
X129291970Y-98634561D01*
X129294238Y-98634805D01*
X129287001Y-98702116D01*
X129287000Y-98702135D01*
X129287000Y-99797870D01*
X129287001Y-99797874D01*
X129293409Y-99857490D01*
X129293647Y-99858494D01*
X129293738Y-99860550D01*
X129294238Y-99865194D01*
X129293947Y-99865225D01*
X129295708Y-99904652D01*
X129282000Y-99999999D01*
X129282000Y-100600559D01*
X129262315Y-100667598D01*
X129209511Y-100713353D01*
X129140353Y-100723297D01*
X129076797Y-100694272D01*
X129070319Y-100688240D01*
X129010292Y-100628213D01*
X129010288Y-100628210D01*
X128879185Y-100540609D01*
X128879172Y-100540602D01*
X128733501Y-100480264D01*
X128733489Y-100480261D01*
X128578845Y-100449500D01*
X128578842Y-100449500D01*
X128421158Y-100449500D01*
X128421155Y-100449500D01*
X128266510Y-100480261D01*
X128266498Y-100480264D01*
X128120827Y-100540602D01*
X128120814Y-100540609D01*
X127989711Y-100628210D01*
X127989707Y-100628213D01*
X127878213Y-100739707D01*
X127878210Y-100739711D01*
X127790609Y-100870814D01*
X127790602Y-100870827D01*
X127730264Y-101016498D01*
X127730261Y-101016510D01*
X127699500Y-101171153D01*
X127699500Y-101328846D01*
X127730261Y-101483489D01*
X127730264Y-101483501D01*
X127790602Y-101629172D01*
X127790609Y-101629185D01*
X127878210Y-101760288D01*
X127878213Y-101760292D01*
X127989707Y-101871786D01*
X127989711Y-101871789D01*
X128120814Y-101959390D01*
X128120827Y-101959397D01*
X128196674Y-101990813D01*
X128266503Y-102019737D01*
X128333580Y-102033079D01*
X128395490Y-102065463D01*
X128397069Y-102067015D01*
X128800681Y-102470627D01*
X128834166Y-102531950D01*
X128837000Y-102558308D01*
X128837000Y-103525001D01*
X128837001Y-103525019D01*
X128847500Y-103627796D01*
X128847501Y-103627799D01*
X128902685Y-103794331D01*
X128902687Y-103794336D01*
X128931931Y-103841748D01*
X128994788Y-103943656D01*
X129118844Y-104067712D01*
X129128091Y-104073416D01*
X129174818Y-104125360D01*
X129187000Y-104178957D01*
X129187000Y-104896037D01*
X129182775Y-104928129D01*
X129169348Y-104978241D01*
X129149224Y-105053341D01*
X129132000Y-105184166D01*
X129132000Y-105815833D01*
X129149224Y-105946658D01*
X129183300Y-106073829D01*
X129233802Y-106195750D01*
X129233803Y-106195751D01*
X129299620Y-106309749D01*
X129299632Y-106309767D01*
X129379955Y-106414444D01*
X129379959Y-106414449D01*
X129473051Y-106507541D01*
X129473055Y-106507544D01*
X129577732Y-106587867D01*
X129577736Y-106587869D01*
X129577743Y-106587875D01*
X129577750Y-106587879D01*
X129691748Y-106653696D01*
X129691749Y-106653697D01*
X129691752Y-106653698D01*
X129691757Y-106653701D01*
X129813671Y-106704200D01*
X129940838Y-106738275D01*
X130071674Y-106755500D01*
X130071681Y-106755500D01*
X130637500Y-106755500D01*
X130709440Y-106750355D01*
X130746759Y-106739396D01*
X130799341Y-106735636D01*
X130937500Y-106755500D01*
X130937503Y-106755500D01*
X131503319Y-106755500D01*
X131503326Y-106755500D01*
X131634162Y-106738275D01*
X131761329Y-106704200D01*
X131883243Y-106653701D01*
X131997257Y-106587875D01*
X132101949Y-106507541D01*
X132195041Y-106414449D01*
X132275375Y-106309757D01*
X132341201Y-106195743D01*
X132391700Y-106073829D01*
X132425775Y-105946662D01*
X132443000Y-105815826D01*
X132443000Y-105184174D01*
X132425775Y-105053338D01*
X132391700Y-104926171D01*
X132341201Y-104804257D01*
X132341198Y-104804252D01*
X132341197Y-104804249D01*
X132341196Y-104804248D01*
X132275379Y-104690250D01*
X132275375Y-104690243D01*
X132195041Y-104585551D01*
X132124319Y-104514829D01*
X132109615Y-104487901D01*
X132093023Y-104462083D01*
X132092131Y-104455882D01*
X132090834Y-104453506D01*
X132088000Y-104427148D01*
X132088000Y-104321869D01*
X132107685Y-104254830D01*
X132160489Y-104209075D01*
X132172986Y-104204166D01*
X132306834Y-104159814D01*
X132456156Y-104067712D01*
X132580212Y-103943656D01*
X132672314Y-103794334D01*
X132727499Y-103627797D01*
X132738000Y-103525009D01*
X132737999Y-102474992D01*
X132727499Y-102372203D01*
X132672314Y-102205666D01*
X132580212Y-102056344D01*
X132456156Y-101932288D01*
X132456155Y-101932287D01*
X132446902Y-101926580D01*
X132400178Y-101874632D01*
X132388000Y-101821042D01*
X132388000Y-101685928D01*
X132363002Y-101560261D01*
X132363001Y-101560260D01*
X132363001Y-101560256D01*
X132345847Y-101518842D01*
X132313968Y-101441878D01*
X132313965Y-101441873D01*
X132311378Y-101438001D01*
X132311377Y-101438000D01*
X132292382Y-101409572D01*
X132242774Y-101335327D01*
X132242771Y-101335324D01*
X131800686Y-100893240D01*
X131767201Y-100831917D01*
X131768593Y-100773464D01*
X131775775Y-100746662D01*
X131793000Y-100615826D01*
X131793000Y-100024500D01*
X131812685Y-99957461D01*
X131865489Y-99911706D01*
X131917000Y-99900500D01*
X133901571Y-99900500D01*
X133986115Y-99883682D01*
X134027244Y-99875501D01*
X134145627Y-99826465D01*
X134185985Y-99799499D01*
X134252169Y-99755277D01*
X134520628Y-99486816D01*
X134581949Y-99453333D01*
X134608308Y-99450499D01*
X135150002Y-99450499D01*
X135150008Y-99450499D01*
X135201087Y-99445281D01*
X135269779Y-99458050D01*
X135320663Y-99505931D01*
X135337584Y-99573721D01*
X135331394Y-99607642D01*
X135310001Y-99672200D01*
X135310000Y-99672204D01*
X135299500Y-99774983D01*
X135299500Y-100400001D01*
X135299501Y-100400019D01*
X135310000Y-100502796D01*
X135310001Y-100502799D01*
X135337562Y-100585971D01*
X135365186Y-100669334D01*
X135433708Y-100780427D01*
X135457289Y-100818657D01*
X135550951Y-100912319D01*
X135584436Y-100973642D01*
X135579452Y-101043334D01*
X135550951Y-101087681D01*
X135457289Y-101181342D01*
X135365187Y-101330663D01*
X135365185Y-101330668D01*
X135362921Y-101337500D01*
X135310001Y-101497203D01*
X135310001Y-101497204D01*
X135310000Y-101497204D01*
X135299500Y-101599983D01*
X135299500Y-102225001D01*
X135299501Y-102225019D01*
X135310000Y-102327796D01*
X135310001Y-102327799D01*
X135365185Y-102494331D01*
X135365187Y-102494336D01*
X135457289Y-102643657D01*
X135520709Y-102707077D01*
X135554194Y-102768400D01*
X135549210Y-102838092D01*
X135507338Y-102894025D01*
X135495030Y-102902144D01*
X135477749Y-102912121D01*
X135477732Y-102912132D01*
X135373055Y-102992455D01*
X135373045Y-102992464D01*
X135279964Y-103085545D01*
X135279955Y-103085555D01*
X135199632Y-103190232D01*
X135199620Y-103190250D01*
X135133803Y-103304248D01*
X135133802Y-103304249D01*
X135083300Y-103426170D01*
X135049224Y-103553341D01*
X135032000Y-103684166D01*
X135032000Y-104250002D01*
X135037144Y-104321939D01*
X135048103Y-104359262D01*
X135051863Y-104411841D01*
X135032000Y-104549998D01*
X135032000Y-105115833D01*
X135049224Y-105246658D01*
X135083300Y-105373829D01*
X135133802Y-105495750D01*
X135133803Y-105495751D01*
X135199620Y-105609749D01*
X135199632Y-105609767D01*
X135267889Y-105698719D01*
X135279959Y-105714449D01*
X135373051Y-105807541D01*
X135373055Y-105807544D01*
X135477732Y-105887867D01*
X135477736Y-105887869D01*
X135477743Y-105887875D01*
X135477750Y-105887879D01*
X135591748Y-105953696D01*
X135591749Y-105953697D01*
X135591752Y-105953698D01*
X135591757Y-105953701D01*
X135713671Y-106004200D01*
X135840838Y-106038275D01*
X135971674Y-106055500D01*
X136180270Y-106055500D01*
X136247309Y-106075185D01*
X136267951Y-106091819D01*
X137337709Y-107161576D01*
X138404549Y-108228416D01*
X138463952Y-108287819D01*
X138497436Y-108349143D01*
X138492451Y-108418835D01*
X138450580Y-108474768D01*
X138385115Y-108499184D01*
X138376270Y-108499500D01*
X126003751Y-108499500D01*
X125996264Y-108499274D01*
X125706205Y-108481728D01*
X125691340Y-108479923D01*
X125409201Y-108428219D01*
X125394663Y-108424635D01*
X125120832Y-108339306D01*
X125106831Y-108333997D01*
X124845263Y-108216275D01*
X124832004Y-108209316D01*
X124586540Y-108060928D01*
X124574217Y-108052422D01*
X124348426Y-107875526D01*
X124337218Y-107865596D01*
X124134403Y-107662781D01*
X124124473Y-107651573D01*
X123947573Y-107425776D01*
X123939075Y-107413465D01*
X123790680Y-107167989D01*
X123783727Y-107154743D01*
X123666000Y-106893163D01*
X123660693Y-106879167D01*
X123630049Y-106780828D01*
X123575363Y-106605335D01*
X123571780Y-106590798D01*
X123554998Y-106499223D01*
X123520075Y-106308657D01*
X123518271Y-106293794D01*
X123500952Y-106007472D01*
X123500952Y-105992527D01*
X123506691Y-105897648D01*
X124699500Y-105897648D01*
X124699500Y-106102351D01*
X124731522Y-106304534D01*
X124794781Y-106499223D01*
X124887715Y-106681613D01*
X125008028Y-106847213D01*
X125152786Y-106991971D01*
X125307749Y-107104556D01*
X125318390Y-107112287D01*
X125401701Y-107154736D01*
X125500776Y-107205218D01*
X125500778Y-107205218D01*
X125500781Y-107205220D01*
X125605137Y-107239127D01*
X125695465Y-107268477D01*
X125796557Y-107284488D01*
X125897648Y-107300500D01*
X125897649Y-107300500D01*
X126102351Y-107300500D01*
X126102352Y-107300500D01*
X126304534Y-107268477D01*
X126499219Y-107205220D01*
X126681610Y-107112287D01*
X126774590Y-107044732D01*
X126847213Y-106991971D01*
X126847215Y-106991968D01*
X126847219Y-106991966D01*
X126991966Y-106847219D01*
X126991968Y-106847215D01*
X126991971Y-106847213D01*
X127058604Y-106755499D01*
X127112287Y-106681610D01*
X127205220Y-106499219D01*
X127268477Y-106304534D01*
X127300500Y-106102352D01*
X127300500Y-105897648D01*
X127298951Y-105887867D01*
X127268477Y-105695465D01*
X127228182Y-105571451D01*
X127205220Y-105500781D01*
X127205218Y-105500778D01*
X127205218Y-105500776D01*
X127162638Y-105417210D01*
X127112287Y-105318390D01*
X127078906Y-105272444D01*
X126991971Y-105152786D01*
X126847213Y-105008028D01*
X126681613Y-104887715D01*
X126681612Y-104887714D01*
X126681610Y-104887713D01*
X126624653Y-104858691D01*
X126499223Y-104794781D01*
X126304534Y-104731522D01*
X126129995Y-104703878D01*
X126102352Y-104699500D01*
X125897648Y-104699500D01*
X125873329Y-104703351D01*
X125695465Y-104731522D01*
X125500776Y-104794781D01*
X125318386Y-104887715D01*
X125152786Y-105008028D01*
X125008028Y-105152786D01*
X124887715Y-105318386D01*
X124794781Y-105500776D01*
X124731522Y-105695465D01*
X124699500Y-105897648D01*
X123506691Y-105897648D01*
X123518271Y-105706201D01*
X123520076Y-105691340D01*
X123527043Y-105653326D01*
X123571780Y-105409197D01*
X123575364Y-105394663D01*
X123621483Y-105246662D01*
X123660696Y-105120822D01*
X123665998Y-105106841D01*
X123783731Y-104845249D01*
X123790676Y-104832016D01*
X123939080Y-104586526D01*
X123947567Y-104574230D01*
X124124480Y-104348417D01*
X124134395Y-104337226D01*
X124337226Y-104134395D01*
X124348417Y-104124480D01*
X124574230Y-103947567D01*
X124586526Y-103939080D01*
X124832016Y-103790676D01*
X124845249Y-103783731D01*
X125106841Y-103665998D01*
X125120822Y-103660696D01*
X125394668Y-103575362D01*
X125409197Y-103571780D01*
X125691344Y-103520075D01*
X125706201Y-103518271D01*
X125996264Y-103500726D01*
X126003751Y-103500500D01*
X126065890Y-103500500D01*
X126065892Y-103500500D01*
X126193186Y-103466392D01*
X126307314Y-103400500D01*
X126400500Y-103307314D01*
X126466392Y-103193186D01*
X126500500Y-103065892D01*
X126500500Y-102934108D01*
X126500500Y-84934108D01*
X126466392Y-84806814D01*
X126400500Y-84692686D01*
X126307314Y-84599500D01*
X126250250Y-84566554D01*
X126193187Y-84533608D01*
X126129539Y-84516554D01*
X126065892Y-84499500D01*
X126065891Y-84499500D01*
X126003751Y-84499500D01*
X125996264Y-84499274D01*
X125706205Y-84481728D01*
X125691340Y-84479923D01*
X125409201Y-84428219D01*
X125394663Y-84424635D01*
X125120832Y-84339306D01*
X125106831Y-84333997D01*
X124845263Y-84216275D01*
X124832004Y-84209316D01*
X124586540Y-84060928D01*
X124574217Y-84052422D01*
X124554301Y-84036819D01*
X124348426Y-83875526D01*
X124337218Y-83865596D01*
X124134403Y-83662781D01*
X124124473Y-83651573D01*
X123947573Y-83425776D01*
X123939075Y-83413465D01*
X123790680Y-83167989D01*
X123783727Y-83154743D01*
X123666000Y-82893163D01*
X123660693Y-82879167D01*
X123594595Y-82667052D01*
X123575363Y-82605335D01*
X123571780Y-82590798D01*
X123570519Y-82583918D01*
X123520075Y-82308657D01*
X123518271Y-82293794D01*
X123515412Y-82246532D01*
X123500952Y-82007472D01*
X123500952Y-81992527D01*
X123506691Y-81897648D01*
X124699500Y-81897648D01*
X124699500Y-82102351D01*
X124731522Y-82304534D01*
X124794781Y-82499223D01*
X124830958Y-82570223D01*
X124880295Y-82667052D01*
X124887715Y-82681613D01*
X125008028Y-82847213D01*
X125152786Y-82991971D01*
X125307749Y-83104556D01*
X125318390Y-83112287D01*
X125401701Y-83154736D01*
X125500776Y-83205218D01*
X125500778Y-83205218D01*
X125500781Y-83205220D01*
X125605137Y-83239127D01*
X125695465Y-83268477D01*
X125796557Y-83284488D01*
X125897648Y-83300500D01*
X125897649Y-83300500D01*
X126102351Y-83300500D01*
X126102352Y-83300500D01*
X126304534Y-83268477D01*
X126499219Y-83205220D01*
X126681610Y-83112287D01*
X126774590Y-83044732D01*
X126847213Y-82991971D01*
X126847215Y-82991968D01*
X126847219Y-82991966D01*
X126991966Y-82847219D01*
X126991968Y-82847215D01*
X126991971Y-82847213D01*
X127044732Y-82774590D01*
X127112287Y-82681610D01*
X127205220Y-82499219D01*
X127268477Y-82304534D01*
X127300500Y-82102352D01*
X127300500Y-81897648D01*
X127268477Y-81695465D01*
X127210949Y-81518414D01*
X127205220Y-81500781D01*
X127205218Y-81500778D01*
X127205218Y-81500776D01*
X127171503Y-81434607D01*
X127112287Y-81318390D01*
X127104556Y-81307749D01*
X126991971Y-81152786D01*
X126847213Y-81008028D01*
X126681613Y-80887715D01*
X126681612Y-80887714D01*
X126681610Y-80887713D01*
X126624653Y-80858691D01*
X126499223Y-80794781D01*
X126304534Y-80731522D01*
X126129995Y-80703878D01*
X126102352Y-80699500D01*
X125897648Y-80699500D01*
X125873329Y-80703351D01*
X125695465Y-80731522D01*
X125500776Y-80794781D01*
X125318386Y-80887715D01*
X125152786Y-81008028D01*
X125008028Y-81152786D01*
X124887715Y-81318386D01*
X124794781Y-81500776D01*
X124731522Y-81695465D01*
X124699500Y-81897648D01*
X123506691Y-81897648D01*
X123518271Y-81706201D01*
X123520076Y-81691340D01*
X123551767Y-81518412D01*
X123571780Y-81409197D01*
X123575364Y-81394663D01*
X123650736Y-81152786D01*
X123660696Y-81120822D01*
X123665998Y-81106841D01*
X123783731Y-80845249D01*
X123790676Y-80832016D01*
X123939080Y-80586526D01*
X123947567Y-80574230D01*
X124124480Y-80348417D01*
X124134395Y-80337226D01*
X124337226Y-80134395D01*
X124348417Y-80124480D01*
X124574230Y-79947567D01*
X124586526Y-79939080D01*
X124832016Y-79790676D01*
X124845249Y-79783731D01*
X125106841Y-79665998D01*
X125120822Y-79660696D01*
X125394668Y-79575362D01*
X125409197Y-79571780D01*
X125691344Y-79520075D01*
X125706201Y-79518271D01*
X125996264Y-79500726D01*
X126003751Y-79500500D01*
X126065892Y-79500500D01*
X131569897Y-79500500D01*
X131636936Y-79520185D01*
G37*
%TD.AperFunction*%
%TA.AperFunction,Conductor*%
G36*
X150580834Y-106708048D02*
G01*
X150625181Y-106736549D01*
X152176451Y-108287819D01*
X152209936Y-108349142D01*
X152204952Y-108418834D01*
X152163080Y-108474767D01*
X152097616Y-108499184D01*
X152088770Y-108499500D01*
X148986230Y-108499500D01*
X148919191Y-108479815D01*
X148873436Y-108427011D01*
X148863492Y-108357853D01*
X148892517Y-108294297D01*
X148898549Y-108287819D01*
X150449819Y-106736549D01*
X150511142Y-106703064D01*
X150580834Y-106708048D01*
G37*
%TD.AperFunction*%
%TA.AperFunction,Conductor*%
G36*
X160003736Y-79500726D02*
G01*
X160293796Y-79518271D01*
X160308657Y-79520075D01*
X160579933Y-79569789D01*
X160590798Y-79571780D01*
X160605335Y-79575363D01*
X160879172Y-79660695D01*
X160893163Y-79666000D01*
X161154743Y-79783727D01*
X161167989Y-79790680D01*
X161413465Y-79939075D01*
X161425776Y-79947573D01*
X161651573Y-80124473D01*
X161662781Y-80134403D01*
X161865596Y-80337218D01*
X161875526Y-80348426D01*
X161995481Y-80501538D01*
X162052422Y-80574217D01*
X162060926Y-80586537D01*
X162148573Y-80731523D01*
X162209316Y-80832004D01*
X162216275Y-80845263D01*
X162333997Y-81106831D01*
X162339306Y-81120832D01*
X162424635Y-81394663D01*
X162428219Y-81409201D01*
X162479923Y-81691340D01*
X162481728Y-81706205D01*
X162499047Y-81992513D01*
X162499047Y-82007487D01*
X162481728Y-82293794D01*
X162479923Y-82308659D01*
X162428219Y-82590798D01*
X162424635Y-82605336D01*
X162339306Y-82879167D01*
X162333997Y-82893168D01*
X162216275Y-83154736D01*
X162209316Y-83167995D01*
X162060928Y-83413459D01*
X162052422Y-83425782D01*
X161875526Y-83651573D01*
X161865596Y-83662781D01*
X161662781Y-83865596D01*
X161651573Y-83875526D01*
X161425782Y-84052422D01*
X161413459Y-84060928D01*
X161167995Y-84209316D01*
X161154736Y-84216275D01*
X160893168Y-84333997D01*
X160879167Y-84339306D01*
X160605336Y-84424635D01*
X160590798Y-84428219D01*
X160308659Y-84479923D01*
X160293794Y-84481728D01*
X160003736Y-84499274D01*
X159996249Y-84499500D01*
X159934108Y-84499500D01*
X159806812Y-84533608D01*
X159692686Y-84599500D01*
X159692683Y-84599502D01*
X159599502Y-84692683D01*
X159599500Y-84692686D01*
X159533608Y-84806812D01*
X159499500Y-84934108D01*
X159499500Y-103065891D01*
X159533608Y-103193187D01*
X159535990Y-103197312D01*
X159599500Y-103307314D01*
X159692686Y-103400500D01*
X159806814Y-103466392D01*
X159934108Y-103500500D01*
X159996249Y-103500500D01*
X160003736Y-103500726D01*
X160293796Y-103518271D01*
X160308657Y-103520075D01*
X160362616Y-103529964D01*
X160590798Y-103571780D01*
X160605335Y-103575363D01*
X160879172Y-103660695D01*
X160893163Y-103666000D01*
X161154743Y-103783727D01*
X161167989Y-103790680D01*
X161413465Y-103939075D01*
X161425776Y-103947573D01*
X161492368Y-103999744D01*
X161651573Y-104124473D01*
X161662781Y-104134403D01*
X161865596Y-104337218D01*
X161875526Y-104348426D01*
X161933811Y-104422821D01*
X162033447Y-104549998D01*
X162052422Y-104574217D01*
X162060926Y-104586537D01*
X162192542Y-104804257D01*
X162209316Y-104832004D01*
X162216275Y-104845263D01*
X162333997Y-105106831D01*
X162339306Y-105120832D01*
X162424635Y-105394663D01*
X162428219Y-105409201D01*
X162479923Y-105691340D01*
X162481728Y-105706205D01*
X162499047Y-105992513D01*
X162499047Y-106007487D01*
X162481728Y-106293794D01*
X162479923Y-106308659D01*
X162428219Y-106590798D01*
X162424635Y-106605336D01*
X162339306Y-106879167D01*
X162333997Y-106893168D01*
X162216275Y-107154736D01*
X162209316Y-107167995D01*
X162060928Y-107413459D01*
X162052422Y-107425782D01*
X161875526Y-107651573D01*
X161865596Y-107662781D01*
X161662781Y-107865596D01*
X161651573Y-107875526D01*
X161425782Y-108052422D01*
X161413459Y-108060928D01*
X161167995Y-108209316D01*
X161154736Y-108216275D01*
X160893168Y-108333997D01*
X160879167Y-108339306D01*
X160605336Y-108424635D01*
X160590798Y-108428219D01*
X160308659Y-108479923D01*
X160293794Y-108481728D01*
X160003736Y-108499274D01*
X159996249Y-108499500D01*
X156111230Y-108499500D01*
X156044191Y-108479815D01*
X155998436Y-108427011D01*
X155988492Y-108357853D01*
X156017517Y-108294297D01*
X156023549Y-108287819D01*
X158082948Y-106228419D01*
X158082949Y-106228418D01*
X158082948Y-106228418D01*
X158082951Y-106228416D01*
X158106491Y-106193186D01*
X158165084Y-106105495D01*
X158221658Y-105968913D01*
X158235834Y-105897648D01*
X158699500Y-105897648D01*
X158699500Y-106102351D01*
X158731522Y-106304534D01*
X158794781Y-106499223D01*
X158887715Y-106681613D01*
X159008028Y-106847213D01*
X159152786Y-106991971D01*
X159307749Y-107104556D01*
X159318390Y-107112287D01*
X159401701Y-107154736D01*
X159500776Y-107205218D01*
X159500778Y-107205218D01*
X159500781Y-107205220D01*
X159605137Y-107239127D01*
X159695465Y-107268477D01*
X159796557Y-107284488D01*
X159897648Y-107300500D01*
X159897649Y-107300500D01*
X160102351Y-107300500D01*
X160102352Y-107300500D01*
X160304534Y-107268477D01*
X160499219Y-107205220D01*
X160681610Y-107112287D01*
X160774590Y-107044732D01*
X160847213Y-106991971D01*
X160847215Y-106991968D01*
X160847219Y-106991966D01*
X160991966Y-106847219D01*
X160991968Y-106847215D01*
X160991971Y-106847213D01*
X161058604Y-106755499D01*
X161112287Y-106681610D01*
X161205220Y-106499219D01*
X161268477Y-106304534D01*
X161300500Y-106102352D01*
X161300500Y-105897648D01*
X161298951Y-105887867D01*
X161268477Y-105695465D01*
X161228182Y-105571451D01*
X161205220Y-105500781D01*
X161205218Y-105500778D01*
X161205218Y-105500776D01*
X161162638Y-105417210D01*
X161112287Y-105318390D01*
X161078906Y-105272444D01*
X160991971Y-105152786D01*
X160847213Y-105008028D01*
X160681613Y-104887715D01*
X160681612Y-104887714D01*
X160681610Y-104887713D01*
X160624653Y-104858691D01*
X160499223Y-104794781D01*
X160304534Y-104731522D01*
X160129995Y-104703878D01*
X160102352Y-104699500D01*
X159897648Y-104699500D01*
X159873329Y-104703351D01*
X159695465Y-104731522D01*
X159500776Y-104794781D01*
X159318386Y-104887715D01*
X159152786Y-105008028D01*
X159008028Y-105152786D01*
X158887715Y-105318386D01*
X158794781Y-105500776D01*
X158731522Y-105695465D01*
X158699500Y-105897648D01*
X158235834Y-105897648D01*
X158241616Y-105868584D01*
X158241616Y-105868583D01*
X158250499Y-105823922D01*
X158250500Y-105823920D01*
X158250500Y-98986579D01*
X158221659Y-98841592D01*
X158221658Y-98841591D01*
X158221658Y-98841587D01*
X158165084Y-98705005D01*
X158123289Y-98642454D01*
X158123288Y-98642452D01*
X158123287Y-98642450D01*
X158082953Y-98582085D01*
X158082947Y-98582078D01*
X157117921Y-97617052D01*
X157117914Y-97617046D01*
X157018318Y-97550499D01*
X157018317Y-97550499D01*
X156994995Y-97534916D01*
X156994988Y-97534912D01*
X156858417Y-97478343D01*
X156858407Y-97478340D01*
X156738678Y-97454524D01*
X156727454Y-97449473D01*
X156718748Y-97448791D01*
X156688848Y-97432100D01*
X156687886Y-97431667D01*
X156687768Y-97431578D01*
X156597257Y-97362125D01*
X156593235Y-97359802D01*
X156587016Y-97355081D01*
X156570714Y-97332992D01*
X156551777Y-97313127D01*
X156549684Y-97304498D01*
X156545526Y-97298864D01*
X156544510Y-97283165D01*
X156538000Y-97256321D01*
X156538000Y-96993678D01*
X156557685Y-96926639D01*
X156594701Y-96891352D01*
X156593884Y-96890128D01*
X156597242Y-96887883D01*
X156597257Y-96887875D01*
X156701949Y-96807541D01*
X156795041Y-96714449D01*
X156875375Y-96609757D01*
X156941201Y-96495743D01*
X156991700Y-96373829D01*
X157025775Y-96246662D01*
X157043000Y-96115826D01*
X157043000Y-95500000D01*
X157037855Y-95428060D01*
X157034392Y-95416269D01*
X157033039Y-95365441D01*
X157030761Y-95365197D01*
X157031589Y-95357485D01*
X157031591Y-95357483D01*
X157038000Y-95297873D01*
X157037999Y-94202128D01*
X157031591Y-94142517D01*
X157031589Y-94142513D01*
X157031353Y-94141511D01*
X157031260Y-94139442D01*
X157030762Y-94134804D01*
X157031052Y-94134772D01*
X157029291Y-94095346D01*
X157043000Y-94000000D01*
X157043000Y-93384174D01*
X157025775Y-93253338D01*
X156991700Y-93126171D01*
X156941201Y-93004257D01*
X156941198Y-93004252D01*
X156941197Y-93004249D01*
X156941196Y-93004248D01*
X156904613Y-92940884D01*
X156888000Y-92878884D01*
X156888000Y-92178957D01*
X156907685Y-92111918D01*
X156946907Y-92073416D01*
X156956156Y-92067712D01*
X157080212Y-91943656D01*
X157172314Y-91794334D01*
X157227499Y-91627797D01*
X157238000Y-91525009D01*
X157237999Y-90474992D01*
X157234335Y-90439128D01*
X157227499Y-90372203D01*
X157227498Y-90372200D01*
X157225173Y-90365184D01*
X157172314Y-90205666D01*
X157080212Y-90056344D01*
X156956156Y-89932288D01*
X156862680Y-89874632D01*
X156806836Y-89840187D01*
X156806835Y-89840186D01*
X156806834Y-89840186D01*
X156672995Y-89795836D01*
X156652961Y-89781965D01*
X156630797Y-89771843D01*
X156624748Y-89762431D01*
X156615551Y-89756063D01*
X156606197Y-89733564D01*
X156593023Y-89713065D01*
X156590564Y-89695963D01*
X156588728Y-89691547D01*
X156588000Y-89678130D01*
X156588000Y-89572852D01*
X156607685Y-89505813D01*
X156624319Y-89485171D01*
X156637906Y-89471584D01*
X156695041Y-89414449D01*
X156775375Y-89309757D01*
X156841201Y-89195743D01*
X156891700Y-89073829D01*
X156925775Y-88946662D01*
X156943000Y-88815826D01*
X156943000Y-88184174D01*
X156925775Y-88053338D01*
X156891700Y-87926171D01*
X156841201Y-87804257D01*
X156841198Y-87804252D01*
X156841197Y-87804249D01*
X156841196Y-87804248D01*
X156775379Y-87690250D01*
X156775378Y-87690249D01*
X156775375Y-87690243D01*
X156760730Y-87671158D01*
X156695044Y-87585555D01*
X156695041Y-87585551D01*
X156601949Y-87492459D01*
X156601944Y-87492455D01*
X156497267Y-87412132D01*
X156497249Y-87412120D01*
X156383251Y-87346303D01*
X156383250Y-87346302D01*
X156338580Y-87327799D01*
X156261329Y-87295800D01*
X156134162Y-87261725D01*
X156134161Y-87261724D01*
X156134158Y-87261724D01*
X156003333Y-87244500D01*
X156003326Y-87244500D01*
X155437500Y-87244500D01*
X155431870Y-87244902D01*
X155420839Y-87245691D01*
X155352567Y-87230835D01*
X155303165Y-87181427D01*
X155288000Y-87122006D01*
X155288000Y-81897648D01*
X158699500Y-81897648D01*
X158699500Y-82102351D01*
X158731522Y-82304534D01*
X158794781Y-82499223D01*
X158830958Y-82570223D01*
X158880295Y-82667052D01*
X158887715Y-82681613D01*
X159008028Y-82847213D01*
X159152786Y-82991971D01*
X159307749Y-83104556D01*
X159318390Y-83112287D01*
X159401701Y-83154736D01*
X159500776Y-83205218D01*
X159500778Y-83205218D01*
X159500781Y-83205220D01*
X159605137Y-83239127D01*
X159695465Y-83268477D01*
X159796557Y-83284488D01*
X159897648Y-83300500D01*
X159897649Y-83300500D01*
X160102351Y-83300500D01*
X160102352Y-83300500D01*
X160304534Y-83268477D01*
X160499219Y-83205220D01*
X160681610Y-83112287D01*
X160774590Y-83044732D01*
X160847213Y-82991971D01*
X160847215Y-82991968D01*
X160847219Y-82991966D01*
X160991966Y-82847219D01*
X160991968Y-82847215D01*
X160991971Y-82847213D01*
X161044732Y-82774590D01*
X161112287Y-82681610D01*
X161205220Y-82499219D01*
X161268477Y-82304534D01*
X161300500Y-82102352D01*
X161300500Y-81897648D01*
X161268477Y-81695465D01*
X161210949Y-81518414D01*
X161205220Y-81500781D01*
X161205218Y-81500778D01*
X161205218Y-81500776D01*
X161171503Y-81434607D01*
X161112287Y-81318390D01*
X161104556Y-81307749D01*
X160991971Y-81152786D01*
X160847213Y-81008028D01*
X160681613Y-80887715D01*
X160681612Y-80887714D01*
X160681610Y-80887713D01*
X160624653Y-80858691D01*
X160499223Y-80794781D01*
X160304534Y-80731522D01*
X160129995Y-80703878D01*
X160102352Y-80699500D01*
X159897648Y-80699500D01*
X159873329Y-80703351D01*
X159695465Y-80731522D01*
X159500776Y-80794781D01*
X159318386Y-80887715D01*
X159152786Y-81008028D01*
X159008028Y-81152786D01*
X158887715Y-81318386D01*
X158794781Y-81500776D01*
X158731522Y-81695465D01*
X158699500Y-81897648D01*
X155288000Y-81897648D01*
X155288000Y-80073428D01*
X155263002Y-79947761D01*
X155263001Y-79947760D01*
X155263001Y-79947756D01*
X155213965Y-79829373D01*
X155185521Y-79786803D01*
X155185521Y-79786802D01*
X155142775Y-79722828D01*
X155132128Y-79712181D01*
X155098643Y-79650858D01*
X155103627Y-79581166D01*
X155145499Y-79525233D01*
X155210963Y-79500816D01*
X155219809Y-79500500D01*
X159934108Y-79500500D01*
X159996249Y-79500500D01*
X160003736Y-79500726D01*
G37*
%TD.AperFunction*%
%TA.AperFunction,Conductor*%
G36*
X138495687Y-89309575D02*
G01*
X138511761Y-89323129D01*
X139413181Y-90224549D01*
X139427884Y-90251476D01*
X139444477Y-90277295D01*
X139445368Y-90283495D01*
X139446666Y-90285872D01*
X139449500Y-90312230D01*
X139449500Y-90412770D01*
X139429815Y-90479809D01*
X139413181Y-90500451D01*
X139357289Y-90556342D01*
X139265187Y-90705663D01*
X139265185Y-90705668D01*
X139250661Y-90749500D01*
X139210001Y-90872203D01*
X139210001Y-90872204D01*
X139210000Y-90872204D01*
X139199500Y-90974983D01*
X139199500Y-92025001D01*
X139199501Y-92025019D01*
X139210000Y-92127796D01*
X139210001Y-92127799D01*
X139265185Y-92294331D01*
X139265187Y-92294336D01*
X139281511Y-92320802D01*
X139357288Y-92443656D01*
X139481344Y-92567712D01*
X139630666Y-92659814D01*
X139797203Y-92714999D01*
X139899991Y-92725500D01*
X140500008Y-92725499D01*
X140500016Y-92725498D01*
X140500019Y-92725498D01*
X140556302Y-92719748D01*
X140602797Y-92714999D01*
X140769334Y-92659814D01*
X140918656Y-92567712D01*
X141042712Y-92443656D01*
X141125519Y-92309402D01*
X141177467Y-92262679D01*
X141231058Y-92250500D01*
X142059362Y-92250500D01*
X142126401Y-92270185D01*
X142164899Y-92309401D01*
X142228046Y-92411778D01*
X142232289Y-92418657D01*
X142300681Y-92487049D01*
X142334166Y-92548372D01*
X142337000Y-92574730D01*
X142337000Y-93161418D01*
X142337000Y-93161420D01*
X142336999Y-93161420D01*
X142365840Y-93306407D01*
X142365843Y-93306417D01*
X142422414Y-93442992D01*
X142439102Y-93467967D01*
X142439103Y-93467970D01*
X142504546Y-93565914D01*
X142504552Y-93565921D01*
X144038680Y-95100048D01*
X144072165Y-95161371D01*
X144067181Y-95231063D01*
X144056538Y-95252825D01*
X143977689Y-95380659D01*
X143977685Y-95380668D01*
X143961981Y-95428060D01*
X143922501Y-95547203D01*
X143922501Y-95547204D01*
X143922500Y-95547204D01*
X143912000Y-95649983D01*
X143912000Y-96850001D01*
X143912001Y-96850018D01*
X143922500Y-96952796D01*
X143922501Y-96952799D01*
X143977685Y-97119331D01*
X143977687Y-97119336D01*
X144007909Y-97168334D01*
X144069788Y-97268656D01*
X144193844Y-97392712D01*
X144343166Y-97484814D01*
X144509703Y-97539999D01*
X144612491Y-97550500D01*
X145200500Y-97550499D01*
X145267539Y-97570183D01*
X145313294Y-97622987D01*
X145324500Y-97674499D01*
X145324500Y-100203800D01*
X145304815Y-100270839D01*
X145252011Y-100316594D01*
X145200500Y-100327800D01*
X144712829Y-100327800D01*
X144712823Y-100327801D01*
X144653216Y-100334208D01*
X144518371Y-100384502D01*
X144518364Y-100384506D01*
X144403155Y-100470752D01*
X144403152Y-100470755D01*
X144316906Y-100585964D01*
X144316902Y-100585971D01*
X144266610Y-100720813D01*
X144266609Y-100720817D01*
X144260200Y-100780427D01*
X144260200Y-100780434D01*
X144260200Y-100780435D01*
X144260200Y-101409570D01*
X144260201Y-101409576D01*
X144266608Y-101469183D01*
X144316902Y-101604028D01*
X144316904Y-101604031D01*
X144355575Y-101655689D01*
X144379992Y-101721154D01*
X144365140Y-101789427D01*
X144355575Y-101804311D01*
X144316904Y-101855968D01*
X144316902Y-101855971D01*
X144266610Y-101990813D01*
X144266609Y-101990817D01*
X144260200Y-102050427D01*
X144260200Y-102050434D01*
X144260200Y-102050435D01*
X144260200Y-102679570D01*
X144260201Y-102679576D01*
X144266608Y-102739183D01*
X144316902Y-102874028D01*
X144316904Y-102874031D01*
X144355575Y-102925689D01*
X144379992Y-102991154D01*
X144365140Y-103059427D01*
X144355575Y-103074311D01*
X144316904Y-103125968D01*
X144316902Y-103125971D01*
X144269711Y-103252499D01*
X144266609Y-103260817D01*
X144260200Y-103320427D01*
X144260200Y-103320434D01*
X144260200Y-103320435D01*
X144260200Y-103949570D01*
X144260201Y-103949576D01*
X144266608Y-104009183D01*
X144316902Y-104144028D01*
X144316904Y-104144031D01*
X144355575Y-104195689D01*
X144379992Y-104261154D01*
X144365140Y-104329427D01*
X144355575Y-104344311D01*
X144316904Y-104395968D01*
X144316902Y-104395971D01*
X144266610Y-104530813D01*
X144266609Y-104530817D01*
X144260200Y-104590427D01*
X144260200Y-104590434D01*
X144260200Y-104590435D01*
X144260200Y-105219570D01*
X144260201Y-105219576D01*
X144266608Y-105279183D01*
X144316902Y-105414028D01*
X144316906Y-105414035D01*
X144403152Y-105529244D01*
X144403155Y-105529247D01*
X144518364Y-105615493D01*
X144518371Y-105615497D01*
X144653217Y-105665791D01*
X144653216Y-105665791D01*
X144660144Y-105666535D01*
X144712827Y-105672200D01*
X146789772Y-105672199D01*
X146849383Y-105665791D01*
X146984231Y-105615496D01*
X147089055Y-105537024D01*
X147106095Y-105526310D01*
X147110895Y-105523810D01*
X147213127Y-105481465D01*
X147281274Y-105435931D01*
X147319669Y-105410277D01*
X148505277Y-104224669D01*
X148576465Y-104118127D01*
X148625501Y-103999744D01*
X148650500Y-103874069D01*
X148650500Y-102898036D01*
X148651097Y-102885884D01*
X148651500Y-102881791D01*
X148651500Y-102577049D01*
X148671185Y-102510010D01*
X148687819Y-102489368D01*
X148706560Y-102470627D01*
X148875321Y-102301865D01*
X148936642Y-102268382D01*
X149006333Y-102273366D01*
X149062267Y-102315237D01*
X149086684Y-102380702D01*
X149087000Y-102389547D01*
X149087000Y-102562500D01*
X149087001Y-102562519D01*
X149097500Y-102665296D01*
X149097501Y-102665299D01*
X149121984Y-102739183D01*
X149152686Y-102831834D01*
X149244788Y-102981156D01*
X149368844Y-103105212D01*
X149518166Y-103197314D01*
X149672031Y-103248300D01*
X149729475Y-103288072D01*
X149756298Y-103352587D01*
X149743983Y-103421363D01*
X149708514Y-103464380D01*
X149623048Y-103529961D01*
X149529964Y-103623045D01*
X149529955Y-103623055D01*
X149449632Y-103727732D01*
X149449620Y-103727750D01*
X149383803Y-103841748D01*
X149383802Y-103841749D01*
X149333300Y-103963670D01*
X149299224Y-104090841D01*
X149282000Y-104221666D01*
X149282000Y-104787502D01*
X149287144Y-104859439D01*
X149298103Y-104896762D01*
X149301863Y-104949341D01*
X149282000Y-105087498D01*
X149282000Y-105653329D01*
X149288944Y-105706080D01*
X149278178Y-105775115D01*
X149253686Y-105809944D01*
X148100451Y-106963181D01*
X148039128Y-106996666D01*
X148012770Y-106999500D01*
X139349729Y-106999500D01*
X139282690Y-106979815D01*
X139262048Y-106963181D01*
X137571312Y-105272444D01*
X137537827Y-105211121D01*
X137536054Y-105168582D01*
X137543000Y-105115826D01*
X137543000Y-104550000D01*
X137537855Y-104478060D01*
X137526896Y-104440740D01*
X137523136Y-104388158D01*
X137543000Y-104250000D01*
X137543000Y-103684174D01*
X137525775Y-103553338D01*
X137491700Y-103426171D01*
X137441201Y-103304257D01*
X137441198Y-103304252D01*
X137441197Y-103304249D01*
X137441196Y-103304248D01*
X137375379Y-103190250D01*
X137375375Y-103190243D01*
X137371337Y-103184981D01*
X137295044Y-103085555D01*
X137295041Y-103085551D01*
X137256506Y-103047016D01*
X137223021Y-102985693D01*
X137228005Y-102916001D01*
X137269877Y-102860068D01*
X137279082Y-102853801D01*
X137418656Y-102767712D01*
X137542712Y-102643656D01*
X137634814Y-102494334D01*
X137680987Y-102354992D01*
X137720757Y-102297551D01*
X137785273Y-102270727D01*
X137854049Y-102283042D01*
X137886372Y-102306318D01*
X139296281Y-103716227D01*
X139329766Y-103777550D01*
X139332600Y-103803907D01*
X139332600Y-103949569D01*
X139332601Y-103949576D01*
X139339008Y-104009183D01*
X139389302Y-104144028D01*
X139389306Y-104144035D01*
X139475552Y-104259244D01*
X139475555Y-104259247D01*
X139590764Y-104345493D01*
X139590771Y-104345497D01*
X139725617Y-104395791D01*
X139725616Y-104395791D01*
X139732544Y-104396535D01*
X139785227Y-104402200D01*
X141862172Y-104402199D01*
X141921783Y-104395791D01*
X142056631Y-104345496D01*
X142171846Y-104259246D01*
X142258096Y-104144031D01*
X142308391Y-104009183D01*
X142314800Y-103949573D01*
X142314799Y-103320428D01*
X142308391Y-103260817D01*
X142284705Y-103197312D01*
X142258097Y-103125971D01*
X142258095Y-103125968D01*
X142242557Y-103105212D01*
X142219424Y-103074310D01*
X142195007Y-103008848D01*
X142209858Y-102940575D01*
X142219421Y-102925693D01*
X142258096Y-102874031D01*
X142308391Y-102739183D01*
X142314800Y-102679573D01*
X142314799Y-102050428D01*
X142309599Y-102002057D01*
X142308391Y-101990816D01*
X142258097Y-101855971D01*
X142258095Y-101855968D01*
X142256703Y-101854108D01*
X142219424Y-101804310D01*
X142195007Y-101738848D01*
X142209858Y-101670575D01*
X142219421Y-101655693D01*
X142258096Y-101604031D01*
X142308391Y-101469183D01*
X142314800Y-101409573D01*
X142314799Y-100780428D01*
X142308391Y-100720817D01*
X142298490Y-100694272D01*
X142258097Y-100585971D01*
X142258093Y-100585964D01*
X142171847Y-100470755D01*
X142171844Y-100470752D01*
X142056635Y-100384506D01*
X142056628Y-100384502D01*
X141921782Y-100334208D01*
X141921783Y-100334208D01*
X141862183Y-100327801D01*
X141862181Y-100327800D01*
X141862173Y-100327800D01*
X141862165Y-100327800D01*
X140049108Y-100327800D01*
X139982069Y-100308115D01*
X139961427Y-100291481D01*
X139436819Y-99766873D01*
X139403334Y-99705550D01*
X139400500Y-99679192D01*
X139400500Y-95773428D01*
X139375502Y-95647761D01*
X139375501Y-95647760D01*
X139375501Y-95647756D01*
X139333851Y-95547204D01*
X139326466Y-95529375D01*
X139326465Y-95529373D01*
X139314212Y-95511035D01*
X139314211Y-95511032D01*
X139255278Y-95422832D01*
X139255272Y-95422825D01*
X137711818Y-93879371D01*
X137678333Y-93818048D01*
X137675499Y-93791690D01*
X137675499Y-93249998D01*
X137675498Y-93249981D01*
X137664999Y-93147203D01*
X137664998Y-93147200D01*
X137643175Y-93081342D01*
X137609814Y-92980666D01*
X137517712Y-92831344D01*
X137424049Y-92737681D01*
X137390564Y-92676358D01*
X137395548Y-92606666D01*
X137424049Y-92562319D01*
X137478677Y-92507691D01*
X137542712Y-92443656D01*
X137634814Y-92294334D01*
X137689999Y-92127797D01*
X137700500Y-92025009D01*
X137700499Y-90974992D01*
X137696267Y-90933568D01*
X137689999Y-90872203D01*
X137689998Y-90872200D01*
X137654366Y-90764671D01*
X137634814Y-90705666D01*
X137542712Y-90556344D01*
X137498432Y-90512064D01*
X137464947Y-90450741D01*
X137469931Y-90381049D01*
X137511803Y-90325116D01*
X137573971Y-90300979D01*
X137578831Y-90300500D01*
X137578842Y-90300500D01*
X137733497Y-90269737D01*
X137879179Y-90209394D01*
X138010289Y-90121789D01*
X138121789Y-90010289D01*
X138209394Y-89879179D01*
X138211278Y-89874632D01*
X138233475Y-89821042D01*
X138269737Y-89733497D01*
X138300500Y-89578842D01*
X138300500Y-89421158D01*
X138300500Y-89415066D01*
X138302180Y-89415066D01*
X138313685Y-89354339D01*
X138361740Y-89303620D01*
X138429588Y-89286932D01*
X138495687Y-89309575D01*
G37*
%TD.AperFunction*%
%TA.AperFunction,Conductor*%
G36*
X151881444Y-81653999D02*
G01*
X151920486Y-81699056D01*
X151924951Y-81707820D01*
X152049890Y-81879786D01*
X152049896Y-81879792D01*
X152200208Y-82030104D01*
X152372184Y-82155051D01*
X152372188Y-82155053D01*
X152376126Y-82157914D01*
X152375146Y-82159262D01*
X152417160Y-82205690D01*
X152429500Y-82259617D01*
X152429500Y-88386691D01*
X152409815Y-88453730D01*
X152393181Y-88474372D01*
X150379371Y-90488181D01*
X150318048Y-90521666D01*
X150291690Y-90524500D01*
X149737498Y-90524500D01*
X149737480Y-90524501D01*
X149634703Y-90535000D01*
X149634700Y-90535001D01*
X149468168Y-90590185D01*
X149468163Y-90590187D01*
X149318842Y-90682289D01*
X149194789Y-90806342D01*
X149102687Y-90955663D01*
X149102686Y-90955666D01*
X149047501Y-91122203D01*
X149047501Y-91122204D01*
X149047500Y-91122204D01*
X149037000Y-91224983D01*
X149037000Y-92275001D01*
X149037001Y-92275019D01*
X149047500Y-92377796D01*
X149047501Y-92377799D01*
X149102685Y-92544331D01*
X149102687Y-92544336D01*
X149121434Y-92574730D01*
X149194589Y-92693334D01*
X149194789Y-92693657D01*
X149227519Y-92726387D01*
X149261004Y-92787710D01*
X149256020Y-92857402D01*
X149214148Y-92913335D01*
X149204935Y-92919606D01*
X149143847Y-92957285D01*
X149143843Y-92957288D01*
X149019789Y-93081342D01*
X148927687Y-93230663D01*
X148927685Y-93230668D01*
X148921285Y-93249983D01*
X148872501Y-93397203D01*
X148872501Y-93397204D01*
X148872500Y-93397204D01*
X148862000Y-93499983D01*
X148862000Y-94041691D01*
X148842315Y-94108730D01*
X148825681Y-94129372D01*
X147958444Y-94996608D01*
X147897121Y-95030093D01*
X147827429Y-95025109D01*
X147813378Y-95018238D01*
X147806834Y-95015186D01*
X147750769Y-94996608D01*
X147640297Y-94960001D01*
X147640295Y-94960000D01*
X147537516Y-94949500D01*
X147537509Y-94949500D01*
X146062230Y-94949500D01*
X145995191Y-94929815D01*
X145974549Y-94913181D01*
X143874319Y-92812951D01*
X143859615Y-92786023D01*
X143843023Y-92760205D01*
X143842131Y-92754004D01*
X143840834Y-92751628D01*
X143838000Y-92725270D01*
X143838000Y-92574730D01*
X143857685Y-92507691D01*
X143874319Y-92487049D01*
X143912319Y-92449049D01*
X143973642Y-92415564D01*
X144043334Y-92420548D01*
X144087681Y-92449049D01*
X144181344Y-92542712D01*
X144330666Y-92634814D01*
X144497203Y-92689999D01*
X144599991Y-92700500D01*
X145225008Y-92700499D01*
X145225016Y-92700498D01*
X145225019Y-92700498D01*
X145303754Y-92692455D01*
X145327797Y-92689999D01*
X145494334Y-92634814D01*
X145643656Y-92542712D01*
X145662319Y-92524049D01*
X145723642Y-92490564D01*
X145793334Y-92495548D01*
X145837681Y-92524049D01*
X145856344Y-92542712D01*
X146005666Y-92634814D01*
X146172203Y-92689999D01*
X146274991Y-92700500D01*
X146900008Y-92700499D01*
X146900016Y-92700498D01*
X146900019Y-92700498D01*
X146978754Y-92692455D01*
X147002797Y-92689999D01*
X147169334Y-92634814D01*
X147318656Y-92542712D01*
X147442712Y-92418656D01*
X147534814Y-92269334D01*
X147589999Y-92102797D01*
X147600500Y-92000009D01*
X147600499Y-91012230D01*
X147607492Y-90988414D01*
X147610365Y-90963760D01*
X147618095Y-90952300D01*
X147620183Y-90945192D01*
X147628644Y-90933568D01*
X147632508Y-90928858D01*
X147707952Y-90853416D01*
X147763863Y-90769737D01*
X147790084Y-90730495D01*
X147846658Y-90593913D01*
X147860465Y-90524501D01*
X147875500Y-90448920D01*
X147875500Y-90304604D01*
X147884939Y-90257151D01*
X147894737Y-90233497D01*
X147925500Y-90078842D01*
X147925500Y-89921158D01*
X147925500Y-89921155D01*
X147925499Y-89921153D01*
X147894739Y-89766511D01*
X147894738Y-89766508D01*
X147894737Y-89766503D01*
X147884937Y-89742844D01*
X147883953Y-89738492D01*
X147882501Y-89736472D01*
X147879451Y-89718581D01*
X147875668Y-89701846D01*
X147875500Y-89698620D01*
X147875500Y-89551082D01*
X147866839Y-89507541D01*
X147862389Y-89485171D01*
X147855429Y-89450178D01*
X147846659Y-89406088D01*
X147806964Y-89310257D01*
X147804215Y-89303620D01*
X147790087Y-89269511D01*
X147790080Y-89269498D01*
X147707952Y-89146585D01*
X147682188Y-89120821D01*
X147603416Y-89042049D01*
X147290344Y-88728977D01*
X146949319Y-88387951D01*
X146915834Y-88326628D01*
X146913000Y-88300270D01*
X146913000Y-88049499D01*
X146932685Y-87982460D01*
X146985489Y-87936705D01*
X147037000Y-87925499D01*
X147625002Y-87925499D01*
X147625008Y-87925499D01*
X147727797Y-87914999D01*
X147894334Y-87859814D01*
X148043656Y-87767712D01*
X148167712Y-87643656D01*
X148195855Y-87598027D01*
X148247802Y-87551303D01*
X148316765Y-87540080D01*
X148380847Y-87567923D01*
X148389075Y-87575443D01*
X148506344Y-87692712D01*
X148655666Y-87784814D01*
X148822203Y-87839999D01*
X148924991Y-87850500D01*
X149525008Y-87850499D01*
X149525016Y-87850498D01*
X149525019Y-87850498D01*
X149581302Y-87844748D01*
X149627797Y-87839999D01*
X149794334Y-87784814D01*
X149943656Y-87692712D01*
X150067712Y-87568656D01*
X150159814Y-87419334D01*
X150214999Y-87252797D01*
X150225500Y-87150009D01*
X150225499Y-86099992D01*
X150214999Y-85997203D01*
X150159814Y-85830666D01*
X150067712Y-85681344D01*
X149943656Y-85557288D01*
X149794334Y-85465186D01*
X149627797Y-85410001D01*
X149627795Y-85410000D01*
X149525010Y-85399500D01*
X148924998Y-85399500D01*
X148924980Y-85399501D01*
X148822203Y-85410000D01*
X148822200Y-85410001D01*
X148655668Y-85465185D01*
X148655663Y-85465187D01*
X148506345Y-85557287D01*
X148389075Y-85674557D01*
X148327752Y-85708041D01*
X148258060Y-85703057D01*
X148202127Y-85661185D01*
X148195855Y-85651972D01*
X148167712Y-85606344D01*
X148043656Y-85482288D01*
X147950888Y-85425069D01*
X147894336Y-85390187D01*
X147894331Y-85390185D01*
X147892862Y-85389698D01*
X147727797Y-85335001D01*
X147727795Y-85335000D01*
X147625016Y-85324500D01*
X147625009Y-85324500D01*
X145974730Y-85324500D01*
X145907691Y-85304815D01*
X145887049Y-85288181D01*
X143265921Y-82667052D01*
X143265914Y-82667046D01*
X143192229Y-82617812D01*
X143192229Y-82617813D01*
X143142995Y-82584916D01*
X143142994Y-82584915D01*
X143142992Y-82584914D01*
X143107524Y-82570223D01*
X143053120Y-82526382D01*
X143031056Y-82460087D01*
X143048336Y-82392388D01*
X143099473Y-82344778D01*
X143135576Y-82333190D01*
X143236243Y-82317246D01*
X143438412Y-82251557D01*
X143627816Y-82155051D01*
X143662595Y-82129783D01*
X143799786Y-82030109D01*
X143799788Y-82030106D01*
X143799792Y-82030104D01*
X143950104Y-81879792D01*
X143950106Y-81879788D01*
X143950109Y-81879786D01*
X144075048Y-81707820D01*
X144075047Y-81707820D01*
X144075051Y-81707816D01*
X144079514Y-81699054D01*
X144127488Y-81648259D01*
X144195308Y-81631463D01*
X144261444Y-81653999D01*
X144300486Y-81699056D01*
X144304951Y-81707820D01*
X144429890Y-81879786D01*
X144580213Y-82030109D01*
X144752179Y-82155048D01*
X144752181Y-82155049D01*
X144752184Y-82155051D01*
X144941588Y-82251557D01*
X145143757Y-82317246D01*
X145353713Y-82350500D01*
X145353714Y-82350500D01*
X145566286Y-82350500D01*
X145566287Y-82350500D01*
X145776243Y-82317246D01*
X145978412Y-82251557D01*
X146167816Y-82155051D01*
X146202595Y-82129783D01*
X146339786Y-82030109D01*
X146339788Y-82030106D01*
X146339792Y-82030104D01*
X146490104Y-81879792D01*
X146490106Y-81879788D01*
X146490109Y-81879786D01*
X146615048Y-81707820D01*
X146615047Y-81707820D01*
X146615051Y-81707816D01*
X146619514Y-81699054D01*
X146667488Y-81648259D01*
X146735308Y-81631463D01*
X146801444Y-81653999D01*
X146840486Y-81699056D01*
X146844951Y-81707820D01*
X146969890Y-81879786D01*
X147120213Y-82030109D01*
X147292179Y-82155048D01*
X147292181Y-82155049D01*
X147292184Y-82155051D01*
X147481588Y-82251557D01*
X147683757Y-82317246D01*
X147893713Y-82350500D01*
X147893714Y-82350500D01*
X148106286Y-82350500D01*
X148106287Y-82350500D01*
X148316243Y-82317246D01*
X148518412Y-82251557D01*
X148707816Y-82155051D01*
X148742595Y-82129783D01*
X148879786Y-82030109D01*
X148879788Y-82030106D01*
X148879792Y-82030104D01*
X149030104Y-81879792D01*
X149030106Y-81879788D01*
X149030109Y-81879786D01*
X149155048Y-81707820D01*
X149155047Y-81707820D01*
X149155051Y-81707816D01*
X149159514Y-81699054D01*
X149207488Y-81648259D01*
X149275308Y-81631463D01*
X149341444Y-81653999D01*
X149380486Y-81699056D01*
X149384951Y-81707820D01*
X149509890Y-81879786D01*
X149660213Y-82030109D01*
X149832179Y-82155048D01*
X149832181Y-82155049D01*
X149832184Y-82155051D01*
X150021588Y-82251557D01*
X150223757Y-82317246D01*
X150433713Y-82350500D01*
X150433714Y-82350500D01*
X150646286Y-82350500D01*
X150646287Y-82350500D01*
X150856243Y-82317246D01*
X151058412Y-82251557D01*
X151247816Y-82155051D01*
X151282595Y-82129783D01*
X151419786Y-82030109D01*
X151419788Y-82030106D01*
X151419792Y-82030104D01*
X151570104Y-81879792D01*
X151570106Y-81879788D01*
X151570109Y-81879786D01*
X151695048Y-81707820D01*
X151695047Y-81707820D01*
X151695051Y-81707816D01*
X151699514Y-81699054D01*
X151747488Y-81648259D01*
X151815308Y-81631463D01*
X151881444Y-81653999D01*
G37*
%TD.AperFunction*%
%TA.AperFunction,Conductor*%
G36*
X137368813Y-79520185D02*
G01*
X137414568Y-79572989D01*
X137424512Y-79642147D01*
X137395487Y-79705703D01*
X137340093Y-79742430D01*
X137321588Y-79748443D01*
X137321585Y-79748444D01*
X137132179Y-79844951D01*
X136960213Y-79969890D01*
X136809890Y-80120213D01*
X136684951Y-80292179D01*
X136588444Y-80481585D01*
X136522753Y-80683760D01*
X136505169Y-80794781D01*
X136489500Y-80893713D01*
X136489500Y-81106287D01*
X136522754Y-81316243D01*
X136582714Y-81500781D01*
X136588444Y-81518414D01*
X136684951Y-81707820D01*
X136809890Y-81879786D01*
X136960213Y-82030109D01*
X137132179Y-82155048D01*
X137132181Y-82155049D01*
X137132184Y-82155051D01*
X137321588Y-82251557D01*
X137523757Y-82317246D01*
X137733713Y-82350500D01*
X137733714Y-82350500D01*
X137946286Y-82350500D01*
X137946287Y-82350500D01*
X138041728Y-82335383D01*
X138111021Y-82344337D01*
X138148807Y-82370175D01*
X139507049Y-83728416D01*
X139611584Y-83832951D01*
X139611587Y-83832953D01*
X139611588Y-83832954D01*
X139734503Y-83915083D01*
X139734506Y-83915085D01*
X139784665Y-83935861D01*
X139791080Y-83938518D01*
X139871088Y-83971659D01*
X139987241Y-83994763D01*
X140010380Y-83999365D01*
X140016081Y-84000500D01*
X140016082Y-84000500D01*
X140016083Y-84000500D01*
X140163918Y-84000500D01*
X142425270Y-84000500D01*
X142492309Y-84020185D01*
X142512951Y-84036819D01*
X144059418Y-85583286D01*
X144092903Y-85644609D01*
X144087919Y-85714301D01*
X144077279Y-85736059D01*
X144065186Y-85755666D01*
X144010001Y-85922203D01*
X144010001Y-85922204D01*
X144010000Y-85922204D01*
X143999500Y-86024983D01*
X143999500Y-87225001D01*
X143999501Y-87225018D01*
X144010000Y-87327796D01*
X144010001Y-87327799D01*
X144061018Y-87481755D01*
X144065186Y-87494334D01*
X144157288Y-87643656D01*
X144281344Y-87767712D01*
X144430666Y-87859814D01*
X144597203Y-87914999D01*
X144699991Y-87925500D01*
X145288000Y-87925499D01*
X145355039Y-87945183D01*
X145400794Y-87997987D01*
X145412000Y-88049499D01*
X145412000Y-88736418D01*
X145412000Y-88736420D01*
X145411999Y-88736420D01*
X145440840Y-88881407D01*
X145440843Y-88881417D01*
X145497414Y-89017992D01*
X145497415Y-89017994D01*
X145497416Y-89017995D01*
X145525211Y-89059594D01*
X145530312Y-89067227D01*
X145530313Y-89067230D01*
X145579546Y-89140914D01*
X145579552Y-89140921D01*
X146288181Y-89849548D01*
X146302884Y-89876475D01*
X146319477Y-89902294D01*
X146320368Y-89908494D01*
X146321666Y-89910871D01*
X146324500Y-89937229D01*
X146324500Y-90062769D01*
X146304815Y-90129808D01*
X146288185Y-90150445D01*
X146205142Y-90233489D01*
X146127818Y-90310813D01*
X146079143Y-90340836D01*
X146005668Y-90365184D01*
X145856342Y-90457289D01*
X145837681Y-90475951D01*
X145776358Y-90509436D01*
X145706666Y-90504452D01*
X145662319Y-90475951D01*
X145643657Y-90457289D01*
X145643656Y-90457288D01*
X145531453Y-90388081D01*
X145494336Y-90365187D01*
X145494331Y-90365185D01*
X145492862Y-90364698D01*
X145327797Y-90310001D01*
X145327795Y-90310000D01*
X145225010Y-90299500D01*
X144599998Y-90299500D01*
X144599980Y-90299501D01*
X144497203Y-90310000D01*
X144497200Y-90310001D01*
X144330668Y-90365185D01*
X144330663Y-90365187D01*
X144181342Y-90457289D01*
X144087681Y-90550951D01*
X144026358Y-90584436D01*
X143956666Y-90579452D01*
X143912319Y-90550951D01*
X143818657Y-90457289D01*
X143818656Y-90457288D01*
X143706453Y-90388081D01*
X143669336Y-90365187D01*
X143669331Y-90365185D01*
X143667862Y-90364698D01*
X143502797Y-90310001D01*
X143502795Y-90310000D01*
X143400010Y-90299500D01*
X142774998Y-90299500D01*
X142774980Y-90299501D01*
X142672203Y-90310000D01*
X142672200Y-90310001D01*
X142505668Y-90365185D01*
X142505663Y-90365187D01*
X142356342Y-90457289D01*
X142232289Y-90581342D01*
X142164901Y-90690597D01*
X142112953Y-90737321D01*
X142059362Y-90749500D01*
X141231058Y-90749500D01*
X141164019Y-90729815D01*
X141125519Y-90690597D01*
X141120394Y-90682288D01*
X141042712Y-90556344D01*
X140986819Y-90500451D01*
X140953334Y-90439128D01*
X140950500Y-90412770D01*
X140950500Y-89876079D01*
X140921659Y-89731092D01*
X140921658Y-89731091D01*
X140921658Y-89731087D01*
X140921656Y-89731082D01*
X140865086Y-89594509D01*
X140865085Y-89594507D01*
X140854619Y-89578844D01*
X140832186Y-89545270D01*
X140827273Y-89537917D01*
X140782956Y-89471589D01*
X140782952Y-89471584D01*
X133808743Y-82497375D01*
X133775258Y-82436052D01*
X133780242Y-82366360D01*
X133822114Y-82310427D01*
X133844601Y-82298149D01*
X133844546Y-82298047D01*
X133852326Y-82293797D01*
X133852331Y-82293796D01*
X133967546Y-82207546D01*
X134053796Y-82092331D01*
X134104091Y-81957483D01*
X134110500Y-81897873D01*
X134110499Y-80102128D01*
X134104091Y-80042517D01*
X134068749Y-79947761D01*
X134053797Y-79907671D01*
X134053793Y-79907664D01*
X133967547Y-79792455D01*
X133967544Y-79792452D01*
X133875792Y-79723766D01*
X133833921Y-79667832D01*
X133828937Y-79598141D01*
X133862423Y-79536818D01*
X133923746Y-79503334D01*
X133950103Y-79500500D01*
X137301774Y-79500500D01*
X137368813Y-79520185D01*
G37*
%TD.AperFunction*%
%TD*%
M02*
